<?xml version="1.0" encoding="UTF-8" standalone="no"?>
<svg
   xmlns:dc="http://purl.org/dc/elements/1.1/"
   xmlns:cc="http://creativecommons.org/ns#"
   xmlns:rdf="http://www.w3.org/1999/02/22-rdf-syntax-ns#"
   xmlns:svg="http://www.w3.org/2000/svg"
   xmlns="http://www.w3.org/2000/svg"
   xmlns:sodipodi="http://sodipodi.sourceforge.net/DTD/sodipodi-0.dtd"
   xmlns:inkscape="http://www.inkscape.org/namespaces/inkscape"
   viewBox="0 0 750 500"
   version="1.1"
   id="svg398"
   sodipodi:docname="tor.svg"
   inkscape:version="0.92.5 (2060ec1f9f, 2020-04-08)">
  <metadata
     id="metadata404">
    <rdf:RDF>
      <cc:Work
         rdf:about="">
        <dc:format>image/svg+xml</dc:format>
        <dc:type
           rdf:resource="http://purl.org/dc/dcmitype/StillImage" />
      </cc:Work>
    </rdf:RDF>
  </metadata>
  <defs
     id="defs402" />
  <sodipodi:namedview
     pagecolor="#ffffff"
     bordercolor="#666666"
     borderopacity="1"
     objecttolerance="10"
     gridtolerance="10"
     guidetolerance="10"
     inkscape:pageopacity="0"
     inkscape:pageshadow="2"
     inkscape:window-width="1848"
     inkscape:window-height="1016"
     id="namedview400"
     showgrid="false"
     inkscape:zoom="0.79"
     inkscape:cx="36.871533"
     inkscape:cy="163.47786"
     inkscape:window-x="72"
     inkscape:window-y="27"
     inkscape:window-maximized="1"
     inkscape:current-layer="svg398" />
  <g
     id="freepik--Floor--inject-301"
     transform="translate(44.303797,-81.012658)">
    <path
       d="m 698.62,468 c 0,0.15 -144.9,0.26 -323.6,0.26 -178.7,0 -323.64,-0.13 -323.64,-0.26 0,-0.13 144.87,-0.26 323.64,-0.26 178.77,0 323.6,0.1 323.6,0.26 z"
       style="fill:#263238"
       id="path2"
       inkscape:connector-curvature="0" />
  </g>
  <g
     id="freepik--Note--inject-301"
     transform="translate(44.303797,-81.012658)">
    <polygon
       points="622.85,84.36 622.85,467.46 155.72,467.46 144.94,83.88 "
       style="fill:#f5f5f5"
       id="polygon5" />
    <path
       d="m 144.42,84 -5,17.67 v 15.15 c 0,0 -0.63,1.89 0,7.57 l 0.58,5.61 1.76,10.1 v 5.68 l -2.67,8.2 -4.09,6.96 -4.42,12.62 v 18.93 l -3.16,10.1 -6.98,4.41 v 8.83 l 3.79,12 1.89,8.84 2.52,5.68 3.79,4.07 v 11.7 c 0,0 -4.42,-0.63 -4.42,6.95 v 7.57 l -11.36,9.47 v 30.29 l 4.42,12.6 15.78,12 v 16.4 l -2.53,6.32 -7.57,13.28 1.26,7.57 c 0,0 5.05,8.84 5.68,13.25 0.63,4.41 0,-0.63 0.63,4.42 0.63,5.05 10.1,14.51 10.1,14.51 l 8.2,12.63 v 41.69 h 7.58 l 0.05,-382.76 z"
       style="fill:#ffffff"
       id="path7"
       inkscape:connector-curvature="0" />
    <path
       d="m 150.39,84 -5,17.58 v 15.15 c 0,0 -0.63,1.89 0,7.57 l 0.61,5.7 1.75,10.1 v 5.68 l -2.66,8.2 -4.09,6.96 -4.42,12.62 v 18.93 l -3.15,10.1 -6.99,4.41 v 8.83 l 3.78,12 1.9,8.84 2.52,5.68 3.79,4.07 v 11.7 c 0,0 -4.42,-0.63 -4.42,6.95 v 7.57 l -11.36,9.47 v 30.29 l 4.42,12.6 15.77,12 v 16.4 l -2.52,6.32 -7.57,13.28 1.26,7.57 c 0,0 5.05,8.84 5.68,13.25 0.63,4.41 0,-0.63 0.63,4.42 0.63,5.05 10.1,14.51 10.1,14.51 l 8.2,12.63 v 41.69 h 7.57 V 84.36 Z"
       style="fill:#f5f5f5"
       id="path9"
       inkscape:connector-curvature="0" />
    <path
       d="m 183.52,467.05 c -0.14,0 -0.26,-85.77 -0.26,-191.54 0,-105.77 0.12,-191.51 0.26,-191.51 0.14,0 0.26,85.75 0.26,191.56 0,105.81 -0.11,191.49 -0.26,191.49 z"
       style="fill:#665db4"
       id="path11"
       inkscape:connector-curvature="0" />
    <path
       d="m 619.76,403.68 c 0,0.14 -106.07,0.26 -236.87,0.26 -130.8,0 -236.9,-0.12 -236.9,-0.26 0,-0.14 106,-0.26 236.9,-0.26 130.9,0 236.87,0.11 236.87,0.26 z"
       style="fill:#e0e0e0"
       id="path13"
       inkscape:connector-curvature="0" />
    <path
       d="m 619,425 c 0,0.14 -103.06,0.33 -230.17,0.42 -127.11,0.09 -230.19,0.05 -230.19,-0.09 0,-0.14 103,-0.34 230.19,-0.43 C 516.02,424.81 619,424.89 619,425 Z"
       style="fill:#e0e0e0"
       id="path15"
       inkscape:connector-curvature="0" />
    <path
       d="m 619,446.4 c 0,0.14 -102.71,0.26 -229.38,0.26 -126.67,0 -229.4,-0.12 -229.4,-0.26 0,-0.14 102.69,-0.27 229.4,-0.27 126.71,0 229.38,0.12 229.38,0.27 z"
       style="fill:#e0e0e0"
       id="path17"
       inkscape:connector-curvature="0" />
    <path
       d="m 619,379.3 c 0,0.15 -107.58,0.26 -240.27,0.26 -132.69,0 -240.28,-0.11 -240.28,-0.26 0,-0.15 107.55,-0.3 240.26,-0.3 132.71,0 240.29,0.16 240.29,0.3 z"
       style="fill:#e0e0e0"
       id="path19"
       inkscape:connector-curvature="0" />
    <path
       d="m 620.83,354.93 c 0,0.14 -107,-0.08 -239,-0.5 -132,-0.42 -239,-0.87 -239,-1 0,-0.13 107,0.08 239,0.5 132,0.42 239,0.86 239,1 z"
       style="fill:#e0e0e0"
       id="path21"
       inkscape:connector-curvature="0" />
    <path
       d="m 610.05,330.56 c 0,0.14 -105.1,0.26 -234.7,0.26 -129.6,0 -234.72,-0.12 -234.72,-0.26 0,-0.14 105.07,-0.26 234.72,-0.26 129.65,0 234.7,0.11 234.7,0.26 z"
       style="fill:#e0e0e0"
       id="path23"
       inkscape:connector-curvature="0" />
    <path
       d="m 610,306.19 c 0,0.14 -109.11,0.09 -243.68,-0.11 -134.57,-0.2 -243.71,-0.48 -243.71,-0.63 0,-0.15 109.09,-0.09 243.71,0.11 134.62,0.2 243.68,0.44 243.68,0.63 z"
       style="fill:#e0e0e0"
       id="path25"
       inkscape:connector-curvature="0" />
    <path
       d="m 610.05,281.81 c 0,0.15 -109.12,0.33 -243.69,0.41 -134.57,0.08 -243.71,0 -243.71,-0.11 0,-0.11 109.09,-0.33 243.71,-0.41 134.62,-0.08 243.69,-0.03 243.69,0.11 z"
       style="fill:#e0e0e0"
       id="path27"
       inkscape:connector-curvature="0" />
    <path
       d="m 610.05,257.44 c 0,0.14 -105.1,0.26 -234.7,0.26 -129.6,0 -234.72,-0.12 -234.72,-0.26 0,-0.14 105.07,-0.26 234.72,-0.26 129.65,0 234.7,0.12 234.7,0.26 z"
       style="fill:#e0e0e0"
       id="path29"
       inkscape:connector-curvature="0" />
    <path
       d="m 610.05,233.07 c 0,0.14 -105.1,0.26 -234.7,0.26 -129.6,0 -234.72,-0.12 -234.72,-0.26 0,-0.14 105.07,-0.26 234.72,-0.26 129.65,0 234.7,0.11 234.7,0.26 z"
       style="fill:#e0e0e0"
       id="path31"
       inkscape:connector-curvature="0" />
    <path
       d="m 610.05,208.69 c 0,0.15 -106.9,0.26 -238.72,0.26 -131.82,0 -238.74,-0.11 -238.74,-0.26 0,-0.15 106.87,-0.26 238.74,-0.26 131.87,0 238.72,0.12 238.72,0.26 z"
       style="fill:#e0e0e0"
       id="path33"
       inkscape:connector-curvature="0" />
    <path
       d="m 610.05,184.32 c 0,0.15 -105.1,0.26 -234.7,0.26 -129.6,0 -234.72,-0.11 -234.72,-0.26 0,-0.15 105.07,-0.26 234.72,-0.26 129.65,0 234.7,0.12 234.7,0.26 z"
       style="fill:#e0e0e0"
       id="path35"
       inkscape:connector-curvature="0" />
    <path
       d="m 610.05,160 c 0,0.14 -103.55,0.26 -231.26,0.26 -127.71,0 -231.28,-0.12 -231.28,-0.26 0,-0.14 103.53,-0.26 231.28,-0.26 127.75,0 231.26,0.06 231.26,0.26 z"
       style="fill:#e0e0e0"
       id="path37"
       inkscape:connector-curvature="0" />
    <path
       d="m 610.05,135.58 c 0,0.14 -102.59,0.26 -229.1,0.26 -126.51,0 -229.11,-0.12 -229.11,-0.26 0,-0.14 102.56,-0.26 229.11,-0.26 126.55,0 229.1,0.11 229.1,0.26 z"
       style="fill:#e0e0e0"
       id="path39"
       inkscape:connector-curvature="0" />
    <path
       d="m 160.25,83.88 462.65,0.18 h 0.23 v 0.23 c 0,113.28 0,244 0,383.1 v 0.26 h -30.24 -437.13 -0.22 v -0.22 c 0,-0.14 0,-0.28 0,-0.41 l 0.22,0.22 h -3.3 V 467 c 0,-14.39 0,-28.22 0,-41.69 v 0.12 l -8.2,-12.62 v 0 a 73.31,73.31 0 0 1 -6.28,-7.24 32.61,32.61 0 0 1 -2.59,-3.94 14.24,14.24 0 0 1 -1,-2.15 10.51,10.51 0 0 1 -0.45,-2.3 L 133.9,396 v -0.28 0 c 0,0 -0.05,-0.08 0,0.08 0.72,-0.19 0.21,-0.07 0.36,-0.13 v 0.09 c 0,-0.12 0,0.31 -0.39,0.06 0,-0.07 0,-0.07 0,-0.09 v -0.15 l -0.09,-0.57 c -0.11,-0.76 -0.21,-1.51 -0.38,-2.23 a 28.76,28.76 0 0 0 -1.48,-4.24 83.55,83.55 0 0 0 -4,-8 v -0.07 c -0.45,-2.71 -0.86,-5.15 -1.26,-7.57 v -0.07 -0.06 c 2.72,-4.75 5.16,-9 7.58,-13.25 v 0 l 2.52,-6.31 v -16.27 l 0.08,0.15 -15.77,-12 h -0.05 v -0.05 l -4.41,-12.63 v -0.06 c 0,-11.05 0,-20.83 0,-30.29 V 282 l 0.06,-0.05 11.33,-9.51 -0.06,0.13 c 0,-3.17 0,-6.07 0,-8.86 a 8.73,8.73 0 0 1 1.13,-3.95 3.71,3.71 0 0 1 3.43,-1.87 l -0.18,0.16 v -11.7 0.11 l -3.78,-4.08 v 0 0 L 126,236.66 v 0 0 c -0.73,-3.42 -1.32,-6.15 -1.89,-8.84 v 0 l -3.78,-12 v -9 h 0.06 l 7,-4.41 -0.06,0.07 3.16,-10.1 v 0 c 0,-7.6 0,-13.39 0,-18.93 v 0 c 1.83,-5.2 3.15,-9 4.43,-12.62 v 0 l 4.14,-6.94 v 0 c 1.14,-3.5 1.91,-5.89 2.67,-8.21 v 0 c 0,-2.46 0,-4.08 0,-5.67 v 0 c -0.44,-2.52 -0.84,-4.85 -1.22,-7 -0.18,-1.09 -0.36,-2.13 -0.54,-3.14 -0.18,-1.01 -0.22,-2 -0.32,-3 -0.4,-3.79 -0.9,-7.15 -0.29,-10.29 v 0 c 0,-7.06 0,-11.3 0,-15.15 v 0 l 5.06,-17.66 v 0 0 h 15.78 l -15.78,0.05 v 0 c -1.13,4 -2.52,8.88 -5,17.68 v 0 c 0,3.85 0,8.09 0,15.15 v 0 0 c -0.6,3.06 -0.11,6.44 0.31,10.22 q 0.15,1.43 0.33,2.94 c 0.17,1 0.35,2.05 0.54,3.14 0.38,2.16 0.78,4.49 1.22,7 v 0 c 0,1.59 0,3.21 0,5.67 v 0 c -0.75,2.32 -1.52,4.7 -2.66,8.2 v 0 l -4.13,7 v 0 l -4.41,12.62 v 0 c 0,5.54 0,11.33 0,18.93 v 0 c -0.94,3 -1.89,6.07 -3.15,10.1 v 0.05 0 c -2.07,1.33 -4.18,2.67 -6.94,4.42 l 0.07,-0.11 v 8.79 c 1.14,3.62 2.31,7.33 3.79,12 v 0 c 0.58,2.69 1.16,5.42 1.9,8.84 v 0 l 2.52,5.67 v 0 l 3.78,4.07 v 0 11.94 h -0.18 a 3.42,3.42 0 0 0 -3.12,1.73 8.46,8.46 0 0 0 -1.07,3.79 c -0.09,2.75 0,5.68 0,8.84 v 0.08 l -0.06,0.05 -11.36,9.47 0.07,-0.14 c 0,9.46 0,19.24 0,30.29 v -0.06 c 1.39,4 2.8,8 4.42,12.62 l -0.07,-0.08 15.78,12 0.08,0.06 v 16.58 l -2.52,6.31 v 0 L 127,373 v -0.14 c 0.4,2.42 0.81,4.86 1.26,7.57 v -0.06 a 84.39,84.39 0 0 1 4,8 31.25,31.25 0 0 1 1.51,4.3 c 0.17,0.76 0.27,1.52 0.38,2.27 l 0.09,0.56 v 0.13 c 0,0 0.07,0 -0.17,0.07 0,0 -0.13,0 -0.22,0 v 0 0 c 0.16,-0.05 -0.35,0.05 0.36,-0.14 0.1,0.17 0,0.06 0,0.11 v 0.05 0.28 l 0.14,1.14 a 9.93,9.93 0 0 0 0.44,2.22 12.94,12.94 0 0 0 0.93,2.09 31.23,31.23 0 0 0 2.55,3.88 73.88,73.88 0 0 0 6.25,7.2 v 0 0 l 8.2,12.62 v 0.05 0.06 c 0,13.47 0,27.3 0,41.69 l -0.23,-0.22 H 156 v 0.63 l -0.23,-0.22 h 437.13 30 l -0.26,0.26 c 0,-139 0,-269.82 0,-383.1 l 0.23,0.23 z"
       style="fill:#263238"
       id="path41"
       inkscape:connector-curvature="0" />
  </g>
  <g
     id="freepik--Letters--inject-301"
     transform="translate(44.303797,-81.012658)">
    <g
       style="opacity:0.2"
       id="g46">
      <polygon
         points="228.98,190.81 254.76,193.53 244.76,132.98 221.68,187.88 "
         id="polygon44" />
    </g>
    <polygon
       points="221.68,187.88 252.98,190.81 244.33,131.96 224.07,136.58 "
       style="fill:#455a64"
       id="polygon48" />
    <path
       d="m 247.21,181.87 h -6.38 l -1.09,-7.31 H 232 l -1.09,7.31 h -5.81 l 6.44,-40.26 h 9.26 z M 232.78,169.1 h 6.09 l -3,-20.36 z"
       style="fill:#e0e0e0"
       id="path50"
       inkscape:connector-curvature="0" />
    <g
       style="opacity:0.2"
       id="g54">
      <polygon
         points="510.41,184.07 528.73,184.73 535.31,142.41 521.01,179.61 505.27,182.01 "
         id="polygon52" />
    </g>
    <path
       d="M 505.27,137.19 V 182 h 21.91 l 9.57,-46.59 z"
       style="fill:#e0e0e0"
       id="path56"
       inkscape:connector-curvature="0" />
    <path
       d="m 522,157.46 v 2.11 h -9.1 v 15.94 h -2.32 v -35.2 H 524 v 2.12 h -11.1 v 15 z"
       style="fill:#263238"
       id="path58"
       inkscape:connector-curvature="0" />
    <g
       style="opacity:0.2"
       id="g62">
      <polygon
         points="395.64,192.61 406.29,192.61 421.34,194.18 427.08,190.15 430.97,178.16 429.21,144.37 409.67,179.58 391.27,190.15 "
         id="polygon60" />
    </g>
    <polygon
       points="392.78,191.35 405.96,189.25 417.23,191.35 422.31,190.15 424.91,188.25 425.8,185.13 426.6,178.08 429.21,144.37 421.32,177.19 410.24,185.13 392.3,188.55 391.27,190.15 "
       style="fill:#e0e0e0"
       id="polygon64" />
    <polygon
       points="391.27,190.15 406.39,187.59 423.5,187.59 429.21,144.37 390.13,146.49 "
       style="fill:#665db4"
       id="polygon66" />
    <path
       d="m 394.92,153.24 h 13 c 8.8,0 14.86,5 14.86,13.17 0,8.17 -6.06,13.17 -14.86,13.17 h -13 z m 12.61,19.42 c 3.72,0 6.28,-2.22 6.28,-6.25 0,-4.03 -2.56,-6.24 -6.28,-6.24 h -3.73 v 12.49 z"
       style="fill:#ffffff"
       id="path68"
       inkscape:connector-curvature="0" />
    <g
       style="opacity:0.2"
       id="g72">
      <path
         d="m 258.44,179.18 3.24,4.48 A 11.49,11.49 0 0 1 264,185 c 1,0.79 3.66,3.06 4,3 a 11.7,11.7 0 0 1 2.33,0.94 H 275 l 3.68,0.83 c 0,0 3,-1.55 3.63,-1.77 0.63,-0.22 2.32,-0.89 2.32,-0.89 l 2.66,-0.83 4.15,-1.29 h 8.14 l 2,-0.54 1,-4 -3.69,-40.27 z"
         id="path70"
         inkscape:connector-curvature="0" />
    </g>
    <path
       d="m 258.44,178.44 2.74,2.09 1.83,1.19 1.7,1.94 3.11,1.37 3.33,0.79 h 3 l 3.15,2 a 7.35,7.35 0 0 0 3.49,0 c 1.66,-0.5 3.77,-2.59 4.63,-2.79 a 44.83,44.83 0 0 0 4.18,-1.79 l 3.38,-0.74 4.26,0.74 1.63,-1.52 -1.63,-4.54 -23.09,0.83 z"
       style="fill:#e0e0e0"
       id="path74"
       inkscape:connector-curvature="0" />
    <polygon
       points="258.44,178.44 278.55,184.96 291.78,180.49 298.86,180.87 298.86,140.26 274.08,137.69 263.28,140.26 "
       style="fill:#665db4"
       id="polygon76" />
    <path
       d="m 290.47,163.7 c 0,5.39 -4.5,8.14 -11.3,8.14 h -12.53 l 5.2,-26 h 11.53 c 5.2,0 8.21,2 8.21,5.72 a 7.07,7.07 0 0 1 -4.79,6.88 5.21,5.21 0 0 1 3.68,5.26 z m -3.68,0 c 0,-2.64 -1.94,-3.57 -5.43,-3.57 h -8.7 l -1.66,8.7 h 8.48 c 4.63,0 7.31,-1.83 7.31,-5.1 z m -11.86,-14.9 -1.67,8.32 h 7.62 c 4.09,0 6.84,-1.67 6.84,-5 0,-2.27 -1.9,-3.31 -5.13,-3.31 z"
       style="fill:#263238"
       id="path78"
       inkscape:connector-curvature="0" />
    <g
       style="opacity:0.2"
       id="g82">
      <polygon
         points="450.38,196.39 459.94,193.37 470.11,194.88 478.77,193.21 480.44,189.05 479.75,143.01 465.25,180.54 441.97,193.37 "
         id="polygon80" />
    </g>
    <polygon
       points="449.73,194.77 459.46,191.87 466.31,191.19 470.65,192.98 477.21,190.81 465.48,185.86 441.97,193.37 "
       style="fill:#e0e0e0"
       id="polygon84" />
    <polygon
       points="441.97,193.37 466.56,188.9 477.21,190.81 479.75,143.01 442.98,139.33 439.18,147.07 "
       style="fill:#455a64"
       id="polygon86" />
    <path
       d="m 454,159.56 v 9.73 h 5.41 a 4.43,4.43 0 0 0 2.81,-0.63 4.14,4.14 0 0 0 1.06,-2.95 H 464 v 8.57 h -0.67 a 9.27,9.27 0 0 0 -0.51,-2.3 2.27,2.27 0 0 0 -1.07,-1 5.53,5.53 0 0 0 -2.29,-0.36 H 454 v 8.11 a 7.34,7.34 0 0 0 0.15,2 1.1,1.1 0 0 0 0.51,0.56 3.06,3.06 0 0 0 1.38,0.21 h 4.17 a 11.47,11.47 0 0 0 3,-0.29 4.67,4.67 0 0 0 1.82,-1.15 14.09,14.09 0 0 0 2.3,-3.39 h 0.73 l -2.06,6.16 h -19 v -0.67 h 0.87 a 3.43,3.43 0 0 0 1.65,-0.42 1.5,1.5 0 0 0 0.79,-0.87 8.52,8.52 0 0 0 0.21,-2.38 v -16 a 5.31,5.31 0 0 0 -0.47,-2.88 2.81,2.81 0 0 0 -2.18,-0.73 H 447 v -0.67 h 19 l 0.28,5.39 h -0.71 a 8.62,8.62 0 0 0 -0.85,-2.67 2.89,2.89 0 0 0 -1.37,-1.11 8.24,8.24 0 0 0 -2.56,-0.27 z"
       style="fill:#263238"
       id="path88"
       inkscape:connector-curvature="0" />
    <g
       style="opacity:0.2"
       id="g92">
      <polygon
         points="359.78,183.05 363.84,137.05 354.31,174.82 335.34,181.32 "
         id="polygon90" />
    </g>
    <polygon
       points="324.14,154.86 335.34,181.32 357.64,180.06 363.84,137.05 335.34,131.96 "
       style="fill:#263238"
       id="polygon94" />
    <path
       d="m 356.14,144.33 v 8.53 h -0.7 a 9.15,9.15 0 0 0 -3,-5.12 7.63,7.63 0 0 0 -4.94,-1.78 7.36,7.36 0 0 0 -4.23,1.33 7.72,7.72 0 0 0 -2.81,3.46 15.75,15.75 0 0 0 -1.14,6.1 20.61,20.61 0 0 0 0.83,6 8,8 0 0 0 2.62,4.1 7.23,7.23 0 0 0 4.61,1.39 9,9 0 0 0 4.25,-1 14.56,14.56 0 0 0 4.08,-3.5 V 166 a 13.57,13.57 0 0 1 -4.31,3.14 13.24,13.24 0 0 1 -5.24,1 15.07,15.07 0 0 1 -7,-1.58 11.24,11.24 0 0 1 -4.72,-4.54 12.73,12.73 0 0 1 -1.66,-6.3 13.47,13.47 0 0 1 6.82,-11.58 13.48,13.48 0 0 1 6.65,-1.74 15.07,15.07 0 0 1 5.48,1.12 8.26,8.26 0 0 0 2.13,0.66 1.35,1.35 0 0 0 1,-0.43 2.29,2.29 0 0 0 0.56,-1.35 z"
       style="fill:#ffffff"
       id="path96"
       inkscape:connector-curvature="0" />
    <g
       style="opacity:0.2"
       id="g100">
      <polygon
         points="547.19,195.67 575.45,195.67 577.29,194.28 543.69,193.19 "
         id="polygon98" />
    </g>
    <path
       d="m 543.69,148.49 v 44.7 l 33.6,1.08 v -51.39 z"
       style="fill:#665db4"
       id="path102"
       inkscape:connector-curvature="0" />
    <path
       d="m 568.28,169.11 -0.42,5.22 a 18.69,18.69 0 0 1 -0.75,5.07 6.73,6.73 0 0 1 -2.61,3.71 11.43,11.43 0 0 1 -6.3,1.44 24,24 0 0 1 -4,-0.28 c -1.53,-0.25 -2.29,-0.79 -2.29,-1.61 0,-0.82 0.53,-1.38 1.58,-1.38 a 14.53,14.53 0 0 1 2.18,0.27 17.69,17.69 0 0 0 3.37,0.24 4.91,4.91 0 0 0 4.81,-2.89 15.23,15.23 0 0 0 0.93,-5.82 6.76,6.76 0 0 1 -2.34,2.33 6.06,6.06 0 0 1 -3.09,0.78 7.51,7.51 0 0 1 -5.34,-1.92 6.46,6.46 0 0 1 -2.07,-5 8.7,8.7 0 0 1 2.82,-6.76 11.34,11.34 0 0 1 7.91,-2.63 9.16,9.16 0 0 1 2.83,0.37 3.5,3.5 0 0 1 1.74,1.12 c 1.3,0 1.95,0.64 1.95,1.84 a 15.67,15.67 0 0 1 -0.38,2.95 c -0.32,1.46 -0.49,2.43 -0.53,2.95 z m -5.83,-6.72 a 7,7 0 0 0 -5.34,2 6.63,6.63 0 0 0 -1.68,4.66 5,5 0 0 0 1,3.38 3.79,3.79 0 0 0 3,1.14 5,5 0 0 0 3.56,-1.77 5.93,5.93 0 0 0 1.77,-3.23 q 0.39,-1.68 0.82,-5.26 a 5.74,5.74 0 0 0 -1.5,-0.72 5.87,5.87 0 0 0 -1.63,-0.2 z"
       style="fill:#ffffff"
       id="path104"
       inkscape:connector-curvature="0" />
    <g
       style="opacity:0.2"
       id="g108">
      <path
         d="m 539.86,268.7 8.76,1.78 25.13,-7.57 2.25,-2.63 -8.23,-47.53 c 0,0 -4.26,43.26 -3.62,43.11 0.64,-0.15 -24.29,12.84 -24.29,12.84 z"
         id="path106"
         inkscape:connector-curvature="0" />
    </g>
    <polygon
       points="539.16,268.87 573.75,260.39 567.77,212.75 536.59,217.78 "
       style="fill:#455a64"
       id="polygon110" />
    <path
       d="m 550.82,229.66 v 30.73 h -6 V 218 h 8.37 L 560,243.36 V 218 h 6 v 42.42 h -6.85 z"
       style="fill:#263238"
       id="path112"
       inkscape:connector-curvature="0" />
    <g
       style="opacity:0.2"
       id="g116">
      <path
         d="m 474.46,216.34 c 0,0.78 2.77,46.44 2.77,46.44 l 18.31,5.85 h 14.27 l 1.05,-5.85 -5.32,-48.18 -18.18,32.63 z"
         id="path114"
         inkscape:connector-curvature="0" />
    </g>
    <path
       d="m 474.46,216.34 v 44.26 l 33.85,6.51 -2.77,-52.51 z"
       style="fill:#e0e0e0"
       id="path118"
       inkscape:connector-curvature="0" />
    <path
       d="m 491.37,254.13 h -2.28 l -7.35,-30.73 v 30.78 h -2 V 219.43 H 483 l 7.3,30.73 7.25,-30.73 h 3.27 v 34.75 h -2.18 V 223.3 Z"
       style="fill:#ffffff"
       id="path120"
       inkscape:connector-curvature="0" />
    <g
       style="opacity:0.2"
       id="g124">
      <polygon
         points="426.28,414.04 429.92,411.22 424.7,357.67 419.63,397.26 393.62,403.67 "
         id="polygon122" />
    </g>
    <path
       d="m 393.62,359.41 v 44.26 l 33.86,6.51 -2.78,-52.51 z"
       style="fill:#e0e0e0"
       id="path126"
       inkscape:connector-curvature="0" />
    <path
       d="m 407.7,381.07 -7.05,16.19 h -2.23 l 7.84,-18 L 399,362.5 h 2.39 l 6.55,14.94 6.61,-14.94 h 2.18 l -7.3,16.73 7.8,18 h -2.44 z"
       style="fill:#263238"
       id="path128"
       inkscape:connector-curvature="0" />
    <g
       style="opacity:0.2"
       id="g132">
      <polygon
         points="337.43,332.64 358.32,332.64 360.93,330.71 354.09,284.51 351.76,324.79 333.88,330.71 "
         id="polygon130" />
    </g>
    <path
       d="m 333.88,286.45 v 44.26 h 23.56 l -3.35,-46.2 z"
       style="fill:#e0e0e0"
       id="path134"
       inkscape:connector-curvature="0" />
    <path
       d="m 344.59,288.72 c 5.36,0 7.45,3.38 7.45,8.44 v 3.77 c 0,5.51 -2.53,8.25 -8,8.25 h -4.32 v 14.29 h -2.29 V 288.72 Z M 344,307.09 c 4,0 5.76,-1.79 5.76,-6 V 297 c 0,-3.77 -1.29,-6.21 -5.17,-6.21 h -4.91 v 16.29 z"
       style="fill:#455a64"
       id="path136"
       inkscape:connector-curvature="0" />
    <g
       style="opacity:0.2"
       id="g140">
      <polygon
         points="285.96,342.34 294.54,341.79 305.44,343.31 312.99,340.27 314.01,330.81 313.28,316.46 311.7,295.19 300.79,326.45 277.72,341.58 "
         id="polygon138" />
    </g>
    <polygon
       points="277.72,341.58 290.73,339.51 301.86,341.58 306.88,340.39 309.44,338.52 310.33,335.43 311.11,328.48 311.7,295.19 305.9,327.6 294.96,335.43 277.24,338.82 274.24,340.39 "
       style="fill:#e0e0e0"
       id="polygon142" />
    <polygon
       points="274.24,340.39 289.17,337.86 306.07,337.86 311.7,295.19 273.11,297.28 "
       style="fill:#263238"
       id="polygon144" />
    <path
       d="m 279.52,317.81 c 0,-6.17 5,-10.52 11.82,-10.52 6.82,0 11.82,4.35 11.82,10.52 0,6.17 -4.91,10.55 -11.82,10.55 -6.91,0 -11.82,-4.36 -11.82,-10.55 z m 15.13,0 c 0,-2.64 -1.45,-4 -3.31,-4 -1.86,0 -3.31,1.34 -3.31,4 0,2.66 1.45,4 3.31,4 1.86,0 3.31,-1.36 3.31,-4 z"
       style="fill:#ffffff"
       id="path146"
       inkscape:connector-curvature="0" />
    <g
       style="opacity:0.2"
       id="g150">
      <polygon
         points="356.55,412.11 369.43,410.5 376.97,408.89 379.6,399.86 375.8,371.61 347.02,401.94 330.44,408.89 "
         id="polygon148" />
    </g>
    <polygon
       points="376.97,375.09 374.85,388.1 376.87,399.24 375.67,404.25 373.79,406.8 370.69,407.68 363.74,408.44 330.44,408.89 362.88,403.21 370.75,392.31 374.21,374.61 375.8,371.61 "
       style="fill:#e0e0e0"
       id="polygon152" />
    <polygon
       points="375.8,371.61 373.21,386.53 373.14,403.43 330.44,408.89 332.69,370.3 "
       style="fill:#263238"
       id="polygon154" />
    <path
       d="m 357.21,392.93 c 0,0 0.1,-0.07 0.23,-0.21 l 0.48,-0.55 0.66,-0.8 c 0.24,-0.3 0.49,-0.61 0.74,-0.94 0.25,-0.33 0.51,-0.65 0.76,-1 0.25,-0.35 0.49,-0.62 0.69,-0.89 0,-0.12 0,-0.23 0,-0.33 0,-0.1 0,-0.22 0,-0.33 a 3.67,3.67 0 0 1 0.32,-1.57 3.85,3.85 0 0 1 0.79,-1.14 3.34,3.34 0 0 1 1,-0.7 2.57,2.57 0 0 1 1,-0.23 1.21,1.21 0 0 1 0.86,0.24 0.86,0.86 0 0 1 0.26,0.65 2.79,2.79 0 0 1 -0.21,1 7.76,7.76 0 0 1 -0.54,1.15 c -0.23,0.41 -0.49,0.83 -0.79,1.27 -0.3,0.44 -0.61,0.86 -0.93,1.27 a 3,3 0 0 0 0.74,0.86 1.51,1.51 0 0 0 0.93,0.33 1.63,1.63 0 0 0 0.81,-0.24 l 2.56,-1.54 a 0.34,0.34 0 0 1 0.17,-0.05 0.29,0.29 0 0 1 0.22,0.11 0.38,0.38 0 0 1 0.09,0.27 0.68,0.68 0 0 1 -0.11,0.34 1,1 0 0 1 -0.37,0.35 l -1.81,1.07 a 3.66,3.66 0 0 1 -0.87,0.39 3.34,3.34 0 0 1 -0.8,0.11 2.6,2.6 0 0 1 -1.25,-0.3 3.24,3.24 0 0 1 -1,-0.82 c -0.17,0.23 -0.38,0.48 -0.62,0.75 a 10,10 0 0 1 -0.78,0.84 c -0.28,0.28 -0.59,0.56 -0.9,0.83 a 9,9 0 0 1 -1,0.72 5.43,5.43 0 0 1 -1,0.49 2.77,2.77 0 0 1 -1,0.19 1.45,1.45 0 0 1 -0.94,-0.3 2.14,2.14 0 0 1 -0.58,-0.85 4.84,4.84 0 0 1 -0.31,-1.26 15.65,15.65 0 0 1 -0.08,-1.59 24.08,24.08 0 0 1 0.13,-2.5 c 0.08,-0.87 0.16,-1.72 0.25,-2.57 a 1,1 0 0 0 -0.67,0.38 8.78,8.78 0 0 0 -0.83,1 c -0.29,0.41 -0.61,0.89 -1,1.41 l -1.08,1.64 c -0.38,0.56 -0.77,1.11 -1.18,1.65 A 13,13 0 0 1 349,393 a 6.52,6.52 0 0 1 -1.34,1 2.78,2.78 0 0 1 -1.38,0.39 0.81,0.81 0 0 1 -0.55,-0.2 1.24,1.24 0 0 1 -0.36,-0.53 2.83,2.83 0 0 1 -0.2,-0.8 c 0,-0.31 -0.05,-0.64 -0.05,-1 a 15.85,15.85 0 0 1 0.11,-1.77 c 0.07,-0.62 0.15,-1.21 0.25,-1.77 0.1,-0.56 0.19,-1.05 0.28,-1.48 0.09,-0.43 0.16,-0.73 0.2,-0.9 -0.26,0.18 -0.57,0.38 -0.91,0.59 l -1.09,0.67 -1.18,0.7 -1.19,0.7 -2.79,1.64 a 0.48,0.48 0 0 1 -0.18,0.08 h -0.17 c -0.18,0 -0.27,-0.1 -0.27,-0.29 a 0.72,0.72 0 0 1 0.14,-0.4 1.37,1.37 0 0 1 0.48,-0.43 l 7.2,-4.2 0.29,-0.15 a 5.54,5.54 0 0 1 0.64,-0.31 6.33,6.33 0 0 1 0.8,-0.31 2.52,2.52 0 0 1 0.77,-0.14 l 0.28,0.16 a 1.27,1.27 0 0 1 0.25,0.21 0.86,0.86 0 0 1 0.2,0.26 0.69,0.69 0 0 1 0.08,0.32 v 0.08 a 0.24,0.24 0 0 1 0,0.08 l -1.31,7.16 1.53,-1.79 c 0.35,-0.41 0.7,-0.86 1.06,-1.34 0.36,-0.48 0.73,-1 1.11,-1.48 0.38,-0.48 0.77,-1 1.18,-1.42 a 9.58,9.58 0 0 1 1.27,-1.21 6.67,6.67 0 0 1 1.38,-0.85 3.77,3.77 0 0 1 1.52,-0.32 1.29,1.29 0 0 1 0.62,0.11 0.37,0.37 0 0 1 0.17,0.31 1.08,1.08 0 0 1 -0.12,0.45 c -0.07,0.17 -0.16,0.36 -0.26,0.57 a 6.52,6.52 0 0 0 -0.29,0.69 3.66,3.66 0 0 0 -0.18,0.78 c 0,0.17 0,0.38 -0.05,0.65 -0.05,0.27 0,0.57 -0.06,0.89 -0.06,0.32 -0.06,0.65 -0.09,1 -0.03,0.35 0,0.75 0,1.23 0,0.33 0,0.63 0,0.91 a 6.25,6.25 0 0 0 0.08,0.73 2,2 0 0 0 0.14,0.49 c 0.04,0.11 0.12,0.17 0.2,0.17 z m 4.53,-5.87 a 0.4,0.4 0 0 0 0,0.15 c 0,0.05 0,0.11 0,0.16 a 5.62,5.62 0 0 0 0.53,-0.82 1.41,1.41 0 0 0 0.14,-0.45 c 0,-0.08 0,-0.12 -0.07,-0.12 -0.07,0 -0.15,0.09 -0.27,0.26 a 2.28,2.28 0 0 0 -0.33,0.82 z"
       style="fill:#e0e0e0"
       id="path156"
       inkscape:connector-curvature="0" />
    <g
       style="opacity:0.2"
       id="g160">
      <path
         d="m 433.35,261.29 2.88,1.62 9.87,-1.2 13.28,2.59 6.64,-3.6 3.6,-9.42 v -8.23 l -0.3,-28.15 c 0,0 -11.27,24.17 -11.4,24.7 -0.13,0.53 -7.92,13.76 -7.92,13.76 z"
         id="path158"
         inkscape:connector-curvature="0" />
    </g>
    <polygon
       points="433.35,261.3 446.37,259.23 457.5,261.3 462.52,260.11 465.08,258.24 465.96,255.15 466.75,248.2 469.32,214.9 461.53,247.32 450.59,255.15 432.88,258.54 431.86,260.11 "
       style="fill:#e0e0e0"
       id="polygon162" />
    <polygon
       points="431.86,260.11 446.79,257.58 463.69,257.58 469.32,214.9 430.73,217 "
       style="fill:#665db4"
       id="polygon164" />
    <path
       d="m 435.47,223.67 h 8.77 v 19.21 H 456 v 6.8 h -20.53 z"
       style="fill:#263238"
       id="path166"
       inkscape:connector-curvature="0" />
    <g
       style="opacity:0.2"
       id="g170">
      <polygon
         points="282.12,410.68 288.52,407.87 304.94,412.57 311.55,405.15 311.55,362.66 298.54,399.92 275.57,409.05 "
         id="polygon168" />
    </g>
    <polygon
       points="275.57,409.05 288.59,406.98 299.72,409.05 304.74,407.87 307.3,406 308.19,402.91 308.97,395.95 311.55,362.66 303.75,395.08 292.81,402.91 275.1,406.29 274.08,407.87 "
       style="fill:#e0e0e0"
       id="polygon172" />
    <polygon
       points="274.08,407.87 289.01,405.34 305.91,405.34 311.55,362.66 272.95,364.75 "
       style="fill:#665db4"
       id="polygon174" />
    <path
       d="m 290.9,395.21 4.25,-28.86 h 5.1 l -5.46,35.38 h -8.28 l -5.46,-35.38 h 5.61 z"
       style="fill:#ffffff"
       id="path176"
       inkscape:connector-curvature="0" />
    <g
       style="opacity:0.2"
       id="g180">
      <polygon
         points="223.03,336.68 238.56,343.39 250.81,338.62 255.78,336.18 257.78,331.64 255.4,293.93 246.41,326.98 215.48,331.64 "
         id="polygon178" />
    </g>
    <polygon
       points="236.94,341.48 250.15,335.58 255.4,334.03 247.64,333.66 234.68,336.99 215.48,331.64 "
       style="fill:#e0e0e0"
       id="polygon182" />
    <polygon
       points="215.48,331.64 235.35,338.07 248.41,333.66 255.4,334.03 255.4,293.93 229.31,291.47 220.27,293.93 "
       style="fill:#665db4"
       id="polygon184" />
    <path
       d="m 250.81,303 -5.14,25.69 h -3 L 231.18,309 l -3.93,19.78 h -3.67 L 228.72,303 h 3 l 11.49,19.78 3.93,-19.78 z"
       style="fill:#263238"
       id="path186"
       inkscape:connector-curvature="0" />
    <g
       style="opacity:0.2"
       id="g190">
      <path
         d="m 217.61,239.74 c 0.92,0.75 12.87,12.63 12.87,12.63 l 20.82,-3.87 4.35,-3.87 -5.61,-40 z"
         id="path188"
         inkscape:connector-curvature="0" />
    </g>
    <polygon
       points="217.61,239.74 229.86,249.83 252.87,243.58 250.04,204.67 217.61,207.79 "
       style="fill:#e0e0e0"
       id="polygon192" />
    <path
       d="m 245.08,241.16 a 1.9,1.9 0 0 1 -2,-1.37 26.65,26.65 0 0 1 -0.89,-4.23 30.29,30.29 0 0 1 -0.38,-4.31 c 0,-0.32 0,-0.8 0,-1.44 0,-0.64 0.05,-1.11 0.05,-1.43 0,-2.27 -0.66,-3.41 -2,-3.41 a 6.69,6.69 0 0 0 -4.81,2.09 24.84,24.84 0 0 0 -3,4.08 c 0,4.6 -0.23,7.33 -0.68,8.17 a 2,2 0 0 1 -1.84,1.13 2.43,2.43 0 0 1 -1.53,-0.51 1.51,1.51 0 0 1 -0.66,-1.23 3,3 0 0 1 0.19,-0.8 12.07,12.07 0 0 0 0.24,-2.65 l 0.06,-2.68 0.06,-13.33 c 0.1,-1.5 0.15,-2.5 0.15,-3 a 7.06,7.06 0 0 0 -0.2,-1.75 7.43,7.43 0 0 1 -0.2,-1.72 1.57,1.57 0 0 1 0.61,-1.26 2.35,2.35 0 0 1 1.51,-0.5 1.84,1.84 0 0 1 2,1.6 17.34,17.34 0 0 1 0.33,3.17 c 0,1.27 -0.05,2.6 -0.14,4 -0.09,1.4 -0.12,2.64 -0.11,4 v 1.6 a 12.25,12.25 0 0 1 3.72,-3 9.31,9.31 0 0 1 4.21,-1 q 3.53,0 4.83,2 a 9.13,9.13 0 0 1 1.06,4.64 l 0.17,3.46 0.43,3.77 a 33.75,33.75 0 0 0 0.72,3.74 2.28,2.28 0 0 1 0.08,0.52 1.54,1.54 0 0 1 -0.63,1.25 2.44,2.44 0 0 1 -1.35,0.4 z"
       style="fill:#ffffff"
       id="path194"
       inkscape:connector-curvature="0" />
    <g
       style="opacity:0.2"
       id="g198">
      <path
         d="m 221.11,405.47 9.89,12.94 15.88,-1.7 9.49,-5.55 2.07,-6.87 -4.9,-33.88 c 0,0 -16.22,36.44 -16.22,36 0,-0.44 -16.21,-0.94 -16.21,-0.94 z"
         id="path196"
         inkscape:connector-curvature="0" />
    </g>
    <polygon
       points="221.11,405.47 233.36,415.56 256.37,409.31 253.54,370.4 221.11,373.53 "
       style="fill:#e0e0e0"
       id="polygon200" />
    <path
       d="m 245.35,385 v 19.3 h -2.49 v -3.52 a 7.68,7.68 0 0 1 -6.94,3.7 c -4.92,0 -8.15,-2.75 -8.15,-8.29 V 385 h 2.61 v 10.93 c 0,4.11 2.13,6.21 5.8,6.21 4,0 6.57,-2.61 6.57,-7 V 385 Z"
       style="fill:#665db4"
       id="path202"
       inkscape:connector-curvature="0" />
    <g
       style="opacity:0.2"
       id="g206">
      <polygon
         points="437.33,348.94 446.13,345.53 453.49,346.25 458.61,346.25 462.22,345.26 464.72,341.22 464.72,295.14 448.82,333.06 427.82,344.72 "
         id="polygon204" />
    </g>
    <polygon
       points="435.08,346.25 444.69,343.39 451.45,342.72 455.75,344.49 462.22,342.34 450.63,337.45 427.42,344.87 "
       style="fill:#e0e0e0"
       id="polygon208" />
    <polygon
       points="427.42,344.87 451.7,340.46 462.22,342.34 464.72,295.14 428.42,291.5 424.66,299.15 "
       style="fill:#455a64"
       id="polygon210" />
    <path
       d="m 443,300.34 c 5.42,0 8.21,3.24 8.21,8.92 v 1.12 H 446 v -1.47 c 0,-2.54 -1,-3.5 -2.79,-3.5 -1.79,0 -2.79,1 -2.79,3.5 0,7.3 10.9,8.67 10.9,18.81 0,5.68 -2.84,8.92 -8.32,8.92 -5.48,0 -8.31,-3.24 -8.31,-8.92 v -2.18 h 5.27 v 2.53 c 0,2.54 1.12,3.45 2.89,3.45 1.77,0 2.89,-0.91 2.89,-3.45 0,-7.3 -10.9,-8.67 -10.9,-18.81 -0.02,-5.68 2.77,-8.92 8.16,-8.92 z"
       style="fill:#263238"
       id="path212"
       inkscape:connector-curvature="0" />
    <g
       style="opacity:0.2"
       id="g216">
      <polygon
         points="271.37,265.71 300.53,268.09 301.43,263.16 280.49,259.25 271.9,211.4 "
         id="polygon214" />
    </g>
    <polygon
       points="273.75,263.16 301.43,263.16 295.89,211.4 271.9,211.4 "
       style="fill:#455a64"
       id="polygon218" />
    <path
       d="m 280.19,226 c 0,-2.39 1.95,-4.22 5,-4.22 3.05,0 5,1.69 5,4.07 0,2.53 -1.94,4.37 -5,4.37 -3.06,0 -5,-1.85 -5,-4.22 z m 0.84,5.83 h 8.3 V 251.9 H 281 Z"
       style="fill:#263238"
       id="path220"
       inkscape:connector-curvature="0" />
    <g
       style="opacity:0.2"
       id="g224">
      <polygon
         points="384.77,339.44 404.69,339.44 407.1,335.47 399.15,285.24 394.09,333.69 377,337.01 "
         id="polygon222" />
    </g>
    <polygon
       points="377,337.01 404.69,337.01 399.15,285.24 375.16,285.24 "
       style="fill:#455a64"
       id="polygon226" />
    <path
       d="m 400.06,309.13 a 0.55,0.55 0 0 1 0.26,-0.05 0.35,0.35 0 0 1 0.29,0.13 0.48,0.48 0 0 1 0.11,0.34 0.94,0.94 0 0 1 -0.16,0.5 1.65,1.65 0 0 1 -0.5,0.48 l -4.52,2.92 a 13.89,13.89 0 0 0 -2,1.74 21.11,21.11 0 0 0 -1.81,2.16 25.4,25.4 0 0 0 -1.59,2.43 c -0.49,0.84 -0.95,1.69 -1.37,2.55 -0.42,0.86 -0.83,1.69 -1.2,2.52 -0.37,0.83 -0.71,1.6 -1,2.33 a 1,1 0 0 1 -0.58,0.53 2.65,2.65 0 0 1 -0.85,0.13 h -0.33 a 1.9,1.9 0 0 1 -0.36,-0.08 0.67,0.67 0 0 1 -0.3,-0.19 0.48,0.48 0 0 1 -0.12,-0.35 3.94,3.94 0 0 1 0.14,-0.72 c 0.09,-0.35 0.19,-0.73 0.31,-1.13 0.12,-0.4 0.22,-0.76 0.33,-1.1 0.11,-0.34 0.18,-0.55 0.21,-0.63 q 0.54,-1.28 1,-2.19 c 0.28,-0.6 0.53,-1.13 0.76,-1.56 a 10.57,10.57 0 0 1 0.69,-1.15 q 0.35,-0.5 0.72,-1 c 0.26,-0.31 0.54,-0.64 0.86,-1 l 1.12,-1.21 a 11.75,11.75 0 0 1 -1.92,0.69 7,7 0 0 1 -1.74,0.24 4.36,4.36 0 0 1 -1.39,-0.2 3,3 0 0 1 -1.09,-0.63 3,3 0 0 1 -0.71,-1.07 4,4 0 0 1 -0.25,-1.49 8.57,8.57 0 0 1 0.61,-3.22 13,13 0 0 1 1.62,-2.91 l -0.81,0.51 -0.93,0.57 -1,0.58 -0.94,0.55 -2.19,1.34 a 0.49,0.49 0 0 1 -0.19,0.05 0.44,0.44 0 0 1 -0.34,-0.16 0.57,0.57 0 0 1 -0.15,-0.4 0.86,0.86 0 0 1 0.15,-0.44 1.55,1.55 0 0 1 0.53,-0.46 c 2.1,-1.23 3.95,-2.32 5.53,-3.27 1.58,-0.95 2.93,-1.74 4,-2.39 a 11.88,11.88 0 0 1 2.5,-1.32 6.53,6.53 0 0 1 2.3,-0.46 2.43,2.43 0 0 1 1.83,0.74 3.33,3.33 0 0 1 0.71,2.36 9.83,9.83 0 0 1 -0.19,1.57 19.75,19.75 0 0 1 -0.58,2.25 24.77,24.77 0 0 1 -1,2.55 16.88,16.88 0 0 1 -1.36,2.47 z m -7.15,-5.73 a 5,5 0 0 0 -2,0.41 7.42,7.42 0 0 0 -1.83,1.1 10.46,10.46 0 0 0 -1.56,1.56 11.5,11.5 0 0 0 -1.21,1.82 9.29,9.29 0 0 0 -0.78,1.87 5.88,5.88 0 0 0 -0.29,1.7 4,4 0 0 0 0.17,1.18 2.25,2.25 0 0 0 0.51,0.92 2.4,2.4 0 0 0 0.87,0.61 3.22,3.22 0 0 0 1.23,0.22 2.57,2.57 0 0 0 0.65,-0.1 l 0.7,-0.23 0.7,-0.26 a 3.39,3.39 0 0 1 0.64,-0.17 c 0.48,-1 0.92,-1.92 1.33,-2.83 0.41,-0.91 0.76,-1.78 1.06,-2.59 0.3,-0.81 0.53,-1.54 0.7,-2.2 a 6.89,6.89 0 0 0 0.25,-1.68 1.64,1.64 0 0 0 -0.26,-1 1,1 0 0 0 -0.88,-0.33 z"
       style="fill:#ffffff"
       id="path228"
       inkscape:connector-curvature="0" />
    <g
       style="opacity:0.2"
       id="g232">
      <polygon
         points="462.54,424.27 480.82,428.3 488.5,426.5 484.94,368.42 476.66,420.41 450.18,417.97 "
         id="polygon230" />
    </g>
    <polygon
       points="450.18,417.97 484.94,426.5 484.94,368.42 448.33,366.21 "
       style="fill:#455a64"
       id="polygon234" />
    <path
       d="m 481.49,390.9 -1.81,1.1 q -0.89,0.52 -1.77,1.11 c -0.59,0.39 -1.19,0.81 -1.81,1.25 -0.62,0.44 -1.27,1 -2,1.51 q -0.84,2.16 -1.81,4.49 -0.97,2.33 -2.06,4.54 c -0.72,1.48 -1.47,2.87 -2.25,4.19 a 27.18,27.18 0 0 1 -2.39,3.47 13,13 0 0 1 -2.49,2.37 4.41,4.41 0 0 1 -2.49,0.88 3.94,3.94 0 0 1 -1.16,-0.15 2.6,2.6 0 0 1 -0.8,-0.4 1.53,1.53 0 0 1 -0.47,-0.56 1.27,1.27 0 0 1 -0.16,-0.62 5.17,5.17 0 0 1 0.31,-1.41 12.66,12.66 0 0 1 1,-2.18 c 0.45,-0.84 1,-1.77 1.71,-2.81 a 40.72,40.72 0 0 1 2.46,-3.32 q 1.44,-1.77 3.34,-3.69 a 57.41,57.41 0 0 1 4.32,-3.93 c 0.65,-1.5 1.2,-2.77 1.65,-3.79 0.45,-1.02 0.84,-1.88 1.15,-2.56 0.31,-0.68 0.55,-1.23 0.73,-1.63 0.18,-0.4 0.31,-0.75 0.41,-1 a 25.56,25.56 0 0 1 -1.67,2 c -0.64,0.7 -1.35,1.4 -2.13,2.11 -0.78,0.71 -1.6,1.37 -2.47,2 a 24.4,24.4 0 0 1 -2.7,1.71 16.81,16.81 0 0 1 -2.82,1.2 9.31,9.31 0 0 1 -2.81,0.45 1.14,1.14 0 0 1 -1,-0.43 2,2 0 0 1 -0.28,-1.14 6.93,6.93 0 0 1 0.21,-1.55 c 0.14,-0.6 0.32,-1.23 0.54,-1.91 0.22,-0.68 0.46,-1.36 0.74,-2.07 0.28,-0.71 0.56,-1.39 0.86,-2 0.3,-0.61 0.57,-1.26 0.83,-1.82 0.26,-0.56 0.46,-1 0.63,-1.39 -0.52,0.33 -1.16,0.71 -1.94,1.16 l -2.53,1.47 -2.9,1.67 -3.05,1.78 a 0.81,0.81 0 0 1 -0.41,0.13 0.45,0.45 0 0 1 -0.33,-0.12 0.46,0.46 0 0 1 -0.12,-0.33 0.92,0.92 0 0 1 0.19,-0.51 2.21,2.21 0 0 1 0.67,-0.56 l 3.84,-2.26 2.87,-1.7 c 0.81,-0.48 1.51,-0.88 2.08,-1.2 0.57,-0.32 1.08,-0.58 1.49,-0.77 a 7.49,7.49 0 0 1 1,-0.41 2.69,2.69 0 0 1 0.75,-0.13 1.49,1.49 0 0 1 0.84,0.21 1.71,1.71 0 0 1 0.53,0.54 2,2 0 0 1 0.26,0.71 3.75,3.75 0 0 1 0.07,0.73 4.57,4.57 0 0 1 -0.37,1.66 17.88,17.88 0 0 1 -0.92,2 c -0.36,0.68 -0.76,1.36 -1.18,2 -0.42,0.64 -0.82,1.34 -1.19,2 -0.37,0.66 -0.67,1.16 -0.92,1.63 a 2.84,2.84 0 0 0 -0.37,1.1 c 0,0.26 0.13,0.38 0.39,0.38 a 4.24,4.24 0 0 0 1.56,-0.4 18.68,18.68 0 0 0 2.13,-1.12 c 0.78,-0.47 1.6,-1 2.47,-1.67 0.87,-0.67 1.74,-1.33 2.59,-2.06 0.85,-0.73 1.69,-1.49 2.49,-2.28 0.8,-0.79 1.51,-1.58 2.16,-2.37 a 0.72,0.72 0 0 0 0.09,-0.36 1.81,1.81 0 0 1 0.14,-0.53 1.21,1.21 0 0 1 0.35,-0.47 1.17,1.17 0 0 1 0.74,-0.2 1.78,1.78 0 0 1 0.67,0.1 0.83,0.83 0 0 1 0.38,0.26 0.92,0.92 0 0 1 0.15,0.41 2.93,2.93 0 0 1 0,0.53 c 0,0 0,0 0,0 a 3.15,3.15 0 0 0 -0.25,0.61 c -0.14,0.41 -0.34,1 -0.58,1.69 l -0.86,2.54 c -0.34,1 -0.73,2.05 -1.15,3.2 1,-0.74 2.06,-1.46 3.13,-2.17 1.07,-0.71 2.22,-1.42 3.44,-2.13 a 0.49,0.49 0 0 1 0.2,-0.05 0.48,0.48 0 0 1 0.34,0.15 0.5,0.5 0 0 1 0.16,0.39 0.74,0.74 0 0 1 -0.16,0.43 1.73,1.73 0 0 1 -0.48,0.3 z M 466.5,403 a 10.76,10.76 0 0 0 -1.19,1.54 c -0.41,0.62 -0.82,1.29 -1.22,2 -0.4,0.71 -0.79,1.46 -1.15,2.21 -0.36,0.75 -0.69,1.46 -1,2.12 -0.31,0.66 -0.5,1.24 -0.66,1.75 a 4.16,4.16 0 0 0 -0.24,1.09 c 0,0.26 0.12,0.39 0.37,0.39 a 1.52,1.52 0 0 0 0.93,-0.41 6.64,6.64 0 0 0 1,-1.11 16.42,16.42 0 0 0 1.07,-1.6 c 0.37,-0.61 0.74,-1.26 1.11,-1.93 0.37,-0.67 0.73,-1.38 1.09,-2.09 0.36,-0.71 0.71,-1.38 1.05,-2 0.42,-1 0.81,-2 1.18,-2.84 0.37,-0.84 0.71,-1.72 1,-2.5 -0.95,0.95 -2.1,2.09 -3.34,3.38 z"
       style="fill:#ffffff"
       id="path236"
       inkscape:connector-curvature="0" />
    <g
       style="opacity:0.2"
       id="g240">
      <polygon
         points="333.81,270.77 350.98,267.42 355.11,257.63 351.33,208.44 340.52,259.18 324.14,269.05 "
         id="polygon238" />
    </g>
    <polygon
       points="324.14,269.05 347.22,263.6 353.3,258.31 351.33,208.44 323.02,206.49 "
       style="fill:#665db4"
       id="polygon242" />
    <path
       d="m 340.35,221.87 a 9.8,9.8 0 0 1 0.77,2.13 15.44,15.44 0 0 1 0.36,2.47 26.8,26.8 0 0 1 0,2.85 c -0.05,1 -0.13,2.14 -0.24,3.34 q 1.33,-2.16 2.45,-3.89 c 0.75,-1.16 1.39,-2.14 1.92,-2.93 a 0.26,0.26 0 0 1 0.14,-0.13 0.67,0.67 0 0 1 0.45,0 0.6,0.6 0 0 1 0.39,0.3 1,1 0 0 1 0.05,0.52 2,2 0 0 1 -0.33,0.74 c -0.25,0.4 -0.56,0.9 -0.92,1.52 -0.36,0.62 -0.78,1.31 -1.23,2.11 -0.45,0.8 -0.93,1.65 -1.45,2.59 -0.52,0.94 -1.05,1.92 -1.61,2.95 q -0.28,2.59 -0.8,5.29 c -0.33,1.8 -0.72,3.55 -1.16,5.27 -0.44,1.72 -0.91,3.34 -1.43,4.89 a 40.92,40.92 0 0 1 -1.61,4.11 19.18,19.18 0 0 1 -1.75,3.12 5.31,5.31 0 0 1 -1.78,1.71 3.53,3.53 0 0 1 -1.67,0.49 1,1 0 0 1 -0.87,-0.55 3.75,3.75 0 0 1 -0.23,-1.9 17.59,17.59 0 0 1 0.54,-2.91 c 0.29,-1.11 0.68,-2.33 1.16,-3.67 0.48,-1.34 1,-2.74 1.65,-4.21 0.65,-1.47 1.27,-3 2,-4.52 0.73,-1.52 1.44,-3.09 2.17,-4.61 0.12,-1.06 0.2,-2.16 0.27,-3.29 0.07,-1.13 0.1,-2.31 0.12,-3.55 L 337.38,225.04 331,235 a 0.51,0.51 0 0 1 -0.21,0.2 0.69,0.69 0 0 1 -0.45,0 0.49,0.49 0 0 1 -0.34,-0.2 0.84,0.84 0 0 1 -0.05,-0.52 2.34,2.34 0 0 1 0.37,-0.85 c 0.55,-0.83 1.07,-1.63 1.57,-2.41 l 1.45,-2.26 4,-6.18 a 3.13,3.13 0 0 1 0.59,-0.65 3.47,3.47 0 0 1 0.78,-0.53 1.73,1.73 0 0 1 0.91,-0.21 1,1 0 0 1 0.73,0.48 z m -8.16,37.26 a 4.13,4.13 0 0 0 1.16,-1.24 14.94,14.94 0 0 0 1.51,-2.95 36.36,36.36 0 0 0 1.48,-4.78 48.59,48.59 0 0 0 1.09,-6.73 c -0.62,1.2 -1.21,2.39 -1.79,3.56 -0.58,1.17 -1.11,2.3 -1.62,3.39 -0.51,1.09 -0.95,2.1 -1.35,3.06 -0.4,0.96 -0.73,1.81 -1,2.57 a 14.18,14.18 0 0 0 -0.53,1.93 2,2 0 0 0 0,1.13 c 0.2,0.3 0.53,0.32 1.05,0.06 z m 6.45,-44.45 0.39,-0.18 c 0.18,-0.09 0.4,-0.18 0.65,-0.28 0.25,-0.1 0.51,-0.18 0.79,-0.26 a 4.27,4.27 0 0 1 0.82,-0.14 2.09,2.09 0 0 1 0.72,0.09 0.92,0.92 0 0 1 0.51,0.42 l -1.52,3.08 -0.84,1.08 a 0.68,0.68 0 0 1 -0.56,0.07 1.34,1.34 0 0 1 -0.43,-0.22 z"
       style="fill:#ffffff"
       id="path244"
       inkscape:connector-curvature="0" />
    <g
       style="opacity:0.2"
       id="g248">
      <polygon
         points="560.43,347.6 578.03,346.9 580.37,338.95 568.77,331.98 550.06,329.39 540.61,339.28 "
         id="polygon246" />
    </g>
    <path
       d="m 545.33,296.49 c 0,0 -5.73,42.79 -4.72,42.79 1.01,0 32.68,5.06 32.68,5.06 l 7.08,-5.39 v -39.77 z"
       style="fill:#665db4"
       id="path250"
       inkscape:connector-curvature="0" />
    <path
       d="m 558.6,337.58 v -32.67 h -7.05 v -2.08 H 568 v 2.08 h -7.1 v 32.67 z"
       style="fill:#ffffff"
       id="path252"
       inkscape:connector-curvature="0" />
    <g
       style="opacity:0.2"
       id="g256">
      <polygon
         points="534.75,434.23 548.32,431.59 552.42,424.3 550.62,384.2 527.36,421.2 510.86,424.3 "
         id="polygon254" />
    </g>
    <path
       d="m 515.57,381.5 c 0,0 -5.73,42.8 -4.71,42.8 1.02,0 32.68,5.05 32.68,5.05 l 7.08,-5.39 V 384.2 Z"
       style="fill:#665db4"
       id="path258"
       inkscape:connector-curvature="0" />
    <path
       d="M 538.34,422.6 H 522.7 v -2.09 l 13.45,-30.58 h -12.81 v -2.09 h 15.2 V 390 l -13.46,30.53 h 13.26 z"
       style="fill:#e0e0e0"
       id="path260"
       inkscape:connector-curvature="0" />
    <g
       style="opacity:0.2"
       id="g264">
      <polygon
         points="510.97,340.2 524.67,337.05 517.64,294.37 515.63,322.8 489.5,338.09 "
         id="polygon262" />
    </g>
    <polygon
       points="478.44,311.96 489.5,338.09 520.65,336.33 517.64,294.37 489.5,289.34 "
       style="fill:#263238"
       id="polygon266" />
    <path
       d="m 496.55,315.34 v 6.81 a 7.58,7.58 0 0 0 0.24,2.48 1.79,1.79 0 0 0 0.85,0.82 5.82,5.82 0 0 0 2.28,0.3 v 0.67 h -12.44 v -0.67 a 5.56,5.56 0 0 0 2.28,-0.31 1.88,1.88 0 0 0 0.85,-0.82 7.46,7.46 0 0 0 0.24,-2.47 v -15.77 a 7.53,7.53 0 0 0 -0.24,-2.48 1.81,1.81 0 0 0 -0.86,-0.82 5.76,5.76 0 0 0 -2.27,-0.3 v -0.67 h 11.29 a 24.88,24.88 0 0 1 6.45,0.61 6.54,6.54 0 0 1 3.33,2.25 6,6 0 0 1 1.29,3.85 5.73,5.73 0 0 1 -1.93,4.44 8.05,8.05 0 0 1 -3.46,1.67 l 5.84,8.22 a 12.45,12.45 0 0 0 1.63,2 3,3 0 0 0 1.71,0.61 v 0.67 H 506 l -7.83,-11.08 z m 0,-11.92 v 10.65 h 1 a 11.58,11.58 0 0 0 3.73,-0.46 3.67,3.67 0 0 0 1.94,-1.65 6,6 0 0 0 0.71,-3.11 4.72,4.72 0 0 0 -5.49,-5.43 z"
       style="fill:#455a64"
       id="path268"
       inkscape:connector-curvature="0" />
    <g
       style="opacity:0.2"
       id="g272">
      <polygon
         points="396.4,260.24 409.17,260.24 410.71,219.25 400.72,249.8 379.32,255.84 "
         id="polygon270" />
    </g>
    <polygon
       points="379.32,255.84 405.13,257.28 410.71,219.25 402.79,206.69 376.53,209.13 "
       style="fill:#263238"
       id="polygon274" />
    <path
       d="m 390.89,216.59 v 16 l 3.89,-3.82 a 10.63,10.63 0 0 0 1.49,-1.68 2,2 0 0 0 0.3,-1 1,1 0 0 0 -0.4,-0.8 3.19,3.19 0 0 0 -1.54,-0.47 v -0.66 h 7.51 v 0.66 a 4.29,4.29 0 0 0 -1.88,0.51 22.1,22.1 0 0 0 -3.16,2.75 l -1.82,1.79 3.94,5.78 a 45.57,45.57 0 0 0 2.83,3.94 2.41,2.41 0 0 0 1.54,0.68 v 0.64 h -8.65 v -0.64 a 1.25,1.25 0 0 0 0.83,-0.22 0.6,0.6 0 0 0 0.26,-0.46 3.73,3.73 0 0 0 -0.75,-1.53 l -3.28,-4.87 -1.07,1.06 v 3 a 4.86,4.86 0 0 0 0.35,2.39 2.06,2.06 0 0 0 1.47,0.6 v 0.64 h -8.65 v -0.64 a 2.08,2.08 0 0 0 1.5,-0.68 4.85,4.85 0 0 0 0.31,-2.31 v -17 a 4.88,4.88 0 0 0 -0.35,-2.37 2.12,2.12 0 0 0 -1.46,-0.6 v -0.67 z"
       style="fill:#ffffff"
       id="path276"
       inkscape:connector-curvature="0" />
  </g>
  <g
     id="freepik--Character--inject-301"
     transform="translate(44.303797,-81.012658)">
    <path
       d="m 176.59,448 v 21.1 l 43.43,-0.2 c -0.32,-4.28 -24.15,-12.82 -24.15,-12.82 l 0.48,-8.08 z"
       style="fill:#455a64"
       id="path279"
       inkscape:connector-curvature="0" />
    <g
       style="opacity:0.6"
       id="g283">
      <path
         d="m 183.62,454.18 a 1.84,1.84 0 0 0 -1.19,2.11 1.69,1.69 0 0 0 2,1.24 1.93,1.93 0 0 0 1.25,-2.24 1.74,1.74 0 0 0 -2.22,-1.05"
         style="fill:#ffffff"
         id="path281"
         inkscape:connector-curvature="0" />
    </g>
    <path
       d="m 176.59,469.11 v -3.37 l 41.46,0.48 c 0,0 2.17,1.28 2,2.69 z"
       style="fill:#263238"
       id="path285"
       inkscape:connector-curvature="0" />
    <path
       d="m 195.87,456.5 c 0,0.22 -1.06,0.33 -2.08,1.05 -1.02,0.72 -1.57,1.65 -1.77,1.57 -0.2,-0.08 0.1,-1.36 1.36,-2.21 1.26,-0.85 2.53,-0.61 2.49,-0.41 z"
       style="fill:#263238"
       id="path287"
       inkscape:connector-curvature="0" />
    <path
       d="m 201.56,458.45 c 0.05,0.21 -0.86,0.6 -1.56,1.54 -0.7,0.94 -0.9,1.91 -1.11,1.91 -0.21,0 -0.36,-1.24 0.54,-2.39 0.9,-1.15 2.12,-1.27 2.13,-1.06 z"
       style="fill:#263238"
       id="path289"
       inkscape:connector-curvature="0" />
    <path
       d="m 204.12,463.83 c -0.19,0.05 -0.5,-1 0,-2.25 0.5,-1.25 1.51,-1.7 1.6,-1.52 0.09,0.18 -0.51,0.84 -0.93,1.83 -0.42,0.99 -0.46,1.92 -0.67,1.94 z"
       style="fill:#263238"
       id="path291"
       inkscape:connector-curvature="0" />
    <path
       d="m 195.45,450.5 c -0.09,0.2 -1.06,-0.09 -2.25,0 -1.19,0.09 -2.11,0.51 -2.23,0.32 -0.12,-0.19 0.77,-1 2.18,-1.08 1.41,-0.08 2.4,0.58 2.3,0.76 z"
       style="fill:#263238"
       id="path293"
       inkscape:connector-curvature="0" />
    <path
       d="m 195.69,457.44 a 3.1,3.1 0 0 0 0.09,-1.29 7,7 0 0 0 -1.15,-3.32 6.56,6.56 0 0 0 -1.7,-1.76 1.5,1.5 0 0 0 -1.46,-0.25 1.62,1.62 0 0 0 -0.86,1.39 5.61,5.61 0 0 0 3.82,4.94 5.5,5.5 0 0 0 5.86,-1.71 3.79,3.79 0 0 0 0.78,-1.3 1.34,1.34 0 0 0 0,-0.84 1,1 0 0 0 -0.59,-0.61 1.8,1.8 0 0 0 -1.35,0.13 7.53,7.53 0 0 0 -1,0.56 8.91,8.91 0 0 0 -2.48,2.41 3.46,3.46 0 0 0 -0.6,1.13 12.47,12.47 0 0 1 3.31,-3.15 c 0.58,-0.33 1.34,-0.8 2,-0.59 0.27,0.11 0.37,0.42 0.24,0.79 a 3.35,3.35 0 0 1 -0.68,1.08 5,5 0 0 1 -5.25,1.49 5.1,5.1 0 0 1 -3.44,-4.29 1,1 0 0 1 0.51,-0.91 1,1 0 0 1 1,0.18 6.39,6.39 0 0 1 1.62,1.57 7.35,7.35 0 0 1 1.26,3.09 c 0.04,0.82 0.02,1.26 0.07,1.26 z"
       style="fill:#263238"
       id="path295"
       inkscape:connector-curvature="0" />
    <polygon
       points="156.32,456.52 155.83,468.77 139.54,469.16 138.97,456.52 139.44,448.82 156.32,449.71 "
       style="fill:#455a64"
       id="polygon297" />
    <path
       d="m 147.78,467.85 c -0.1,0 0.13,-3.74 0.52,-8.37 0.39,-4.63 0.78,-8.38 0.88,-8.38 0.1,0 -0.13,3.74 -0.52,8.36 -0.39,4.62 -0.78,8.39 -0.88,8.39 z"
       style="fill:#263238"
       id="path299"
       inkscape:connector-curvature="0" />
    <polygon
       points="139.44,466.92 139.44,469.16 155.9,469.14 155.89,466.73 "
       style="fill:#263238"
       id="polygon301" />
    <path
       d="m 139.48,459.69 a 2.48,2.48 0 0 1 0.42,-0.65 11.14,11.14 0 0 1 1.45,-1.52 11.41,11.41 0 0 1 2.63,-1.73 8.81,8.81 0 0 1 3.79,-0.86 8.69,8.69 0 0 1 6.35,2.7 7.48,7.48 0 0 1 1.2,1.74 2.26,2.26 0 0 1 0.26,0.72 17.32,17.32 0 0 0 -1.71,-2.22 8.77,8.77 0 0 0 -6.1,-2.46 10.09,10.09 0 0 0 -6.19,2.37 c -1.37,1.09 -2.03,1.97 -2.1,1.91 z"
       style="fill:#263238"
       id="path303"
       inkscape:connector-curvature="0" />
    <path
       d="m 194.39,292.33 -2.62,-3.51 -60.83,2.86 c 0,0 -1.17,18.9 -0.32,25.82 0.27,2.22 1.52,10.82 1.52,10.82 l 1.5,66.67 c 0.58,5.28 2,60.93 2,60.93 h 24.11 l 4.92,-89.2 c 0.52,-9.93 0.11,-23.22 0.61,-34.2 l 4.07,3.24 9.91,47 c 0,0 -1.21,16.83 -2.72,29 C 174.18,431 175,455.15 175,455.15 l 24.75,0.4 c 0,0 1.41,-23 4.1,-41.41 L 208,381.27 c 0,-3.69 -1.52,-12.56 -2,-18.6 z"
       style="fill:#263238"
       id="path305"
       inkscape:connector-curvature="0" />
    <path
       d="m 169.36,335.76 a 62.46,62.46 0 0 1 -6.56,-4.85 64.08,64.08 0 0 1 -6.24,-5.27 63.52,63.52 0 0 1 6.56,4.86 63.42,63.42 0 0 1 6.24,5.26 z"
       style="fill:#455a64"
       id="path307"
       inkscape:connector-curvature="0" />
    <path
       d="m 212.86,232.63 a 52.25,52.25 0 0 1 -1.44,-5.53 c -0.07,-1.08 0,-5.5 0,-5.5 0,0 2.65,-5.86 3.55,-6.28 a 6.92,6.92 0 0 1 1.66,-0.54 l 2.44,-9.66 c 0,0 0.79,-2 2.1,-1.63 1.31,0.37 1.1,1.69 1.11,2.38 0.01,0.69 -1.14,8.39 -1.14,8.39 l 0.1,0.44 c 0,0 2.11,-0.92 2.9,0 a 5.85,5.85 0 0 1 1.06,2.43 2.09,2.09 0 0 1 2,1.28 l 0.64,1.39 a 2.56,2.56 0 0 1 2.37,1 c 0.8,1.25 -0.2,5.44 -0.2,5.44 0,0 -2.95,6.3 -3.86,7.25 A 43.11,43.11 0 0 0 223.4,237 Z"
       style="fill:#ffbf9d"
       id="path309"
       inkscape:connector-curvature="0" />
    <path
       d="m 217.1,212.69 a 7.51,7.51 0 0 1 -0.34,1.84 19.48,19.48 0 0 1 -1.48,4.3 26.63,26.63 0 0 0 -2.2,3.9 8.12,8.12 0 0 0 -0.32,1.8 2.77,2.77 0 0 1 0,-1.89 19.21,19.21 0 0 1 2.11,-4 27.6,27.6 0 0 0 1.57,-4.17 8.38,8.38 0 0 1 0.66,-1.78 z"
       style="fill:#ff9a6c"
       id="path311"
       inkscape:connector-curvature="0" />
    <path
       d="m 221.14,214.4 c 0.06,0 0.15,0.18 0.12,0.48 a 3.59,3.59 0 0 1 -0.33,1.09 c -0.36,0.8 -0.75,1.37 -0.85,1.33 -0.1,-0.04 0.09,-0.74 0.45,-1.51 0.17,-0.38 0.33,-0.72 0.43,-1 0.1,-0.28 0.12,-0.38 0.18,-0.39 z"
       style="fill:#ff9a6c"
       id="path313"
       inkscape:connector-curvature="0" />
    <path
       d="m 225,216.91 c 0.12,0 0.2,0.51 0.1,1.11 -0.1,0.6 -0.34,1 -0.45,1 -0.11,0 -0.08,-0.52 0,-1.09 0.08,-0.57 0.26,-1.02 0.35,-1.02 z"
       style="fill:#ff9a6c"
       id="path315"
       inkscape:connector-curvature="0" />
    <path
       d="m 227.77,219.4 c 0.11,0 0.39,0.54 0.26,1.29 -0.13,0.75 -0.6,1.2 -0.68,1.12 -0.08,-0.08 0.14,-0.56 0.24,-1.2 0.1,-0.64 0.06,-1.17 0.18,-1.21 z"
       style="fill:#ff9a6c"
       id="path317"
       inkscape:connector-curvature="0" />
    <polygon
       points="208.85,244.27 221.32,252.07 224.27,234.23 219.53,230.04 212.49,231.78 "
       style="fill:#ffbf9d"
       id="polygon319" />
    <path
       d="m 150.87,153.22 -0.15,47.62 20.43,1 0.6,-11.58 c 0,0 7.25,1.44 9.12,-5.3 1.2,-4.3 0.9,-37.58 0.9,-37.58 z"
       style="fill:#ffbf9d"
       id="path321"
       inkscape:connector-curvature="0" />
    <path
       d="m 184.46,150.71 c -3.22,0.92 -3.92,6.18 -3.92,6.18 l -5,11.15 c -2.58,-2 -6,-1.9 -6.68,2.62 -0.47,3.26 3.59,3.92 3.59,3.92 -2.37,4 -4,7.28 -7.41,11.11 -3.73,4.14 -5.81,4.55 -9.85,4.62 h -4.46 c 0,0 -2.18,-7.08 -6.21,-24.78 -4.48,-19.63 18.74,-17.1 23,-22.11 7.01,-8.17 27.09,4.38 16.94,7.29 z"
       style="fill:#263238"
       id="path323"
       inkscape:connector-curvature="0" />
    <path
       d="m 144.9,167.39 c -3.76,-2.53 -4.1,-9.61 -1.91,-13.85 a 13.66,13.66 0 0 1 11.6,-7.21 5.47,5.47 0 0 0 1.89,-0.21 5.28,5.28 0 0 0 2,-1.93 c 3.37,-4.37 6.67,-8.67 12.94,-8.67 a 7.1,7.1 0 0 1 3.94,1 6.19,6.19 0 0 1 2.37,3.13 13.9,13.9 0 0 1 3.67,-1.32 4.54,4.54 0 0 1 3.68,0.9 2.78,2.78 0 0 1 0.57,3.53 4.44,4.44 0 0 1 4.45,3.7 c 0.33,2.09 -2.66,3.56 -3,3.73 0,0 1.64,3.44 -2.28,5.5 -1.58,0.83 -3.63,-0.17 -3.87,-0.29"
       style="fill:#263238"
       id="path325"
       inkscape:connector-curvature="0" />
    <path
       d="m 159.82,172 a 9.67,9.67 0 0 1 -1.56,6.93 c -0.14,-0.07 0.51,-1.53 0.94,-3.43 0.43,-1.9 0.46,-3.5 0.62,-3.5 z"
       style="fill:#455a64"
       id="path327"
       inkscape:connector-curvature="0" />
    <path
       d="m 162.29,169.63 a 8.58,8.58 0 0 1 -0.19,3.48 8.74,8.74 0 0 1 -1.08,3.32 19.09,19.09 0 0 1 0.57,-3.41 18.12,18.12 0 0 1 0.7,-3.39 z"
       style="fill:#455a64"
       id="path329"
       inkscape:connector-curvature="0" />
    <path
       d="m 169.37,161.77 c 0,0.07 -0.53,0.49 -1.27,1.35 a 13.08,13.08 0 0 0 -2.2,3.8 31.71,31.71 0 0 0 -1.22,4.28 6.73,6.73 0 0 1 -0.51,1.8 6.27,6.27 0 0 1 0.15,-1.87 20.93,20.93 0 0 1 1.1,-4.4 11,11 0 0 1 2.41,-3.86 3.89,3.89 0 0 1 1.54,-1.1 z"
       style="fill:#455a64"
       id="path331"
       inkscape:connector-curvature="0" />
    <path
       d="m 172.23,156.42 c 0.06,0 0.27,0.46 0.39,1.29 a 8.46,8.46 0 0 1 -0.17,3.25 8.73,8.73 0 0 1 -1.38,2.95 c -0.51,0.67 -0.91,1 -1,1 a 17.76,17.76 0 0 0 1.83,-4 18,18 0 0 0 0.33,-4.49 z"
       style="fill:#455a64"
       id="path333"
       inkscape:connector-curvature="0" />
    <path
       d="m 147.84,168.31 c -0.07,0.13 -0.69,-0.09 -1.4,-0.48 -0.71,-0.39 -1.21,-0.81 -1.14,-0.94 0.07,-0.13 0.69,0.09 1.4,0.49 0.71,0.4 1.21,0.81 1.14,0.93 z"
       style="fill:#455a64"
       id="path335"
       inkscape:connector-curvature="0" />
    <path
       d="m 157.71,163.23 c 0.14,0 0,1 -0.58,2.07 -0.58,1.07 -1.48,1.59 -1.56,1.48 -0.08,-0.11 0.54,-0.79 1.12,-1.75 0.58,-0.96 0.88,-1.84 1.02,-1.8 z"
       style="fill:#455a64"
       id="path337"
       inkscape:connector-curvature="0" />
    <path
       d="m 160.75,161.6 a 4.06,4.06 0 0 1 -0.91,2.47 c -0.82,1.25 -1.85,1.91 -1.93,1.8 -0.08,-0.11 0.73,-0.92 1.5,-2.08 0.77,-1.16 1.19,-2.24 1.34,-2.19 z"
       style="fill:#455a64"
       id="path339"
       inkscape:connector-curvature="0" />
    <path
       d="m 175.84,141.65 c 0,0 -0.39,-0.29 -1.13,-0.71 a 7.48,7.48 0 0 0 -3.42,-0.88 9.15,9.15 0 0 0 -5,1.35 12.44,12.44 0 0 0 -4.28,4.76 21.81,21.81 0 0 0 -1.74,4.47 l -0.08,0.3 -0.27,-0.15 a 10.31,10.31 0 0 0 -4.56,-1.16 10.65,10.65 0 0 0 -3.71,0.56 15.82,15.82 0 0 0 -3,1.51 3,3 0 0 1 0.68,-0.6 9.23,9.23 0 0 1 2.24,-1.21 10.77,10.77 0 0 1 3.82,-0.69 10.48,10.48 0 0 1 4.79,1.15 l -0.35,0.16 a 20.79,20.79 0 0 1 1.76,-4.58 12.65,12.65 0 0 1 4.41,-4.93 9.34,9.34 0 0 1 5.29,-1.31 7.34,7.34 0 0 1 3.51,1.08 4.75,4.75 0 0 1 0.78,0.62 c 0.19,0.16 0.27,0.25 0.26,0.26 z"
       style="fill:#455a64"
       id="path341"
       inkscape:connector-curvature="0" />
    <path
       d="m 186.58,144.24 c 0,0 0.57,-0.15 1.17,0.53 a 2,2 0 0 1 0.47,1.5 2.28,2.28 0 0 1 -1.22,1.73 3.36,3.36 0 0 1 -2.48,0.34 7.06,7.06 0 0 1 -2.56,-1.24 25,25 0 0 0 -2.5,-1.71 10.12,10.12 0 0 0 -3,-1.06 12.61,12.61 0 0 0 -6.16,0.42 17,17 0 0 0 -4.56,2.31 46,46 0 0 0 -3.63,3.08 5.59,5.59 0 0 1 0.81,-1 18.88,18.88 0 0 1 2.61,-2.36 16.39,16.39 0 0 1 4.62,-2.48 12.83,12.83 0 0 1 6.4,-0.47 10.48,10.48 0 0 1 3.17,1.12 24,24 0 0 1 2.54,1.77 6.92,6.92 0 0 0 2.38,1.22 3,3 0 0 0 2.2,-0.24 2,2 0 0 0 1.08,-1.42 1.78,1.78 0 0 0 -1.35,-2 z"
       style="fill:#455a64"
       id="path343"
       inkscape:connector-curvature="0" />
    <path
       d="m 134.31,267.1 c -0.92,4 -5.51,6.16 -8.34,9.2 -2.83,3.04 -7,5.53 -11,4.35 a 9.73,9.73 0 0 1 -5.71,-5.52 c -2.65,-5.78 -3.84,-13.72 -1.86,-19.76 1.98,-6.04 2.29,-10.47 4.84,-18.83 l 15.7,6.07 3.28,-4 c 0,0 3.78,25.55 3.09,28.49 z"
       style="fill:#665db4"
       id="path345"
       inkscape:connector-curvature="0" />
    <path
       d="m 186.19,232.67 c 0,0 9.26,34.94 17,39.67 a 13.3,13.3 0 0 0 6.86,2.11 12.22,12.22 0 0 0 11.88,-9.51 l 2.12,-27.8 -11.64,-4.77 -1,4.51 -2.74,-7.76 z"
       style="fill:#665db4"
       id="path347"
       inkscape:connector-curvature="0" />
    <path
       d="m 193.55,258.08 -0.09,-22.64 19.16,4.72 c 0,0 -5,-26.7 -13.22,-34.55 -6,-5.67 -28.24,-11 -28.24,-11 l -28.93,1.36 c 0,0 0.8,0.19 -6.67,3.54 -6.82,3.05 -14.94,7.11 -17.65,14.08 l -6,24.19 13.38,4.88 0.45,1.09 2.09,29.75 c -4.1,14.59 2.17,20.5 2.17,20.5 0,0 -0.6,7.92 0,9.8 0,0 45.27,1 56.19,0 8.92,-0.83 10.22,-1.08 10.22,-1.08 a 14.81,14.81 0 0 0 -0.67,-10.6 z"
       style="fill:#665db4"
       id="path349"
       inkscape:connector-curvature="0" />
    <path
       d="m 185.45,273.59 a 2.55,2.55 0 0 1 -0.5,-0.32 l -1.36,-1 c -0.59,-0.43 -1.31,-1 -2.11,-1.64 -0.8,-0.64 -1.75,-1.39 -2.73,-2.27 -2,-1.71 -4.28,-3.85 -6.71,-6.33 -2.43,-2.48 -4.95,-5.37 -7.44,-8.51 -2.49,-3.14 -4.65,-6.31 -6.51,-9.24 -1.86,-2.93 -3.39,-5.67 -4.57,-8 -0.63,-1.16 -1.12,-2.24 -1.57,-3.18 -0.45,-0.94 -0.81,-1.76 -1.1,-2.44 l -0.65,-1.56 a 2.29,2.29 0 0 1 -0.19,-0.56 2.32,2.32 0 0 1 0.29,0.52 l 0.74,1.52 c 0.31,0.66 0.69,1.47 1.17,2.39 0.48,0.92 1,2 1.63,3.14 1.23,2.31 2.8,5 4.65,7.93 1.85,2.93 4.06,6 6.52,9.18 2.46,3.18 5,6 7.38,8.49 2.38,2.49 4.65,4.66 6.61,6.39 1,0.89 1.88,1.64 2.66,2.32 0.78,0.68 1.48,1.25 2.05,1.71 l 1.31,1.08 a 3.07,3.07 0 0 1 0.43,0.38 z"
       style="fill:#263238"
       id="path351"
       inkscape:connector-curvature="0" />
    <path
       d="m 190.63,284.21 a 2.27,2.27 0 0 1 -0.49,0 l -1.4,-0.15 c -1.21,-0.11 -3,-0.39 -5.1,-0.78 a 57.38,57.38 0 0 1 -16,-5.65 101.62,101.62 0 0 1 -14.12,-9.63 c -1.7,-1.35 -3.07,-2.46 -4,-3.24 l -1.07,-0.91 a 2,2 0 0 1 -0.35,-0.34 c 0,0 0.15,0.07 0.42,0.26 l 1.13,0.83 4.11,3.11 a 114.83,114.83 0 0 0 14.09,9.42 61.26,61.26 0 0 0 15.87,5.75 c 2.13,0.43 3.86,0.77 5.06,0.94 l 1.38,0.25 a 1.62,1.62 0 0 1 0.47,0.14 z"
       style="fill:#263238"
       id="path353"
       inkscape:connector-curvature="0" />
    <path
       d="m 192.69,293.14 a 2.68,2.68 0 0 1 -0.63,0.14 l -1.81,0.28 c -1.57,0.24 -3.86,0.54 -6.68,0.86 a 220,220 0 0 1 -22.19,1.34 c -8.69,0.06 -16.55,-0.39 -22.22,-0.84 -2.83,-0.22 -5.13,-0.43 -6.71,-0.6 l -1.82,-0.2 A 3.37,3.37 0 0 1 130,294 a 2.6,2.6 0 0 1 0.64,0 l 1.83,0.11 6.72,0.44 c 5.67,0.34 13.51,0.74 22.18,0.68 8.67,-0.06 16.5,-0.64 22.16,-1.19 2.83,-0.27 5.12,-0.51 6.69,-0.69 l 1.83,-0.19 a 5,5 0 0 1 0.64,-0.02 z"
       style="fill:#263238"
       id="path355"
       inkscape:connector-curvature="0" />
    <path
       d="m 130,301.56 a 2.66,2.66 0 0 1 0,-0.52 c 0,-0.39 0,-0.89 0,-1.52 0,-1.37 0,-3.3 -0.08,-5.7 v 0.09 a 37,37 0 0 1 -2.13,-4 20.75,20.75 0 0 1 -1.66,-5.15 22.73,22.73 0 0 1 0.21,-6.13 c 0.31,-2.13 0.73,-4.33 1.29,-6.58 v 0.07 c -0.12,-2.42 -0.29,-4.94 -0.48,-7.51 -0.81,-10.44 -1.74,-19.88 -2.38,-26.72 -0.31,-3.37 -0.57,-6.12 -0.75,-8.09 -0.08,-0.92 -0.14,-1.65 -0.18,-2.2 a 3.84,3.84 0 0 1 0,-0.78 4.34,4.34 0 0 1 0.13,0.77 c 0.07,0.55 0.16,1.28 0.28,2.19 l 0.91,8.08 c 0.74,6.82 1.73,16.26 2.54,26.71 0.19,2.58 0.35,5.1 0.47,7.53 v 0.07 c -0.55,2.23 -1,4.43 -1.3,6.53 a 22.36,22.36 0 0 0 -0.25,6 21,21 0 0 0 1.57,5.06 38.89,38.89 0 0 0 2,4 v 0 0 c 0,2.4 -0.06,4.33 -0.07,5.7 0,0.63 0,1.13 -0.05,1.52 a 1.93,1.93 0 0 1 -0.07,0.58 z"
       style="fill:#263238"
       id="path357"
       inkscape:connector-curvature="0" />
    <path
       d="m 192.69,221.3 a 2.2,2.2 0 0 1 0.06,0.5 c 0,0.38 0.05,0.86 0.08,1.43 0,1.33 0.12,3.12 0.2,5.3 0.14,4.46 0.3,10.64 0.45,17.46 0.15,6.82 0.25,13 0.29,17.47 0,2.18 0,4 0,5.3 0,0.57 0,1.05 0,1.44 a 2.55,2.55 0 0 1 0,0.5 1.82,1.82 0 0 1 -0.07,-0.5 c 0,-0.39 -0.05,-0.87 -0.08,-1.44 0,-1.33 -0.11,-3.12 -0.19,-5.29 -0.15,-4.47 -0.31,-10.65 -0.45,-17.47 -0.14,-6.82 -0.25,-13 -0.3,-17.47 0,-2.17 0,-4 0,-5.29 0,-0.58 0,-1.05 0,-1.44 a 1.39,1.39 0 0 1 0.01,-0.5 z"
       style="fill:#263238"
       id="path359"
       inkscape:connector-curvature="0" />
    <path
       d="m 141.26,198.42 c 0,0 -4.8,-14.7 -5.25,-24.54 a 36.59,36.59 0 0 1 7.52,-24.07 32.72,32.72 0 0 1 24.4,-12.92 c 7.55,-0.51 9.62,0.23 12.09,4.62 8.91,15.89 9.51,29.8 6.23,40.22 -3.28,10.42 -5.73,16.75 -5.73,16.75 z"
       style="fill:#665db4"
       id="path361"
       inkscape:connector-curvature="0" />
    <path
       d="m 180.52,195.5 a 7.45,7.45 0 0 1 -1.44,0.66 14.39,14.39 0 0 1 -1.75,0.61 20,20 0 0 1 -2.37,0.64 45,45 0 0 1 -6.33,1 73.64,73.64 0 0 1 -7.83,0.16 92.89,92.89 0 0 1 -14.12,-1.66 c -1.78,-0.34 -3.22,-0.69 -4.2,-0.94 a 8.21,8.21 0 0 1 -1.51,-0.46 10,10 0 0 1 1.55,0.26 c 1,0.19 2.44,0.48 4.23,0.78 a 109.23,109.23 0 0 0 14.06,1.5 c 2.77,0.09 5.4,0 7.78,-0.12 a 49.27,49.27 0 0 0 6.29,-0.87 23.22,23.22 0 0 0 2.37,-0.56 17.89,17.89 0 0 0 1.75,-0.5 10.46,10.46 0 0 1 1.52,-0.5 z"
       style="fill:#263238"
       id="path363"
       inkscape:connector-curvature="0" />
    <path
       d="m 162.21,139 c 0,0.06 -0.8,0.34 -2.17,1.07 a 24.84,24.84 0 0 0 -5.33,3.78 26.64,26.64 0 0 0 -3,3.37 25.18,25.18 0 0 0 -2.62,4.46 22.45,22.45 0 0 0 -1.69,5.44 28.63,28.63 0 0 0 -0.36,6.12 57.09,57.09 0 0 0 2.14,11.71 c 1,3.55 1.93,6.73 2.59,9.44 a 60,60 0 0 1 1.27,6.49 c 0.08,0.78 0.12,1.38 0.15,1.79 a 2.75,2.75 0 0 1 0,0.63 3.52,3.52 0 0 1 -0.12,-0.62 c -0.07,-0.46 -0.15,-1 -0.26,-1.77 -0.28,-1.53 -0.67,-3.75 -1.41,-6.43 -0.74,-2.68 -1.7,-5.85 -2.7,-9.4 a 54.69,54.69 0 0 1 -2.2,-11.82 29,29 0 0 1 0.38,-6.23 22.39,22.39 0 0 1 1.76,-5.55 25,25 0 0 1 2.7,-4.52 26.51,26.51 0 0 1 3.11,-3.38 23.52,23.52 0 0 1 5.49,-3.69 14.48,14.48 0 0 1 1.66,-0.7 2.51,2.51 0 0 1 0.61,-0.19 z"
       style="fill:#263238"
       id="path365"
       inkscape:connector-curvature="0" />
    <path
       d="M 176.3,183.71 A 7.3,7.3 0 0 1 175,183 c -0.4,-0.26 -0.9,-0.57 -1.49,-0.9 -0.59,-0.33 -1.24,-0.75 -2,-1.13 a 52.79,52.79 0 0 0 -5.4,-2.54 52.9,52.9 0 0 0 -14.11,-3.57 55.8,55.8 0 0 0 -6,-0.3 c -0.85,0 -1.62,0 -2.29,0.05 -0.67,0.05 -1.26,0.06 -1.74,0.1 a 7.22,7.22 0 0 1 -1.48,0 8.8,8.8 0 0 1 1.46,-0.25 c 0.48,-0.07 1.06,-0.15 1.74,-0.19 0.68,-0.04 1.45,-0.13 2.31,-0.13 a 45.91,45.91 0 0 1 6,0.2 49.25,49.25 0 0 1 14.31,3.66 46.18,46.18 0 0 1 5.4,2.66 c 0.76,0.4 1.4,0.84 2,1.2 0.6,0.36 1.05,0.69 1.44,1 a 9.57,9.57 0 0 1 1.15,0.85 z"
       style="fill:#263238"
       id="path367"
       inkscape:connector-curvature="0" />
    <g
       style="opacity:0.3"
       id="g371">
      <path
         d="m 142.38,174.49 c 8.79,5.08 19.43,7.07 29.56,6.45 -16.24,-7.42 -19.93,-6.58 -29.56,-6.45"
         id="path369"
         inkscape:connector-curvature="0" />
    </g>
    <path
       d="m 193.55,214.65 a 4.13,4.13 0 0 1 -0.7,-0.12 l -2,-0.44 c -0.86,-0.2 -1.92,-0.44 -3.16,-0.68 -1.24,-0.24 -2.63,-0.56 -4.19,-0.81 -3.11,-0.58 -6.84,-1.14 -11,-1.63 -4.16,-0.49 -8.75,-0.8 -13.57,-0.94 -4.82,-0.14 -9.43,0 -13.61,0.22 -4.18,0.22 -7.92,0.61 -11.06,1 -1.58,0.17 -3,0.41 -4.23,0.59 -1.23,0.18 -2.32,0.35 -3.19,0.51 l -2,0.33 a 3.42,3.42 0 0 1 -0.71,0.08 3.68,3.68 0 0 1 0.69,-0.19 l 2,-0.42 c 0.86,-0.19 1.93,-0.4 3.17,-0.6 1.24,-0.2 2.65,-0.47 4.23,-0.67 3.14,-0.46 6.9,-0.86 11.08,-1.14 4.18,-0.28 8.81,-0.38 13.65,-0.26 4.84,0.12 9.44,0.51 13.61,1 4.17,0.49 7.9,1.11 11,1.74 1.56,0.28 3,0.62 4.19,0.89 1.19,0.27 2.28,0.53 3.14,0.77 l 2,0.53 a 3.19,3.19 0 0 1 0.66,0.24 z"
       style="fill:#263238"
       id="path373"
       inkscape:connector-curvature="0" />
    <path
       d="m 218.15,260.12 c -0.05,0 0,-0.59 0,-1.66 a 21.91,21.91 0 0 0 -0.48,-4.47 36.47,36.47 0 0 0 -2,-6.37 c -0.47,-1.17 -1,-2.38 -1.57,-3.64 -0.57,-1.26 -1,-2.63 -1.5,-4 -1.8,-5.58 -3.11,-10.72 -4.15,-14.41 -0.49,-1.78 -0.91,-3.25 -1.22,-4.37 a 9.91,9.91 0 0 1 -0.42,-1.61 1.75,1.75 0 0 1 0.18,0.39 c 0.11,0.27 0.26,0.65 0.43,1.16 0.36,1 0.83,2.5 1.39,4.33 1.12,3.67 2.49,8.79 4.28,14.35 0.47,1.38 0.93,2.73 1.47,4 0.54,1.27 1.09,2.49 1.56,3.67 a 35.55,35.55 0 0 1 2,6.48 18.89,18.89 0 0 1 0.32,4.55 10.13,10.13 0 0 1 -0.14,1.23 c -0.1,0.25 -0.13,0.38 -0.15,0.37 z"
       style="fill:#263238"
       id="path375"
       inkscape:connector-curvature="0" />
    <g
       style="opacity:0.3"
       id="g379">
      <path
         d="m 127.7,271.76 c -5.07,-13.07 -6.61,-27.66 -3.52,-41.34 z"
         id="path377"
         inkscape:connector-curvature="0" />
    </g>
    <g
       style="opacity:0.3"
       id="g383">
      <path
         d="m 193.45,255.76 c 2.38,-5 2.38,-10.42 2,-16 a 99.39,99.39 0 0 0 -3,-16.48 z"
         id="path381"
         inkscape:connector-curvature="0" />
    </g>
    <g
       style="opacity:0.3"
       id="g387">
      <path
         d="m 218.25,259.76 a 8.61,8.61 0 0 0 1.62,-5.88 19,19 0 0 0 -1.62,-6 48.85,48.85 0 0 0 -5.93,-10.43 c 0.05,4.18 2.57,7.86 4,11.78 a 31,31 0 0 1 1.78,10.6"
         id="path385"
         inkscape:connector-curvature="0" />
    </g>
    <g
       style="opacity:0.3"
       id="g391">
      <path
         d="m 186.19,294 a 54.82,54.82 0 0 1 -18.72,3.18 c -11.74,-0.32 -23.69,0.37 -35,-2.66 A 361.28,361.28 0 0 0 186.19,294 Z"
         id="path389"
         inkscape:connector-curvature="0" />
    </g>
    <g
       style="opacity:0.3"
       id="g395">
      <path
         d="m 187,284 a 36,36 0 0 1 -35.13,-17 c 0,0 10.36,8.5 19.07,12 a 106.86,106.86 0 0 0 16.06,5 z"
         id="path393"
         inkscape:connector-curvature="0" />
    </g>
  </g>
</svg>
