<?xml version="1.0" encoding="UTF-8" standalone="no"?>
<svg
   xmlns:dc="http://purl.org/dc/elements/1.1/"
   xmlns:cc="http://creativecommons.org/ns#"
   xmlns:rdf="http://www.w3.org/1999/02/22-rdf-syntax-ns#"
   xmlns:svg="http://www.w3.org/2000/svg"
   xmlns="http://www.w3.org/2000/svg"
   xmlns:sodipodi="http://sodipodi.sourceforge.net/DTD/sodipodi-0.dtd"
   xmlns:inkscape="http://www.inkscape.org/namespaces/inkscape"
   viewBox="0 0 750 500"
   version="1.1"
   id="svg4792"
   sodipodi:docname="opensource.svg"
   inkscape:version="0.92.5 (2060ec1f9f, 2020-04-08)">
  <metadata
     id="metadata4798">
    <rdf:RDF>
      <cc:Work
         rdf:about="">
        <dc:format>image/svg+xml</dc:format>
        <dc:type
           rdf:resource="http://purl.org/dc/dcmitype/StillImage" />
      </cc:Work>
    </rdf:RDF>
  </metadata>
  <defs
     id="defs4796" />
  <sodipodi:namedview
     pagecolor="#ffffff"
     bordercolor="#666666"
     borderopacity="1"
     objecttolerance="10"
     gridtolerance="10"
     guidetolerance="10"
     inkscape:pageopacity="0"
     inkscape:pageshadow="2"
     inkscape:window-width="1848"
     inkscape:window-height="1016"
     id="namedview4794"
     showgrid="false"
     inkscape:zoom="0.87885424"
     inkscape:cx="774.57265"
     inkscape:cy="250"
     inkscape:window-x="72"
     inkscape:window-y="27"
     inkscape:window-maximized="1"
     inkscape:current-layer="svg4792" />
  <g
     id="freepik--background-complete--inject-129"
     transform="matrix(0.91899929,0,0,0.91899929,92.387825,-20.723784)">
    <path
       d="m 536,204.92 c -1.7,-3.82 -2.08,-8.06 -3.2,-12.08 -0.6,-2.15 -1.61,-4.45 -3.63,-5.41 -1.34,-0.63 -2.93,-0.54 -4.35,-1 -5.11,-1.53 -6.5,-8.66 -11.34,-10.88 a 16.52,16.52 0 0 0 -4.87,-1 c -6.47,-0.76 -13.17,-3 -17.24,-8.09 -1.34,-1.64 -2.35,-3.58 -4,-4.92 -1.65,-1.34 -4.24,-1.91 -5.85,-0.54 1.37,2.73 2.71,5.46 4,8.17 1.23,2.46 2.48,5 4.53,6.8 2.05,1.8 5.14,2.79 7.63,1.64 a 5,5 0 0 1 2.57,-0.9 2.75,2.75 0 0 1 1.66,1.07 c 3.53,3.9 2.38,10.38 -1.06,14.37 -3.44,3.99 -8.5,6 -13.39,8 -1.75,0.69 -3.61,1.4 -5.47,1.07 -3.39,-0.63 -5.19,-4.32 -6.18,-7.63 -2.21,-7.32 -3.28,-15.28 -7.81,-21.45 -1.45,-1.94 -3.26,-3.72 -4.13,-6 -0.93,-2.46 -0.71,-5.33 -2.19,-7.49 -1.48,-2.16 -4.78,-3.58 -5,-6.31 -0.14,-1.91 1.45,-3.61 3.2,-4.43 1.75,-0.82 3.72,-1.09 5.52,-1.83 0.71,-0.3 1.5,-0.82 1.53,-1.58 0,-1.15 -1.58,-1.61 -2,-2.68 -0.42,-1.07 0.79,-2.32 1.31,-3.5 1.12,-2.68 -1.67,-5.38 -4.38,-6.48 -2.71,-1.1 -5.93,-1.88 -7.18,-4.51 a 15.46,15.46 0 0 1 -0.88,-3.9 c -0.63,-3.31 -3.06,-6.51 -6.39,-7.06 -3.33,-0.55 -7.08,2.44 -6.54,5.77 0.33,1.83 1.7,3.25 2.44,5 0.74,1.75 0.54,4.21 -1.21,4.75 -2.87,0.88 -5.63,-4.37 -8,-2.57 1,3.37 1.94,6.73 2.92,10.12 -3.77,1.91 -8.28,-1.56 -9.89,-5.5 -1.61,-3.94 -1.67,-8.39 -3.58,-12.16 -1.91,-3.77 -7.08,-6.61 -10.36,-3.93 -0.16,4.86 6.26,6.83 9.1,10.76 2.05,2.85 1.75,7.47 -1.28,9.27 -3.03,1.8 -7.79,-1.34 -6.64,-4.65 0.41,-1.15 1.36,-2.1 1.47,-3.33 0.11,-1.53 -1.17,-2.76 -2.35,-3.75 -1.83,-1.55 -3.66,-3.08 -5.49,-4.61 a 11.34,11.34 0 0 0 -3.91,-2.46 c -3.77,-1.1 -7.54,2 -9.54,5.32 -2,3.32 -3.11,7.36 -5.87,10.17 -4,4.1 -11.48,4.35 -15.2,0.06 -3.72,-4.29 -1.83,-12.33 3.66,-13.89 2.08,-0.57 4.7,-0.52 5.8,-2.35 1.91,-3.25 -3.56,-7.4 -1.67,-10.68 1.45,-2.52 5.27,-1.37 8.06,-2.22 2.79,-0.85 4.32,-3.63 6,-6 1.68,-2.37 4.16,-4.78 7,-4.15 -0.22,-1.67 -0.44,-3.47 0.3,-5 0.74,-1.53 2.81,-2.51 4.18,-1.53 -1.39,2.3 0.27,5.5 2.71,6.64 2.44,1.14 5.27,0.88 8,0.58 2.73,-0.3 6,-1.31 6.26,-4 0.08,-0.88 -0.25,-1.81 0.08,-2.63 1.17,-3.19 7.08,1.21 9.35,-1.36 1.31,-1.34 -0.14,-3.72 -2,-4.16 -1.86,-0.44 -3.69,0.22 -5.55,0.28 -1.86,0.06 -4.13,-0.9 -4.21,-2.76 -0.08,-1.86 2,-3.15 2.19,-5 0.35,-3.06 -4.84,-3.85 -6.67,-1.37 -1.83,2.48 -1.18,5.91 -0.63,8.94 0.55,3.03 0.85,6.61 -1.39,8.75 -1,1.44 -3.45,0.68 -4.27,-0.85 -0.82,-1.53 -0.65,-3.39 -0.79,-5.11 -0.14,-1.72 -0.9,-3.72 -2.6,-4.18 -1.17,-0.33 -2.43,0.24 -3.63,0.41 -4.76,0.57 -8.06,-5.58 -6.56,-10.11 1.5,-4.53 5.79,-7.49 10,-9.82 3.06,-1.69 6.85,-3.28 9.89,-1.55 1.42,0.79 2.4,2.15 3.8,3 2.4,1.43 5.38,0.91 8.14,1 a 19,19 0 0 1 11.89,4.62 c 1.23,1.12 2.38,3 1.42,4.32 -0.96,1.32 -4,1.72 -3.5,3.39 A 5.93,5.93 0 0 0 446.15,73 5,5 0 0 1 449,77 c 3.47,-3.53 10.14,-3 13,1.06 0.76,1.07 1.31,2.36 2.4,3.09 1.09,0.73 3,0.36 3.15,-0.93 a 2.62,2.62 0 0 0 -0.22,-1.2 c -0.66,-1.86 -1.34,-3.69 -2,-5.52 2.55,-1.37 5.55,0.77 7.27,3.06 6.4,8.56 11,3.42 20,4.81 6.1,0.93 8.78,4.84 12.22,9.57 10.55,14.54 24.49,26.45 34.08,41.65 1,1.58 1.94,3.2 2.81,4.84 -0.16,-0.41 -0.3,-0.82 -0.46,-1.23 a 168.74,168.74 0 0 0 -13.94,-28.35 c -1.17,-1.91 -2.38,-3.79 -3.61,-5.65 -0.76,-1.15 -1.55,-2.33 -2.35,-3.45 -1,-1.47 -2.07,-2.89 -3.14,-4.31 -0.85,-1.15 -1.69,-2.27 -2.57,-3.37 -0.6,-0.76 -1.23,-1.53 -1.86,-2.29 a 33.31,33.31 0 0 0 -2.13,-2.57 l -2.29,-2.65 a 9.29,9.29 0 0 0 -0.74,-0.82 c -0.8,-0.93 -1.64,-1.83 -2.49,-2.73 a 0.74,0.74 0 0 0 -0.25,-0.28 c -0.21,-0.24 -0.46,-0.49 -0.71,-0.74 -0.68,-0.76 -1.42,-1.5 -2.13,-2.24 -1.17,-1.2 -2.38,-2.4 -3.61,-3.55 -1,-1 -2.05,-2 -3.11,-2.92 -1.06,-0.92 -1.86,-1.7 -2.82,-2.52 -0.96,-0.82 -1.85,-1.61 -2.81,-2.4 -1.15,-1 -2.32,-1.94 -3.53,-2.9 v 0 c -3.31,-2.65 -6.73,-5.17 -10.23,-7.52 -0.87,-0.6 -1.72,-1.17 -2.59,-1.75 -0.87,-0.58 -1.78,-1.14 -2.65,-1.69 -0.87,-0.55 -1.78,-1.12 -2.68,-1.64 -0.9,-0.52 -1.81,-1.09 -2.71,-1.61 -0.74,-0.44 -1.45,-0.85 -2.18,-1.23 A 11.62,11.62 0 0 0 463,46.39 c -1.56,-0.88 -3.15,-1.72 -4.73,-2.52 -0.79,-0.41 -1.59,-0.82 -2.41,-1.2 -1,-0.52 -2.05,-1 -3.09,-1.47 a 1.78,1.78 0 0 0 -0.46,-0.22 c -0.93,-0.44 -1.86,-0.88 -2.82,-1.29 -1.34,-0.57 -2.67,-1.14 -4,-1.69 -1.53,-0.63 -3.06,-1.26 -4.62,-1.83 -1.72,-0.66 -3.45,-1.29 -5.19,-1.86 -1.74,-0.57 -3.53,-1.18 -5.31,-1.72 -1.78,-0.54 -3.55,-1 -5.35,-1.53 q -5.34,-1.44 -10.8,-2.55 a 1.33,1.33 0 0 1 -0.19,-0.05 c -1.39,-0.27 -2.79,-0.55 -4.18,-0.76 a 1.11,1.11 0 0 0 -0.27,-0.06 c -0.61,-0.11 -1.23,-0.22 -1.86,-0.3 -2.6,-0.44 -5.22,-0.79 -7.87,-1.09 a 7.22,7.22 0 0 0 -1,-0.11 c -0.77,-0.11 -1.53,-0.17 -2.32,-0.25 -1.75,-0.16 -3.5,-0.3 -5.28,-0.41 -1.78,-0.11 -3.69,-0.22 -5.55,-0.27 -1.86,-0.05 -3.88,-0.11 -5.82,-0.11 q -7.71,0 -15.25,0.68 c -1.2,0.08 -2.38,0.19 -3.55,0.33 -1.17,0.14 -2.46,0.27 -3.69,0.44 -1.23,0.17 -2.46,0.33 -3.66,0.52 -1.2,0.19 -2.44,0.38 -3.67,0.6 -1,0.16 -2.1,0.35 -3.14,0.57 q -3.86,0.73 -7.62,1.64 c -1.18,0.27 -2.35,0.58 -3.53,0.9 -1.18,0.32 -2.35,0.63 -3.5,1 -1.94,0.55 -3.82,1.15 -5.71,1.75 v 0 c -1.53,0.52 -3.09,1 -4.59,1.56 a 0.18,0.18 0 0 0 -0.11,0 c -1.56,0.55 -3.06,1.12 -4.59,1.72 l -0.25,0.09 c -1.39,0.54 -2.78,1.12 -4.15,1.69 -1.72,0.71 -3.42,1.48 -5.08,2.24 -1.42,0.66 -2.82,1.31 -4.18,2 -1.36,0.69 -3,1.47 -4.4,2.24 l -0.17,0.08 c -1.39,0.74 -2.79,1.5 -4.15,2.29 -1.36,0.79 -2.89,1.65 -4.25,2.56 v 0 q -2,1.18 -3.88,2.41 c -0.49,0.3 -1,0.63 -1.45,1 -1.37,0.88 -2.68,1.78 -4,2.71 -1.64,1.12 -3.22,2.29 -4.81,3.47 q -2.08,1.56 -4.1,3.17 A 172.43,172.43 0 0 0 250.87,83 c -2.32,2.57 -4.51,5.19 -6.64,7.87 -1.8,2.3 -3.55,4.62 -5.22,7 q -2.25,3.13 -4.35,6.38 2.1,-3.24 4.35,-6.38 c 0.44,-0.06 0.88,-0.11 1.31,-0.14 2.46,-0.19 5.06,-0.11 7.27,-1.18 2,-1 3.5,-2.84 5.36,-4.15 4.76,-3.39 12.54,-4 13.83,-9.7 0.44,-1.91 -0.08,-4 0.63,-5.82 1.34,-3.42 5.9,-3.91 9.56,-3.86 1.56,0 3.39,0.22 4.1,1.59 a 3.91,3.91 0 0 1 -0.16,3.17 29.68,29.68 0 0 1 -12.55,15.41 c -4.75,2.9 -11,5.14 -12.27,10.55 0.66,1.83 4,1.7 4.27,3.61 0.19,1.53 -1.78,2.32 -2.49,3.69 -1,2 1.34,4.43 3.61,4.32 2.27,-0.11 4.15,-1.75 5.82,-3.28 5,-4.62 10.19,-9.59 12,-16.15 0.76,-2.71 1,-5.88 3.22,-7.68 2.6,-2.14 7.24,-0.66 8.12,2.59 2.16,-1.2 5.52,-2.1 6.64,0.14 a 11.54,11.54 0 0 1 0.46,2.57 c 0.71,3.5 5.5,5.08 6,8.61 0.57,4.07 -4.65,6.17 -8.72,6.8 -3.69,0.58 -7.38,1.15 -11.07,1.75 a 10.24,10.24 0 0 0 -4.59,1.48 c -1.31,1 -2.13,2.84 -1.37,4.29 a 11.16,11.16 0 0 0 1.92,2 c 3.06,3.06 0.54,9.37 -3.77,9.51 -1.48,0 -2.93,-0.49 -4.4,-0.55 -4.38,-0.19 -7.85,3.66 -9.93,7.52 -2.08,3.86 -3.63,8.25 -7.13,10.87 -5.63,4.24 -15.33,3.26 -18.06,9.76 -1.1,2.62 -0.52,5.58 -0.09,8.39 0.43,2.81 0.63,5.9 -1,8.23 -1.63,2.33 -5.82,2.79 -7,0.22 a 6.26,6.26 0 0 1 -0.16,-3.64 q 1,-6.06 1.91,-12.13 c 0.46,-3 0.87,-6.37 -0.9,-8.83 -2.49,-3.44 -8.07,-3.12 -11.29,-0.36 -3.22,2.76 -4.54,7.08 -5.44,11.21 -0.66,3.06 -1.42,7.38 -3.12,10.88 v 0 c -0.57,3.39 -1,6.83 -1.39,10.3 -0.39,3.47 -0.6,7.08 -0.74,10.69 a 16.36,16.36 0 0 0 1.4,-1.32 c 1.72,-1.77 5.19,-9.29 8.3,-5.6 a 2.79,2.79 0 0 1 0.06,3.42 c -1,1.23 -2.87,1.5 -3.61,2.84 -0.9,1.59 0.36,3.55 1.83,4.59 1.47,1.04 3.28,1.72 4.32,3.23 2,2.87 0.08,7.21 2,10.14 1.67,2.51 5.22,2.67 8.26,3 l 1,0.17 c 0.84,-6 3.66,-10.91 11.86,-12.77 11.31,-2.57 26.18,6.81 32.55,15.34 7.1,9.53 10.47,23 21.34,27.82 7.79,3.41 18.86,2.18 22.66,9.81 3.39,6.83 -2.51,14.51 -3.42,22.08 -0.57,5 1.07,10 1.45,15 0.38,5 -1.12,10.88 -5.68,13 -2.54,1.15 -5.74,1 -7.79,2.93 -3.64,3.44 -0.66,10.55 -4.29,14 -1.29,1.2 -3.06,1.64 -4.62,2.43 -8.17,4.13 -8,16.15 -4.16,24.49 0.14,0.3 0.28,0.57 0.41,0.87 a 172.59,172.59 0 0 0 88.58,24.46 171.81,171.81 0 0 0 81,-20.17 v 0 a 172.28,172.28 0 0 0 49.85,-40 c 2.9,-3.34 5.63,-6.81 8.26,-10.36 1.34,-1.83 2.65,-3.66 3.88,-5.55 A 171.74,171.74 0 0 0 551,221 c 0.52,-3.88 0.93,-7.82 1.2,-11.78 a 10,10 0 0 1 -6.94,3.09 c -4.17,-0.09 -7.58,-3.56 -9.26,-7.39 z"
       style="fill:#f5f5f5"
       id="path4471"
       inkscape:connector-curvature="0" />
    <path
       d="m 338.63,70.31 c -3.42,2 -5.24,5.91 -7.88,8.9 -2.64,2.99 -7.37,5.11 -10.49,2.63 a 7.23,7.23 0 0 1 -2.34,-5.09 13,13 0 0 1 1.86,-7.91 c 1.49,-2.42 3.76,-4.33 5,-6.88 1.24,-2.55 1,-6.28 -1.58,-7.48 -1.4,-0.65 -3.15,-0.39 -4.39,-1.31 -2.23,-1.64 -0.64,-5.51 1.95,-6.49 2.59,-0.98 5.46,-0.22 8.22,0 10,0.64 17.37,-5.91 24.89,-11.36 C 359.75,31 372.21,26 379,30.36 c 2.7,1.73 3.76,6.17 1.21,8.12 -1.14,0.87 -2.71,1.06 -3.77,2 -1.27,1.16 -1.45,3.06 -2.18,4.62 -1.9,4 -7.36,5.52 -9.12,9.64 -1.06,2.47 -0.58,5.55 -2.21,7.69 -1.3,1.7 -3.54,2.3 -5.62,2.79 l -13.05,3.11 a 19.63,19.63 0 0 0 -5.63,1.98 z"
       style="fill:#ebebeb"
       id="path4473"
       inkscape:connector-curvature="0" />
    <path
       d="m 455.34,282.89 c -4.33,6.52 -5.12,14.68 -6.32,22.42 -1.2,7.74 -3.27,16 -9.22,21.06 -5.95,5.06 -16.87,4.8 -20.14,-2.32 -1.78,-3.86 -0.86,-8.42 -1.83,-12.56 -1.26,-5.39 -5.56,-9.55 -7.59,-14.7 -1.74,-4.4 -1.75,-9.25 -1.89,-14 -0.77,-25.81 -7.07,-52.75 -24.64,-71.66 -2.15,-2.33 -4.61,-4.59 -7.67,-5.41 A 9.81,9.81 0 0 0 366,209.23 c -1.41,1.87 -2.14,4.25 -3.87,5.83 -3.75,3.43 -10.31,1 -12.82,-3.45 -2.51,-4.45 -2.16,-9.85 -1.74,-14.91 l 1.56,-18.85 c 0.27,-3.29 0.64,-6.82 2.8,-9.31 3.07,-3.55 8.57,-3.71 12.32,-6.53 4.92,-3.68 5.58,-10.71 8.68,-16 3.1,-5.29 12.81,-7.55 14.25,-1.57 10.27,-22 33,10.67 46.46,8.22 3.92,-0.72 7.75,-2.6 11.7,-2 7,1 10.56,8.65 12.94,15.28 l 11.8,33 c 1.5,4.19 3.44,8.85 7.58,10.45 3.18,1.24 6.88,0.3 10.08,1.46 8.47,3.08 5.72,16.41 -1.1,22.31 -6.82,5.9 -16.38,9.62 -19.62,18 -2.44,6.34 -0.5,13.76 -3.12,20 -1.9,4.44 -5.9,7.68 -8.56,11.73 z"
       style="fill:#ebebeb"
       id="path4475"
       inkscape:connector-curvature="0" />
    <path
       d="m 487.49,290.06 c -2.78,0.39 -6.07,-1 -8.18,0.86 -1.24,1.08 -1.51,2.85 -2,4.42 a 9.44,9.44 0 0 1 -3.95,5.39 5.92,5.92 0 0 1 -6.43,-0.12 4.36,4.36 0 0 1 -0.89,-6 28.6,28.6 0 0 1 2.41,-2 c 3.69,-3.5 1.16,-10 4,-14.12 1.66,-2.45 4.26,-4.93 6.08,-7.41 1.4,-1.91 1.91,-3.42 4.49,-3.93 11.22,-2.15 16.31,21.25 4.47,22.91 z"
       style="fill:#ebebeb"
       id="path4477"
       inkscape:connector-curvature="0" />
    <g
       style="opacity:0.6"
       id="g4481">
      <path
         d="m 283.74,341.22 c 1.45,1 2.92,1.94 4.41,2.87 1,0.66 2.08,1.29 3.14,1.91 -1.06,-0.62 -2.1,-1.25 -3.14,-1.91 -1.49,-0.93 -2.96,-1.88 -4.41,-2.87 z"
         style="fill:#263238"
         id="path4479"
         inkscape:connector-curvature="0" />
    </g>
    <g
       style="opacity:0.6"
       id="g4485">
      <path
         d="m 207.36,190.6 v 0 0 0 c 0,0.33 -0.05,0.63 -0.05,1 0,1 0,2.07 -0.06,3.12 0,-1.05 0,-2.09 0.06,-3.12 0,-0.37 0.03,-0.67 0.05,-1 z"
         style="fill:#263238"
         id="path4483"
         inkscape:connector-curvature="0" />
    </g>
    <path
       d="m 229.75,243.19 c -0.55,-4.95 1.09,-9.9 1.17,-14.9 0.06,-3.44 -0.19,-7.08 -0.24,-10.55 a 46.31,46.31 0 0 1 -8.78,-1.23 2.56,2.56 0 0 1 -1.61,-0.82 3.25,3.25 0 0 1 -0.36,-1.83 c -0.21,-3.88 -4,-6.45 -7.32,-8.39 a 29.27,29.27 0 0 0 -5.33,-2.62 c 0,0.41 0,0.79 0,1.2 a 172.26,172.26 0 0 0 11,54.8 167.46,167.46 0 0 0 10.55,22.63 c 1.7,3.14 3.56,6.23 5.5,9.26 2.4,3.75 4.92,7.41 7.62,10.93 2.52,3.39 5.2,6.7 8,9.87 a 170.49,170.49 0 0 0 12.22,12.57 q 5.7,5.34 11.89,10.11 c -9.43,-25.3 -18.32,-51.13 -34.44,-72.67 -4.22,-5.63 -9.08,-11.37 -9.87,-18.36 z"
       style="fill:#ebebeb"
       id="path4487"
       inkscape:connector-curvature="0" />
    <path
       d="m 231,211.05 -1,-0.17 c -3,-0.33 -6.59,-0.49 -8.26,-3 -1.94,-2.93 0,-7.27 -2,-10.14 -1,-1.51 -2.84,-2.16 -4.32,-3.23 -1.48,-1.07 -2.73,-3 -1.83,-4.59 0.74,-1.34 2.65,-1.61 3.61,-2.84 a 2.79,2.79 0 0 0 -0.06,-3.42 c -3.11,-3.69 -6.58,3.83 -8.3,5.6 a 16.36,16.36 0 0 1 -1.4,1.32 v 0 c 0,0.33 -0.05,0.63 -0.05,1 0,1 0,2.07 -0.06,3.12 -0.06,1.05 -0.05,2.07 -0.05,3.11 0,0.85 0,0.81 0,1.65 0,0.84 0.05,2.57 0.08,3.41 a 29.27,29.27 0 0 1 5.33,2.62 c 3.36,1.94 7.11,4.51 7.32,8.39 a 3.25,3.25 0 0 0 0.36,1.83 2.61,2.61 0 0 0 1.61,0.82 46.31,46.31 0 0 0 8.78,1.23"
       style="fill:#ebebeb"
       id="path4489"
       inkscape:connector-curvature="0" />
    <path
       d="m 230.68,217.74 c 0,3.47 0.3,7.11 0.24,10.55 -0.08,5 -1.72,10 -1.17,14.9 0.79,7 5.65,12.73 9.89,18.36 16.12,21.54 25,47.37 34.44,72.67 v 0 c 1.75,1.4 3.53,2.71 5.33,4 q 2.13,1.55 4.31,3 2.18,1.45 4.41,2.87 c 1,0.66 2.08,1.29 3.14,1.91 -0.13,-0.3 -0.27,-0.57 -0.41,-0.87 -3.79,-8.34 -4,-20.36 4.16,-24.49 1.56,-0.79 3.33,-1.23 4.62,-2.43 3.63,-3.44 0.65,-10.55 4.29,-14 2.05,-1.92 5.25,-1.78 7.79,-2.93 4.56,-2.1 6,-8 5.68,-13 -0.32,-5 -2,-10 -1.45,-15 0.91,-7.57 6.81,-15.25 3.42,-22.08 -3.8,-7.63 -14.87,-6.4 -22.66,-9.81 -10.87,-4.78 -14.24,-18.29 -21.34,-27.82 -6.37,-8.53 -21.24,-17.91 -32.55,-15.34 -8.2,1.86 -11,6.75 -11.86,12.77"
       style="fill:#ebebeb"
       id="path4491"
       inkscape:connector-curvature="0" />
    <path
       d="m 218.05,147.5 c 3.22,-2.76 8.8,-3.08 11.29,0.36 1.77,2.46 1.36,5.82 0.9,8.83 q -0.94,6.06 -1.91,12.13 a 6.26,6.26 0 0 0 0.16,3.64 c 1.2,2.57 5.41,2.07 7,-0.22 1.59,-2.29 1.45,-5.44 1,-8.23 -0.45,-2.79 -1,-5.77 0.09,-8.39 2.73,-6.5 12.43,-5.52 18.06,-9.76 3.5,-2.62 5.06,-7 7.13,-10.87 2.07,-3.87 5.55,-7.71 9.93,-7.52 1.47,0.06 2.92,0.6 4.4,0.55 4.31,-0.14 6.83,-6.45 3.77,-9.51 a 11.16,11.16 0 0 1 -1.92,-2 c -0.76,-1.45 0.06,-3.31 1.37,-4.29 a 10.24,10.24 0 0 1 4.59,-1.48 c 3.69,-0.6 7.38,-1.17 11.07,-1.75 4.07,-0.63 9.29,-2.73 8.72,-6.8 -0.49,-3.53 -5.28,-5.11 -6,-8.61 a 11.54,11.54 0 0 0 -0.46,-2.57 c -1.12,-2.24 -4.48,-1.34 -6.64,-0.14 -0.88,-3.25 -5.52,-4.73 -8.12,-2.59 -2.19,1.8 -2.46,5 -3.22,7.68 -1.81,6.56 -7,11.53 -12,16.15 -1.67,1.53 -3.55,3.17 -5.82,3.28 -2.27,0.11 -4.65,-2.32 -3.61,-4.32 0.71,-1.37 2.68,-2.16 2.49,-3.69 -0.28,-1.91 -3.61,-1.78 -4.27,-3.61 1.31,-5.41 7.52,-7.65 12.27,-10.55 a 29.68,29.68 0 0 0 12.55,-15.41 3.91,3.91 0 0 0 0.16,-3.17 c -0.71,-1.37 -2.54,-1.59 -4.1,-1.59 -3.66,0 -8.22,0.44 -9.56,3.86 -0.71,1.83 -0.19,3.91 -0.63,5.82 -1.29,5.68 -9.07,6.31 -13.83,9.7 -1.86,1.31 -3.31,3.14 -5.36,4.15 -2.21,1.07 -4.81,1 -7.27,1.18 -0.43,0 -0.87,0.08 -1.31,0.14 q -2.25,3.13 -4.35,6.38 c -1.4,2.17 -2.74,4.37 -4,6.6 a 171.14,171.14 0 0 0 -15,33.4 c -1.34,4.08 -2.52,8.24 -3.54,12.45 -1.02,4.21 -1.89,8.5 -2.61,12.83 1.7,-3.5 2.46,-7.82 3.12,-10.88 0.92,-4.1 2.26,-8.42 5.46,-11.18 z"
       style="fill:#ebebeb"
       id="path4493"
       inkscape:connector-curvature="0" />
    <path
       d="m 552.19,209.16 c 0,0 -4.35,3.17 -6.94,3.12 -4.16,-0.06 -7.57,-3.53 -9.24,-7.36 -1.67,-3.83 -2.08,-8.06 -3.2,-12.08 -0.6,-2.15 -1.61,-4.45 -3.63,-5.41 -1.34,-0.63 -2.93,-0.54 -4.35,-1 -5.11,-1.53 -6.5,-8.66 -11.34,-10.88 a 16.52,16.52 0 0 0 -4.87,-1 c -6.47,-0.76 -13.17,-3 -17.24,-8.09 -1.34,-1.64 -2.35,-3.58 -4,-4.92 -1.65,-1.34 -4.24,-1.91 -5.85,-0.54 1.37,2.73 2.71,5.46 4,8.17 1.23,2.46 2.48,5 4.53,6.8 2.05,1.8 5.14,2.79 7.63,1.64 a 5,5 0 0 1 2.57,-0.9 2.75,2.75 0 0 1 1.66,1.07 c 3.53,3.9 2.38,10.38 -1.06,14.37 -3.44,3.99 -8.5,6 -13.39,8 -1.75,0.69 -3.61,1.4 -5.47,1.07 -3.39,-0.63 -5.19,-4.32 -6.18,-7.63 -2.21,-7.32 -3.28,-15.28 -7.81,-21.45 -1.45,-1.94 -3.26,-3.72 -4.13,-6 -0.93,-2.46 -0.71,-5.33 -2.19,-7.49 -1.48,-2.16 -4.78,-3.58 -5,-6.31 -0.14,-1.91 1.45,-3.61 3.2,-4.43 1.75,-0.82 3.72,-1.09 5.52,-1.83 0.71,-0.3 1.5,-0.82 1.53,-1.58 0,-1.15 -1.58,-1.61 -2,-2.68 -0.42,-1.07 0.79,-2.32 1.31,-3.5 1.12,-2.68 -1.67,-5.38 -4.38,-6.48 -2.71,-1.1 -5.93,-1.88 -7.18,-4.51 a 15.46,15.46 0 0 1 -0.88,-3.9 c -0.63,-3.31 -3.06,-6.51 -6.39,-7.06 -3.33,-0.55 -7.08,2.44 -6.54,5.77 0.33,1.83 1.7,3.25 2.44,5 0.74,1.75 0.54,4.21 -1.21,4.75 -2.87,0.88 -5.63,-4.37 -8,-2.57 1,3.37 1.94,6.73 2.92,10.12 -3.77,1.91 -8.28,-1.56 -9.89,-5.5 -1.61,-3.94 -1.67,-8.39 -3.58,-12.16 -1.91,-3.77 -7.08,-6.61 -10.36,-3.93 -0.16,4.86 6.26,6.83 9.1,10.76 2.05,2.85 1.75,7.47 -1.28,9.27 -3.03,1.8 -7.79,-1.34 -6.64,-4.65 0.41,-1.15 1.36,-2.1 1.47,-3.33 0.11,-1.53 -1.17,-2.76 -2.35,-3.75 -1.83,-1.55 -3.66,-3.08 -5.49,-4.61 a 11.34,11.34 0 0 0 -3.91,-2.46 c -3.77,-1.1 -7.54,2 -9.54,5.32 -2,3.32 -3.11,7.36 -5.87,10.17 -4,4.1 -11.48,4.35 -15.2,0.06 -3.72,-4.29 -1.83,-12.33 3.66,-13.89 2.08,-0.57 4.7,-0.52 5.8,-2.35 1.91,-3.25 -3.56,-7.4 -1.67,-10.68 1.45,-2.52 5.27,-1.37 8.06,-2.22 2.79,-0.85 4.32,-3.63 6,-6 1.68,-2.37 4.16,-4.78 7,-4.15 -0.22,-1.67 -0.44,-3.47 0.3,-5 0.74,-1.53 2.81,-2.51 4.18,-1.53 -1.39,2.3 0.27,5.5 2.71,6.64 2.44,1.14 5.27,0.88 8,0.58 2.73,-0.3 6,-1.31 6.26,-4 0.08,-0.88 -0.25,-1.81 0.08,-2.63 1.17,-3.19 7.08,1.21 9.35,-1.36 1.31,-1.34 -0.14,-3.72 -2,-4.16 -1.86,-0.44 -3.69,0.22 -5.55,0.28 -1.86,0.06 -4.13,-0.9 -4.21,-2.76 -0.08,-1.86 2,-3.15 2.19,-5 0.35,-3.06 -4.84,-3.85 -6.67,-1.37 -1.83,2.48 -1.18,5.91 -0.63,8.94 0.55,3.03 0.85,6.61 -1.39,8.75 -1,1.44 -3.45,0.68 -4.27,-0.85 -0.82,-1.53 -0.65,-3.39 -0.79,-5.11 -0.14,-1.72 -0.9,-3.72 -2.6,-4.18 -1.17,-0.33 -2.43,0.24 -3.63,0.41 -4.76,0.57 -8.06,-5.58 -6.56,-10.11 1.5,-4.53 5.79,-7.49 10,-9.82 3.06,-1.69 6.85,-3.28 9.89,-1.55 1.42,0.79 2.4,2.15 3.8,3 2.4,1.43 5.38,0.91 8.14,1 a 19,19 0 0 1 11.89,4.62 c 1.23,1.12 2.38,3 1.42,4.32 -0.96,1.32 -4,1.72 -3.5,3.39 a 5.93,5.93 0 0 0 7.4,-4.84 5,5 0 0 1 2.85,4 c 3.47,-3.53 10.14,-3 13,1.06 0.76,1.07 1.31,2.36 2.4,3.09 1.09,0.73 3,0.36 3.15,-0.93 a 2.62,2.62 0 0 0 -0.22,-1.2 c -0.66,-1.86 -1.34,-3.69 -2,-5.52 2.55,-1.37 5.55,0.77 7.27,3.06 6.4,8.56 11,3.42 20,4.81 6.1,0.93 8.78,4.84 12.22,9.57 10.55,14.54 24.49,26.45 34.08,41.65 1,1.58 1.94,3.2 2.81,4.84 v 0 0 c 0.82,2.19 1.6,4.39 2.32,6.61 0.72,2.22 1.42,4.45 2.06,6.7 a 151.24,151.24 0 0 1 4.14,16.95 c 0,0 1.2,9.77 1.49,13 0.22,2.44 0.43,4.87 0.57,7.33 0.14,2.46 0.21,4.92 0.22,7.4 z"
       style="fill:#ebebeb"
       id="path4495"
       inkscape:connector-curvature="0" />
    <path
       d="m 128.59,167.62 c 0.67,-4.83 -6.15,-8.81 -11.28,-9.22 -2.44,-0.2 -5,0.18 -7.29,-0.63 -5,-1.75 -7,-8.23 -11.91,-10.29 -3.66,-1.55 -7.87,-0.17 -11.42,1.61 -3.55,1.78 -7,4 -11,4.29 -3.45,0.22 -7.19,-1.06 -10.21,0.62 -2.24,1.26 -3.42,3.85 -5.49,5.38 -2.07,1.53 -4.67,1.81 -7.19,1.94 -2.52,0.13 -5.11,0.17 -7.4,1.21 -2.29,1.04 -4.18,3.47 -3.71,5.94 z"
       style="fill:#f5f5f5"
       id="path4497"
       inkscape:connector-curvature="0" />
    <path
       d="m 230.92,70.73 c 0.66,-4.83 -6.16,-8.81 -11.28,-9.22 -2.44,-0.2 -5,0.18 -7.3,-0.63 -5,-1.75 -7,-8.23 -11.91,-10.29 -3.66,-1.54 -7.87,-0.17 -11.41,1.61 -3.54,1.78 -7.06,4 -11,4.29 -3.44,0.22 -7.19,-1.06 -10.2,0.62 -2.25,1.26 -3.43,3.85 -5.5,5.38 -2.07,1.53 -4.67,1.81 -7.18,1.94 -2.51,0.13 -5.12,0.17 -7.41,1.21 -2.29,1.04 -4.18,3.47 -3.7,5.94 z"
       style="fill:#ebebeb"
       id="path4499"
       inkscape:connector-curvature="0" />
    <path
       d="m 713.19,145.36 c 1.07,-7.76 -9.88,-14.15 -18.12,-14.81 -3.92,-0.32 -8,0.28 -11.72,-1 -8.06,-2.8 -11.28,-13.21 -19.14,-16.53 -5.88,-2.48 -12.65,-0.27 -18.35,2.59 -5.7,2.86 -11.33,6.48 -17.69,6.89 -5.54,0.35 -11.56,-1.7 -16.4,1 -3.61,2 -5.5,6.17 -8.83,8.63 -3.33,2.46 -7.51,2.91 -11.55,3.13 -4.04,0.22 -8.22,0.26 -11.9,1.94 -3.68,1.68 -6.72,5.58 -6,9.55 z"
       style="fill:#f5f5f5"
       id="path4501"
       inkscape:connector-curvature="0" />
    <path
       d="m 609.71,70.51 a 13.22,13.22 0 0 0 -2.21,-7.62 12.68,12.68 0 0 0 -5.89,-5.07 10.24,10.24 0 0 0 -12,3.42 10.25,10.25 0 0 0 -2.48,-3.74 10.4,10.4 0 0 0 -7.66,-2.82 12.62,12.62 0 0 0 -7.17,3 13.21,13.21 0 0 0 -4.49,6.54 16.09,16.09 0 0 0 0.41,10.08 22.69,22.69 0 0 0 6.57,8.49 c 4.57,3.86 10.61,8.74 10.61,8.74 0,0 6.3,-3.31 11.84,-5.54 a 22.79,22.79 0 0 0 8.9,-6 16.08,16.08 0 0 0 3.57,-9.48 z"
       style="fill:#ebebeb"
       id="path4503"
       inkscape:connector-curvature="0" />
    <path
       d="m 157.85,108.57 a 10.22,10.22 0 0 0 -4.71,-3.87 9.76,9.76 0 0 0 -5.93,-0.65 8,8 0 0 0 -5,3.71 8.08,8.08 0 0 0 -1.06,3.64 7.85,7.85 0 0 0 -9.27,0.25 9.7,9.7 0 0 0 -3.26,5 10.16,10.16 0 0 0 0,6.1 12.39,12.39 0 0 0 4.63,6.21 17.44,17.44 0 0 0 7.85,2.52 c 4.56,0.47 10.51,0.94 10.51,0.94 0,0 2.56,-4.83 5.1,-8.65 a 17.45,17.45 0 0 0 3,-7.66 12.36,12.36 0 0 0 -1.86,-7.54 z"
       style="fill:#ebebeb"
       id="path4505"
       inkscape:connector-curvature="0" />
  </g>
  <g
     id="freepik--Table--inject-129"
     transform="matrix(0.91899929,0,0,0.91899929,92.387825,-20.723784)">
    <path
       d="m 719.16,474.61 c 0,0.14 -154.1,0.26 -344.14,0.26 -190.04,0 -344.18,-0.12 -344.18,-0.26 0,-0.14 154.07,-0.26 344.18,-0.26 190.11,0 344.14,0.11 344.14,0.26 z"
       style="fill:#263238"
       id="path4508"
       inkscape:connector-curvature="0" />
  </g>
  <g
     id="freepik--Characters--inject-129"
     transform="matrix(0.91899929,0,0,0.91899929,92.387825,-20.723784)">
    <polygon
       points="355.04,427.56 363.46,474.61 229.85,474.49 235.46,433.26 "
       style="fill:#263238"
       id="polygon4511" />
    <path
       d="m 341.9,303.49 35.87,39.81 c 5.92,6.57 10.2,12.55 18.71,14.95 6,1.68 18.52,2.38 21.69,-1.54 4.35,-5.37 7,-14.66 1,-26.34 -4,-7.61 -38.78,-38.69 -38.78,-38.69 l -38.49,11.81"
       style="fill:#c27461"
       id="path4513"
       inkscape:connector-curvature="0" />
    <path
       d="m 353.71,310.14 c 0.21,2 9.59,21.54 9.59,21.54 l 30.8,-20.09 c 0,0 -19.83,-47.1 -34.31,-50.27 z"
       style="fill:#ff725e"
       id="path4515"
       inkscape:connector-curvature="0" />
    <path
       d="m 406.45,255.24 0.44,-15 -1,-19.06 -3,-15.86 c 0,0 -0.8,-1.55 -2.8,-0.38 -2,1.17 -0.27,9.83 -0.27,9.83 l 0.32,6.51 c 0,0 -1.18,5 -1.55,4.59 -0.37,-0.41 -1.63,-9.2 -1.63,-9.2 l -3.64,-18.86 a 2.5,2.5 0 0 0 -3.18,-1.3 c -1.29,0.4 -2.13,2.28 -2,5.07 0.13,2.79 1.37,7.51 1.5,9.1 0.13,1.59 1.18,10.76 1.18,10.76 l -6.37,-21.09 c 0,0 -1.18,-6.87 -4,-5.88 -2.82,0.99 -0.95,5.91 -0.82,8 0.13,2.09 4.24,16.53 3.89,20.53 -0.35,4 -1,2 -1,2 l -3,-11.81 c -1.3,-5.21 -3.27,-8.23 -5.53,-8.61 -2.26,-0.38 0.77,11.69 0.77,11.69 l 3.82,16.87 -0.95,5.37 -3.76,-4.83 c 0,0 -0.11,-6.33 -4.06,-9 -3.95,-2.67 -5,0.32 -5,0.32 l 7.37,24.51 c 1.75,4 13.05,11.8 13.05,11.8 l 2,24.57 25.1,-0.5 z"
       style="fill:#c27461"
       id="path4517"
       inkscape:connector-curvature="0" />
    <path
       d="m 397.64,246.39 c -0.12,0.12 -1.31,-1.08 -3.35,-2.81 -2.04,-1.73 -5.19,-4 -9.18,-3.8 a 7.39,7.39 0 0 0 -4.54,1.65 l -0.42,0.37 -0.37,-0.49 c -1.61,-2.12 -3.33,-4 -4.36,-5.31 -1.03,-1.31 -1.61,-2.22 -1.5,-2.29 a 13.56,13.56 0 0 1 2,1.87 70.46,70.46 0 0 1 4.78,5.19 l -0.79,-0.12 a 8.15,8.15 0 0 1 5.18,-2 11.36,11.36 0 0 1 5.86,1.41 18.3,18.3 0 0 1 3.89,2.91 c 1.93,1.95 2.9,3.33 2.8,3.42 z"
       style="fill:#7d4336"
       id="path4519"
       inkscape:connector-curvature="0" />
    <polygon
       points="407.07,257.67 422.5,340.8 391.13,340.8 385.81,264.33 "
       style="fill:#c27461"
       id="polygon4521" />
    <path
       d="m 345.08,166.09 a 8.6,8.6 0 0 0 4.6,-16.48 8.95,8.95 0 0 0 -6.91,-15.51 10.71,10.71 0 0 0 -15.61,-9.69 12,12 0 0 0 -14.79,-1.16 8.57,8.57 0 0 0 -8.37,14.07"
       style="fill:#263238"
       id="path4523"
       inkscape:connector-curvature="0" />
    <path
       d="m 346.16,214 c 0.67,-9.44 0.48,-29 0.1,-46.67 A 36.5,36.5 0 0 0 311.92,131.7 l -1.88,-0.11 c -20.41,0 -31.82,17.32 -31.27,37.72 L 275.63,247.88 288,259 a 23.25,23.25 0 0 0 36.12,-6.32 v 0 l 0.95,-17.27 c 0,0 19.7,-1.85 21.09,-21.41 z"
       style="fill:#c27461"
       id="path4525"
       inkscape:connector-curvature="0" />
    <path
       d="m 325.2,235.43 a 47.46,47.46 0 0 1 -25.18,-9 c 0,0 5.2,14.43 24.81,13.82 z"
       style="fill:#7d4336"
       id="path4527"
       inkscape:connector-curvature="0" />
    <path
       d="m 337.62,183.86 a 2.8,2.8 0 0 1 -2.86,2.66 2.68,2.68 0 0 1 -2.73,-2.69 2.8,2.8 0 0 1 2.86,-2.66 2.68,2.68 0 0 1 2.73,2.69 z"
       style="fill:#263238"
       id="path4529"
       inkscape:connector-curvature="0" />
    <path
       d="m 341.49,176.69 c -0.37,0.34 -2.39,-1.35 -5.39,-1.52 -3,-0.17 -5.3,1.2 -5.6,0.82 -0.15,-0.17 0.24,-0.81 1.24,-1.45 a 7.68,7.68 0 0 1 4.51,-1.11 7.45,7.45 0 0 1 4.27,1.66 c 0.88,0.77 1.15,1.44 0.97,1.6 z"
       style="fill:#263238"
       id="path4531"
       inkscape:connector-curvature="0" />
    <path
       d="m 310.05,183.86 a 2.8,2.8 0 0 1 -2.86,2.66 2.67,2.67 0 0 1 -2.73,-2.69 2.79,2.79 0 0 1 2.85,-2.66 2.68,2.68 0 0 1 2.74,2.69 z"
       style="fill:#263238"
       id="path4533"
       inkscape:connector-curvature="0" />
    <path
       d="m 311.93,175.51 c -0.37,0.34 -2.39,-1.35 -5.4,-1.52 -3.01,-0.17 -5.29,1.2 -5.59,0.82 -0.16,-0.18 0.23,-0.81 1.24,-1.45 a 7.63,7.63 0 0 1 4.51,-1.11 7.32,7.32 0 0 1 4.26,1.66 c 0.88,0.77 1.16,1.44 0.98,1.6 z"
       style="fill:#263238"
       id="path4535"
       inkscape:connector-curvature="0" />
    <path
       d="m 321.52,198.43 c 0,-0.17 1.88,-0.39 4.93,-0.59 0.77,0 1.51,-0.15 1.67,-0.66 a 4,4 0 0 0 -0.38,-2.31 q -0.92,-2.85 -1.93,-6 c -2.66,-8.51 -4.53,-15.48 -4.19,-15.58 0.34,-0.1 2.78,6.7 5.44,15.2 q 1,3.15 1.82,6 a 4.42,4.42 0 0 1 0.22,3 1.91,1.91 0 0 1 -1.32,1.05 5.24,5.24 0 0 1 -1.32,0.1 c -3.05,0.06 -4.94,-0.04 -4.94,-0.21 z"
       style="fill:#263238"
       id="path4537"
       inkscape:connector-curvature="0" />
    <path
       d="m 312.55,200 c 0.49,0 0.31,3.27 3,5.74 2.69,2.47 6.15,2.33 6.15,2.79 0,0.2 -0.81,0.58 -2.28,0.54 a 8.14,8.14 0 0 1 -5.14,-2.14 7.07,7.07 0 0 1 -2.27,-4.8 c -0.09,-1.39 0.32,-2.13 0.54,-2.13 z"
       style="fill:#263238"
       id="path4539"
       inkscape:connector-curvature="0" />
    <path
       d="m 313.4,163.78 c -0.34,0.8 -3.32,0.23 -6.87,0.45 -3.55,0.22 -6.46,1 -6.88,0.25 -0.19,-0.36 0.35,-1.1 1.55,-1.82 a 11.94,11.94 0 0 1 10.47,-0.54 c 1.27,0.6 1.88,1.28 1.73,1.66 z"
       style="fill:#263238"
       id="path4541"
       inkscape:connector-curvature="0" />
    <path
       d="m 340.9,167.93 c -0.57,0.65 -2.6,-0.18 -5.08,-0.36 -2.48,-0.18 -4.63,0.19 -5.07,-0.56 -0.19,-0.36 0.18,-1 1.14,-1.61 a 7.35,7.35 0 0 1 8.18,0.74 c 0.84,0.75 1.08,1.47 0.83,1.79 z"
       style="fill:#263238"
       id="path4543"
       inkscape:connector-curvature="0" />
    <path
       d="m 344.91,158.29 c 0,0 -4.44,-12.54 -10.17,-15.75 -6.94,-3.88 -10.48,3.78 -17.18,1.48 -6.7,-2.3 -13.33,-6 -20.6,-1.17 -8,5.31 -4.62,9.56 -5.61,18.21 -4,35.05 -11,44.62 -11.84,27.95 -0.09,-1.83 -5,-3.57 -5.34,-11.28 -0.38,-10 -0.05,-22.09 2.59,-29 2.22,-5.84 5.85,-9.74 12.2,-13.92 10,-6.58 23.21,-6 32.11,-4.53 8.9,1.47 25.56,12.72 23.84,28.01 z"
       style="fill:#263238"
       id="path4545"
       inkscape:connector-curvature="0" />
    <path
       d="m 280.79,188.55 a 5.32,5.32 0 0 0 -5.43,-5.45 c -3.66,0.13 -7.84,2 -8.05,9.51 -0.36,13.39 13.16,11 13.19,10.61 0.03,-0.39 0.19,-9.07 0.29,-14.67 z"
       style="fill:#c27461"
       id="path4547"
       inkscape:connector-curvature="0" />
    <path
       d="m 277.73,198.1 c -0.06,0 -0.24,0.16 -0.64,0.33 a 2.38,2.38 0 0 1 -1.75,0 c -1.4,-0.56 -2.53,-2.84 -2.53,-5.25 a 7.73,7.73 0 0 1 0.75,-3.33 2.69,2.69 0 0 1 1.8,-1.74 1.2,1.2 0 0 1 1.36,0.68 c 0.17,0.38 0.08,0.64 0.15,0.67 0.07,0.03 0.29,-0.22 0.2,-0.78 a 1.53,1.53 0 0 0 -0.51,-0.85 1.71,1.71 0 0 0 -1.28,-0.37 3.26,3.26 0 0 0 -2.49,2 8,8 0 0 0 -0.91,3.72 c 0,2.7 1.33,5.26 3.25,5.87 a 2.49,2.49 0 0 0 2.14,-0.3 c 0.42,-0.33 0.5,-0.62 0.46,-0.65 z"
       style="fill:#7d4336"
       id="path4549"
       inkscape:connector-curvature="0" />
    <path
       d="m 282.58,162.67 c 1.66,1.29 3.43,2.62 5.5,3 2.07,0.38 4.55,-0.73 5,-2.78 0.21,-0.92 0,-2 0.7,-2.7 0.7,-0.7 2.12,-0.47 3.23,-0.28 a 8.54,8.54 0 0 0 9.21,-5.59 c 0.91,1.54 3.22,1.61 4.78,0.73 1.56,-0.88 2.62,-2.4 3.87,-3.68 1.25,-1.28 3,-2.38 4.72,-2 1,0.2 1.87,0.84 2.87,0.81 1.77,-0.05 2.74,-2.06 3.11,-3.78 0.37,-1.72 0.7,-3.75 2.24,-4.61 1.54,-0.86 3.18,-0.18 4.79,0.15 1.61,0.33 3.71,0.08 4.21,-1.48 a 3.19,3.19 0 0 0 -0.45,-2.46 8.68,8.68 0 0 0 -10,-3.88 11.75,11.75 0 0 0 -21.42,-3.54 11.93,11.93 0 0 0 -19.29,3.22 8.64,8.64 0 0 0 -10.47,12 c -2.48,1.23 -4.68,3.49 -4.89,6.26 -0.21,2.77 2.32,5.67 5,5.1 a 4.79,4.79 0 0 0 8,5.26"
       style="fill:#263238"
       id="path4551"
       inkscape:connector-curvature="0" />
    <path
       d="m 327.11,138 c 0,0 0,0.09 0,0.25 0,0.16 -0.05,0.4 -0.13,0.71 a 8.46,8.46 0 0 1 -1.12,2.52 9.68,9.68 0 0 1 -3.15,3 9,9 0 0 1 -5.57,1.24 l 0.25,-0.28 a 4.87,4.87 0 0 1 -0.49,3.67 13.94,13.94 0 0 1 -2.48,3.15 10.21,10.21 0 0 1 -1.59,1.45 4.67,4.67 0 0 1 -2.16,0.66 4.88,4.88 0 0 1 -4.21,-1.8 l 0.5,-0.11 a 10,10 0 0 1 -4.66,6.69 7.28,7.28 0 0 1 -4.47,1.17 13,13 0 0 1 -4.27,-1.2 l 0.37,-0.14 a 10.56,10.56 0 0 1 -3.41,3.94 5.62,5.62 0 0 1 -4.73,1 7.38,7.38 0 0 1 -5.33,-6.1 l 0.3,0.16 a 6.92,6.92 0 0 1 -4.64,0.4 7.5,7.5 0 0 1 -3.12,-1.61 6.65,6.65 0 0 1 -1.39,-1.73 2.57,2.57 0 0 1 -0.3,-0.71 7.82,7.82 0 0 0 1.84,2.26 7.43,7.43 0 0 0 3.05,1.48 6.59,6.59 0 0 0 4.37,-0.46 l 0.26,-0.13 v 0.29 a 7,7 0 0 0 5.05,5.66 5.1,5.1 0 0 0 4.29,-0.95 10.08,10.08 0 0 0 3.21,-3.74 l 0.12,-0.25 0.24,0.11 a 12.93,12.93 0 0 0 4.09,1.15 6.77,6.77 0 0 0 4.13,-1.1 9.54,9.54 0 0 0 4.41,-6.3 l 0.12,-0.63 0.38,0.52 a 4.35,4.35 0 0 0 3.72,1.58 4.18,4.18 0 0 0 1.92,-0.57 9.89,9.89 0 0 0 1.5,-1.35 14,14 0 0 0 2.42,-3 4.43,4.43 0 0 0 0.49,-3.32 l -0.09,-0.33 0.33,0.05 a 8.63,8.63 0 0 0 5.33,-1.11 9.55,9.55 0 0 0 3.12,-2.82 9.93,9.93 0 0 0 1.5,-3.37 z"
       style="fill:#455a64"
       id="path4553"
       inkscape:connector-curvature="0" />
    <path
       d="m 356,329.64 1.42,-14.24 4.91,-52.21 c -2.53,-2.65 -12.69,-6.82 -12.69,-6.82 l -25.22,-9.07 c 0,0 -2.42,6.92 -21.42,7.2 -19.38,0.29 -27.41,-11.83 -27.41,-11.83 -9.68,3.11 -30.83,11.14 -30.83,11.14 l -7.21,67.92 -0.37,22.42 -4.46,114.18 c 0,0 127,-5.39 128.9,-5.72 l -5.15,-41.12 z"
       style="fill:#ff725e"
       id="path4555"
       inkscape:connector-curvature="0" />
    <polygon
       points="334.09,334.71 349.25,322.95 350.08,296.87 319.55,296.12 319.55,322.85 "
       style="opacity:0.3"
       id="polygon4557" />
    <path
       d="m 235.43,389.91 -0.37,9.5 c 0,0 80.23,-14.54 94.25,-20.19 17.3,-7 26.58,-12.89 26.58,-12.89 l 0.29,-7.24 z"
       style="opacity:0.3"
       id="path4559"
       inkscape:connector-curvature="0" />
    <path
       d="m 241,259.52 c 0,0 -18.08,2.89 -21.81,26 -2.4,14.87 -9.67,80.37 0.27,98 11.5,20.36 115.35,-13.8 115.35,-13.8 l 3.55,-26.36 -80,5.3 -10,-55.55 z"
       style="fill:#c27461"
       id="path4561"
       inkscape:connector-curvature="0" />
    <path
       d="m 212,337 h 50.72 l -13.88,-84.59 c 0,0 -29.07,5.89 -32.87,36.26 C 212.13,319.28 212,337 212,337 Z"
       style="fill:#ff725e"
       id="path4563"
       inkscape:connector-curvature="0" />
    <path
       d="m 218.38,337 a 0.89,0.89 0 0 1 0.22,0 h 0.67 l 2.56,-0.05 9.46,-0.08 31.43,-0.08 -0.26,0.29 c -0.06,-0.66 -0.12,-1.37 -0.18,-2.08 -1.06,-12.76 -2,-24.31 -2.73,-32.72 -0.32,-4.15 -0.58,-7.53 -0.77,-9.92 -0.07,-1.14 -0.14,-2 -0.18,-2.7 0,-0.28 0,-0.51 0,-0.7 a 0.73,0.73 0 0 1 0,-0.24 0.68,0.68 0 0 1 0.05,0.24 l 0.08,0.69 c 0.07,0.66 0.17,1.56 0.28,2.7 0.23,2.38 0.55,5.75 0.94,9.9 0.74,8.41 1.76,19.95 2.88,32.71 0.06,0.71 0.12,1.41 0.18,2.07 v 0.28 h -0.28 l -31.43,-0.08 -9.46,-0.08 -2.56,-0.05 h -0.67 c -0.16,-0.1 -0.23,-0.1 -0.23,-0.1 z"
       style="fill:#263238"
       id="path4565"
       inkscape:connector-curvature="0" />
    <path
       d="m 359.79,285.58 a 9.71,9.71 0 0 1 0,1.73 c 0,1.11 -0.09,2.72 -0.18,4.7 -0.21,4 -0.62,9.45 -1.19,15.48 -0.57,6.03 -1.18,11.49 -1.66,15.44 -0.24,2 -0.44,3.56 -0.6,4.66 a 10.2,10.2 0 0 1 -0.3,1.7 11.59,11.59 0 0 1 0.1,-1.72 c 0.11,-1.19 0.26,-2.77 0.44,-4.68 0.39,-4 0.92,-9.46 1.5,-15.45 0.58,-5.99 1.1,-11.44 1.37,-15.44 0.14,-1.91 0.26,-3.5 0.34,-4.69 a 13.73,13.73 0 0 1 0.18,-1.73 z"
       style="fill:#263238"
       id="path4567"
       inkscape:connector-curvature="0" />
    <path
       d="m 263.51,276.37 a 4,4 0 0 1 -0.57,-0.94 c -0.39,-0.73 -0.86,-1.61 -1.42,-2.64 a 41.22,41.22 0 0 0 -5.44,-8.13 18.91,18.91 0 0 0 -8,-5.36 22.26,22.26 0 0 0 -4,-0.75 3.69,3.69 0 0 1 1.1,-0.07 11.62,11.62 0 0 1 3,0.46 18.29,18.29 0 0 1 8.29,5.37 36.4,36.4 0 0 1 5.38,8.31 c 0.56,1.14 1,2.07 1.27,2.72 a 4.7,4.7 0 0 1 0.39,1.03 z"
       style="fill:#263238"
       id="path4569"
       inkscape:connector-curvature="0" />
    <path
       d="m 256.93,340.8 c -0.09,-0.5 8.77,-2.66 8.77,-2.66 l -6.49,-42 3.51,40.86 h -6.49 z"
       style="opacity:0.3"
       id="path4571"
       inkscape:connector-curvature="0" />
    <path
       d="m 389.76,344.6 -1.57,21.59 -7.17,9 -17.55,23.29 21.26,1.39 c 0,0 24.93,-6.2 28.6,-13.88 3.67,-7.68 3.89,-41.42 3.89,-41.42 z"
       style="fill:#ffcfb4"
       id="path4573"
       inkscape:connector-curvature="0" />
    <path
       d="m 494.81,272.69 1.2,-84 c 0.77,-20 -9.17,-37.28 -29.17,-37.5 l -1.84,0.09 a 35.75,35.75 0 0 0 -34,34.52 c -0.57,17.33 -1,36.49 -0.43,45.74 1.1,19.16 20.43,21.23 20.43,21.23 0,0.59 0,5.36 -0.11,11.07 v 9.52 z"
       style="fill:#ffcfb4"
       id="path4575"
       inkscape:connector-curvature="0" />
    <path
       d="m 450.94,252.77 c 0,0 12.11,0.13 24.6,-8.56 0,0 -5.42,14.29 -24.63,13.47 z"
       style="fill:#ff9d64"
       id="path4577"
       inkscape:connector-curvature="0" />
    <path
       d="m 462.25,195.6 c 0.42,0.12 2.36,-1.28 5.48,-2 3.12,-0.72 5.65,-0.41 5.93,-0.69 0.28,-0.28 -0.34,-0.42 -1.45,-0.59 a 13.58,13.58 0 0 0 -4.82,0.3 12.06,12.06 0 0 0 -4.28,1.86 c -0.84,0.61 -1.06,1.07 -0.86,1.12 z"
       style="fill:#263238"
       id="path4579"
       inkscape:connector-curvature="0" />
    <path
       d="m 465.34,201.52 a 2.6,2.6 0 0 0 2.66,2.48 2.48,2.48 0 0 0 2.56,-2.46 2.59,2.59 0 0 0 -2.62,-2.5 2.48,2.48 0 0 0 -2.6,2.48 z"
       style="fill:#263238"
       id="path4581"
       inkscape:connector-curvature="0" />
    <path
       d="m 454.34,216.52 c 0,-0.17 -1.84,-0.4 -4.83,-0.64 -0.75,0 -1.47,-0.15 -1.62,-0.66 a 3.78,3.78 0 0 1 0.39,-2.25 c 0.62,-1.86 1.27,-3.8 2,-5.84 2.7,-8.3 4.62,-15.11 4.28,-15.22 -0.34,-0.11 -2.8,6.54 -5.5,14.84 l -1.86,5.87 a 4.42,4.42 0 0 0 -0.25,3 1.9,1.9 0 0 0 1.29,1 5.1,5.1 0 0 0 1.29,0.11 c 2.95,0.03 4.81,-0.04 4.81,-0.21 z"
       style="fill:#263238"
       id="path4583"
       inkscape:connector-curvature="0" />
    <path
       d="m 464.6,182.44 c 0.29,0.72 2.87,0.25 5.93,0.48 3.06,0.23 5.57,1 6,0.31 0.16,-0.32 -0.3,-1 -1.33,-1.65 a 10,10 0 0 0 -9,-0.6 c -1.2,0.52 -1.73,1.12 -1.6,1.46 z"
       style="fill:#263238"
       id="path4585"
       inkscape:connector-curvature="0" />
    <path
       d="m 434,187.6 c 0.32,0.59 2.84,0 5.87,0 3.03,0 5.53,0.44 5.87,-0.16 0.14,-0.28 -0.34,-0.82 -1.39,-1.3 a 10.57,10.57 0 0 0 -4.46,-0.86 10.93,10.93 0 0 0 -4.48,1 c -1.02,0.49 -1.52,1.04 -1.41,1.32 z"
       style="fill:#263238"
       id="path4587"
       inkscape:connector-curvature="0" />
    <path
       d="m 495.1,203.23 c 0.34,-0.15 13.75,-4.39 13.61,9.39 -0.14,13.78 -13.95,10.79 -14,10.4 -0.05,-0.39 0.39,-19.79 0.39,-19.79 z"
       style="fill:#ffcfb4"
       id="path4589"
       inkscape:connector-curvature="0" />
    <path
       d="m 499,217.84 c 0.07,0 0.24,0.17 0.65,0.36 a 2.37,2.37 0 0 0 1.79,0.06 c 1.46,-0.52 2.71,-2.82 2.8,-5.3 a 7.94,7.94 0 0 0 -0.63,-3.44 2.78,2.78 0 0 0 -1.79,-1.87 1.23,1.23 0 0 0 -1.42,0.65 c -0.19,0.38 -0.1,0.66 -0.18,0.68 -0.08,0.02 -0.29,-0.24 -0.17,-0.8 a 1.49,1.49 0 0 1 0.55,-0.86 1.79,1.79 0 0 1 1.33,-0.34 3.36,3.36 0 0 1 2.48,2.17 8,8 0 0 1 0.79,3.84 c -0.11,2.78 -1.56,5.36 -3.56,5.92 a 2.57,2.57 0 0 1 -2.19,-0.39 C 499,218.17 499,217.86 499,217.84 Z"
       style="fill:#ff9d64"
       id="path4591"
       inkscape:connector-curvature="0" />
    <path
       d="m 434.29,194.16 c 0.3,0.31 2.66,0.16 5.71,1.16 3.05,1 5.06,2.55 5.44,2.45 0.18,0 -0.08,-0.51 -0.95,-1.21 a 14.32,14.32 0 0 0 -4.3,-2.21 12.53,12.53 0 0 0 -4.6,-0.67 c -1.04,0.08 -1.45,0.32 -1.3,0.48 z"
       style="fill:#263238"
       id="path4593"
       inkscape:connector-curvature="0" />
    <path
       d="m 438,201.2 a 2.6,2.6 0 0 0 2.63,2.5 2.47,2.47 0 0 0 2.55,-2.46 2.59,2.59 0 0 0 -2.62,-2.5 2.48,2.48 0 0 0 -2.56,2.46 z"
       style="fill:#263238"
       id="path4595"
       inkscape:connector-curvature="0" />
    <path
       d="m 405.5,168 a 3.05,3.05 0 0 1 1.5,-1.77 c 1.52,-0.85 3.24,-0.69 4.9,-0.67 a 27.58,27.58 0 0 0 12,-2.7 13.63,13.63 0 0 1 -3.46,-2.56 c -2.05,-2.16 -3.19,-5.41 -2.15,-8.21 a 1.85,1.85 0 0 1 1.06,-1.23 c 0.85,-0.23 1.58,0.62 2.15,1.29 1.89,2.23 3.67,3.21 6.57,3 a 11.62,11.62 0 0 0 5,-1.35 l 0.17,-0.17 c 0.7,-0.69 1.38,-1.34 2,-2 v 0 c 5,-4.75 9.35,-8 13.75,-9.67 6.44,-2.4 17.14,-3.17 23.74,-1.26 6.6,1.91 12.45,7.47 13.2,14.3 3.81,-3.06 9.41,-2.89 13.9,-0.94 l 0.12,-0.05 c 5,1.93 7.75,7.35 9.11,12.55 0.08,0.28 0.14,0.57 0.21,0.85 a 20.09,20.09 0 0 0 6.64,6.83 c 0.48,0.29 1,0.66 1.08,1.22 0.08,0.56 -0.44,1 -0.91,1.33 a 10.08,10.08 0 0 1 -4.13,1.59 22.59,22.59 0 0 0 1.58,3.6 c 0.55,1 1.2,2.16 0.67,3.15 a 2.12,2.12 0 0 1 -2.25,0.92 6.16,6.16 0 0 1 -2.33,-1.13 l 1.59,4.1 a 12,12 0 0 1 -5.5,-0.51 c -1.19,4.8 -2.57,10.92 -3.89,14.16 -2.12,-0.06 -4.11,-0.6 -5.44,0.54 -1.81,1.54 -2.68,4.52 -5.6,3.31 -1.48,-0.62 -2.77,-3.8 -3.23,-5.34 A 74.65,74.65 0 0 1 485.12,169.52 23.83,23.83 0 0 0 478,164 l 0.22,0.21 c -5.29,-2 -11.29,-4 -16.42,-1.59 -4,1.84 -6.4,5.86 -9.42,9 A 28.33,28.33 0 0 1 431.44,181 c -0.9,5.75 -0.47,13.09 -0.88,18.46 l -4.76,-8.81 v 0 a 21.24,21.24 0 0 1 -0.93,-1.93 l -0.1,-0.2 v 0 a 30.75,30.75 0 0 0 -1.43,-3.1 v 0 c -3,2.5 -7.18,-1.54 -4.8,-4.62 a 7.59,7.59 0 0 1 1.66,-1.59 5.34,5.34 0 0 1 -5.1,1.18 4.17,4.17 0 0 1 -2.84,-4.2 3.56,3.56 0 0 1 2.18,-2.8 12,12 0 0 1 -6.78,-1.67 C 406.29,171 405,169.66 405.5,168 Z"
       style="fill:#263238"
       id="path4597"
       inkscape:connector-curvature="0" />
    <path
       d="m 480,157.05 a 15.21,15.21 0 0 1 1.88,1.8 13.72,13.72 0 0 1 2.77,6.42 24.78,24.78 0 0 1 0.37,4.87 c 0,1.77 -0.23,3.65 -0.42,5.63 a 50.68,50.68 0 0 0 -0.3,6.27 22.42,22.42 0 0 0 0.35,3.32 7,7 0 0 0 1.26,3.24 2.9,2.9 0 0 0 2.68,1 4.36,4.36 0 0 0 2.46,-1.31 10,10 0 0 0 2,-4.82 h -0.4 a 15.91,15.91 0 0 0 2.22,4.06 5.65,5.65 0 0 0 3.67,2.12 3.68,3.68 0 0 0 2,-0.29 3.17,3.17 0 0 0 1.37,-1.29 3.22,3.22 0 0 0 0.45,-1.68 2.37,2.37 0 0 0 -0.57,-1.5 l -0.21,0.17 a 12.27,12.27 0 0 0 4,3.19 c 0.54,0.26 1,0.42 1.26,0.53 a 2.51,2.51 0 0 0 0.45,0.12 1.89,1.89 0 0 0 -0.42,-0.19 c -0.29,-0.13 -0.7,-0.31 -1.22,-0.59 a 12.65,12.65 0 0 1 -3.89,-3.23 l -0.21,0.18 a 2.43,2.43 0 0 1 0.06,2.84 2.91,2.91 0 0 1 -1.24,1.14 3.4,3.4 0 0 1 -1.8,0.24 5.31,5.31 0 0 1 -3.4,-2 15.73,15.73 0 0 1 -2.14,-4 l -0.26,-0.62 -0.15,0.66 a 9.43,9.43 0 0 1 -1.87,4.6 3.8,3.8 0 0 1 -2.2,1.17 2.42,2.42 0 0 1 -2.28,-0.82 6.68,6.68 0 0 1 -1.17,-3 22.4,22.4 0 0 1 -0.34,-3.25 52.14,52.14 0 0 1 0.27,-6.21 c 0.18,-2 0.35,-3.88 0.38,-5.66 a 23.86,23.86 0 0 0 -0.43,-4.94 13.55,13.55 0 0 0 -3,-6.47 7.65,7.65 0 0 0 -1.98,-1.7 z"
       style="fill:#455a64"
       id="path4599"
       inkscape:connector-curvature="0" />
    <path
       d="m 420.33,174.15 c 0,0 0,0 0.15,0.13 l 0.46,0.36 a 7.29,7.29 0 0 0 0.8,0.54 9.87,9.87 0 0 0 1.15,0.64 16.93,16.93 0 0 0 8.11,1.68 21.68,21.68 0 0 0 11.65,-4 37.49,37.49 0 0 0 10.2,-11.18 c 1.45,-2.28 2.64,-4.62 3.95,-6.78 a 25.38,25.38 0 0 1 4.42,-5.72 13.18,13.18 0 0 1 5.59,-3.2 9.17,9.17 0 0 1 2.92,-0.26 10.24,10.24 0 0 1 2.65,0.58 11,11 0 0 1 3.92,2.5 11.23,11.23 0 0 1 2.09,2.85 13.52,13.52 0 0 1 0.91,2.89 c 0,0 0,-0.06 0,-0.2 0,-0.14 0,-0.35 -0.07,-0.58 a 9.87,9.87 0 0 0 -0.67,-2.18 11,11 0 0 0 -2.07,-3 11.22,11.22 0 0 0 -4,-2.62 10.78,10.78 0 0 0 -2.73,-0.63 9.82,9.82 0 0 0 -3,0.25 13.34,13.34 0 0 0 -5.79,3.26 25.74,25.74 0 0 0 -4.52,5.79 c -1.32,2.17 -2.51,4.51 -3.95,6.77 a 37.6,37.6 0 0 1 -10.06,11.08 21.58,21.58 0 0 1 -11.43,4 17.23,17.23 0 0 1 -8.06,-1.52 28.46,28.46 0 0 1 -2.62,-1.45 z"
       style="fill:#455a64"
       id="path4601"
       inkscape:connector-curvature="0" />
    <path
       d="m 418.8,165.7 c 0,0 0.22,0.2 0.67,0.5 a 16,16 0 0 0 2,1.08 20,20 0 0 0 3.19,1.14 20.67,20.67 0 0 0 8.24,0.47 20.77,20.77 0 0 0 3.3,-0.76 15.56,15.56 0 0 0 2.11,-0.85 3,3 0 0 0 0.73,-0.42 c 0,-0.07 -1.11,0.44 -2.93,1 a 21.36,21.36 0 0 1 -3.27,0.66 25.39,25.39 0 0 1 -4.06,0.14 25,25 0 0 1 -4,-0.6 22.76,22.76 0 0 1 -3.17,-1 c -1.76,-0.8 -2.77,-1.43 -2.81,-1.36 z"
       style="fill:#455a64"
       id="path4603"
       inkscape:connector-curvature="0" />
    <path
       d="m 464,221.5 c 0,0 -7,2 -9.62,3 l 1.06,3 a 4.85,4.85 0 0 0 6.55,2.8 5,5 0 0 0 1.61,-1.24 4.84,4.84 0 0 0 1.1,-3.4 27.33,27.33 0 0 0 -0.7,-4.16 z"
       style="fill:#ff9d64"
       id="path4605"
       inkscape:connector-curvature="0" />
    <path
       d="m 454.35,224.49 c -0.09,-0.24 4.13,-1.78 9.48,-3.45 l 0.5,-0.16 0.11,0.53 c 0,0.07 0,0.15 0.05,0.22 a 22.86,22.86 0 0 1 0.63,4 4.73,4.73 0 0 1 -1,3.31 c -1.32,1.57 -2.69,1.66 -2.67,1.57 0.02,-0.09 1.12,-0.51 2.11,-2 1.16,-1.43 0.63,-4 0,-6.74 0,-0.08 0,-0.16 -0.05,-0.23 l 0.61,0.37 c -5.33,1.71 -9.68,2.83 -9.77,2.58 z"
       style="fill:#263238"
       id="path4607"
       inkscape:connector-curvature="0" />
    <path
       d="m 406.82,475.24 135.74,-0.63 -7.49,-115.46 -0.56,-34.42 -8,-62.38 -30.33,-6.51 c 0,0 -7.59,14 -27,13.66 -18.95,-0.28 -18.34,-8.34 -18.34,-8.34 l -32.23,12.1 c 0,0 -17.66,8.6 -20.9,16.93 -3.16,8.12 -9.27,54.79 -9.27,54.79 l 27.79,-0.34 -2.47,88.36 z"
       style="fill:#455a64"
       id="path4609"
       inkscape:connector-curvature="0" />
    <path
       d="m 417.22,303.69 a 2.53,2.53 0 0 1 0.07,0.6 c 0,0.46 0.06,1 0.1,1.75 0.07,1.51 0.14,3.71 0.15,6.42 0,5.43 -0.09,12.92 -0.34,21.19 -0.25,8.27 -0.59,15.76 -0.87,21.18 -0.15,2.65 -0.27,4.83 -0.36,6.41 -0.06,0.71 -0.1,1.29 -0.13,1.74 a 2.52,2.52 0 0 1 -0.09,0.61 4.09,4.09 0 0 1 0,-0.61 c 0,-0.46 0,-1 0,-1.75 l 0.2,-6.42 c 0.19,-5.48 0.44,-12.93 0.72,-21.17 0.28,-8.24 0.43,-15.76 0.49,-21.18 0,-2.71 0,-4.9 0,-6.42 0,-0.71 0,-1.29 0,-1.74 a 2.63,2.63 0 0 1 0.06,-0.61 z"
       style="fill:#263238"
       id="path4611"
       inkscape:connector-curvature="0" />
    <path
       d="m 525.62,263.19 c 0,0 13.65,1.44 21,11 6.73,8.81 19.69,36.54 19.35,37.22 -0.34,0.68 -30.57,20.49 -30.57,20.49 l -7.46,-13.76 z"
       style="fill:#455a64"
       id="path4613"
       inkscape:connector-curvature="0" />
    <path
       d="m 532.27,276.81 a 1.74,1.74 0 0 1 0.08,0.53 c 0,0.4 0.07,0.9 0.12,1.51 0.11,1.31 0.22,3.22 0.33,5.57 0.23,4.7 0.41,11.21 0.52,18.39 0.11,7.18 0.22,13.68 0.36,18.39 0.07,2.29 0.12,4.18 0.16,5.57 0,0.61 0,1.11 0,1.51 a 1.8,1.8 0 0 1 0,0.53 2.57,2.57 0 0 1 -0.07,-0.52 c 0,-0.4 -0.08,-0.9 -0.13,-1.51 -0.1,-1.32 -0.21,-3.22 -0.33,-5.57 -0.23,-4.7 -0.41,-11.21 -0.51,-18.39 -0.1,-7.18 -0.23,-13.68 -0.37,-18.39 -0.06,-2.29 -0.12,-4.18 -0.16,-5.57 0,-0.61 0,-1.11 0,-1.51 a 1.79,1.79 0 0 1 0,-0.54 z"
       style="fill:#263238"
       id="path4615"
       inkscape:connector-curvature="0" />
    <path
       d="m 343.28,397 c 0,0 4.5,3 7.32,2.64 2.82,-0.36 12.07,-2.64 12.07,-2.64 0,0 0.19,0.82 2.64,2.67 2.45,1.85 17.34,4.3 23.56,3.55 6.22,-0.75 16.78,-4.71 16.78,-4.71 l -3.17,-17.83 -28,4.42 -31.19,7.18 V 397 Z"
       style="fill:#824e44"
       id="path4617"
       inkscape:connector-curvature="0" />
    <path
       d="m 352.68,382.47 c 0,0 -2.45,10.75 -1.13,12.26 1.32,1.51 3,1.88 3.92,-0.19 a 92.71,92.71 0 0 0 2.68,-9.45 l 1.13,-2.62 c 0,0 -1.51,17.72 1.5,18.67 3.01,0.95 4.72,0 4.72,0 0,0 6,4.52 6.41,-2.64 a 102.46,102.46 0 0 1 2.56,-16 l 1.4,-2.33 v 4 c 0,0 -3.18,9.42 -1.4,10.74 1.78,1.32 3.66,2.27 4.79,0.76 1.13,-1.51 6.39,-12.55 7.55,-16.42 0,0 3.53,5.1 8.46,5.17 3.87,0.05 6.12,-1.61 4.54,-4 -1.58,-2.39 -5.47,-4.43 -5.47,-4.43 l -5.09,-11.89 -12.44,-2.91 h -14.14 z"
       style="fill:#ffcfb4"
       id="path4619"
       inkscape:connector-curvature="0" />
    <path
       d="m 332.49,374.83 c 0,0 11.89,7.08 17.36,8.4 5.47,1.32 34.78,-3.89 34.48,-5.74 -0.3,-1.85 -4.13,-3.5 -6.77,-3.88 -2.64,-0.38 -10.37,-1.7 -10.37,-1.7 h 20.74 l 10,6.32 c 0,0 3.55,-1.43 2.4,-4.32 -0.61,-1.54 -8.43,-7.65 -8.43,-7.65 l -19,-3.77 -33.75,-1.32 z"
       style="fill:#ffbf9d"
       id="path4621"
       inkscape:connector-curvature="0" />
    <path
       d="m 343.63,343.07 c 0,0 33.74,5.66 34.5,6.6 0.76,0.94 9.42,10.74 9.42,10.74 0,0 13,4.48 11.32,7.36 -1.68,2.88 -5.47,1.13 -5.47,1.13 0,0 5.28,8.29 2.83,10 -2.45,1.71 -5.09,0.56 -7,-1.89 -1.91,-2.45 -7.35,-11.5 -7.35,-11.5 0,0 4.52,18.48 2.26,19.05 -2.26,0.57 -5.84,0.75 -7.35,-4 a 50.88,50.88 0 0 1 -1.89,-7.36 l -7.16,-11.87 c 0,0 2.83,21.69 1.13,23.47 0,0 -4.34,1.41 -5.84,-2.36 -1.5,-3.77 -3.59,-12.39 -3.59,-12.39 l -3.58,-9.48 -0.37,6 c 0,0 3,11.12 1.13,11.87 -1.87,0.75 -4.34,0 -5.66,-2.54 a 41,41 0 0 1 -3.39,-8 c -0.37,-1.47 -2.37,-6.49 -2.37,-6.49 l -7.17,-0.94 z"
       style="fill:#c27461"
       id="path4623"
       inkscape:connector-curvature="0" />
    <path
       d="m 385.18,357.53 a 53.77,53.77 0 0 1 4.47,5.91 51.71,51.71 0 0 1 4.05,6.2 52.73,52.73 0 0 1 -4.47,-5.9 51.33,51.33 0 0 1 -4.05,-6.21 z"
       style="fill:#7d4336"
       id="path4625"
       inkscape:connector-curvature="0" />
    <path
       d="m 373.93,351.29 a 9,9 0 0 1 1.58,1.89 49.58,49.58 0 0 1 3.18,5 59.3,59.3 0 0 1 2.6,5.33 10.42,10.42 0 0 1 0.84,2.32 12.3,12.3 0 0 1 -1.17,-2.16 c -0.68,-1.36 -1.61,-3.22 -2.73,-5.23 -1.12,-2.01 -2.2,-3.79 -3,-5.06 a 14.83,14.83 0 0 1 -1.3,-2.09 z"
       style="fill:#7d4336"
       id="path4627"
       inkscape:connector-curvature="0" />
    <path
       d="m 364,352.29 c 0,-0.05 0.56,0.24 1.19,0.95 a 9,9 0 0 1 1.79,3.2 16.63,16.63 0 0 1 0.74,3.56 4.28,4.28 0 0 1 0,1.51 4.78,4.78 0 0 1 -0.4,-1.45 29.24,29.24 0 0 0 -0.86,-3.46 11.48,11.48 0 0 0 -1.58,-3.13 c -0.51,-0.73 -0.88,-1.11 -0.88,-1.18 z"
       style="fill:#7d4336"
       id="path4629"
       inkscape:connector-curvature="0" />
    <path
       d="m 352,353.32 c 0,-0.06 0.52,0.1 1.21,0.58 a 6.8,6.8 0 0 1 2.1,2.49 6.7,6.7 0 0 1 0.7,3.19 2.45,2.45 0 0 1 -0.27,1.32 8.7,8.7 0 0 0 -3.74,-7.58 z"
       style="fill:#7d4336"
       id="path4631"
       inkscape:connector-curvature="0" />
    <path
       d="m 414.64,402.54 c 2.4,0 94.07,-6.73 94.07,-6.73 l 32.29,-6.68 -8,-35.8 -118.17,38 z"
       style="opacity:0.3"
       id="path4633"
       inkscape:connector-curvature="0" />
    <path
       d="m 402.48,380.67 84.86,-19.5 c 0,0 77.26,-45 78.44,-45.76 1.18,-0.76 -6,45.76 -6,45.76 0,0 -49.21,25.93 -63.38,29.29 -7.72,1.83 -93.32,9 -93.32,9 z"
       style="fill:#824e44"
       id="path4635"
       inkscape:connector-curvature="0" />
    <path
       d="m 611.4,195.49 c 5.23,-5.64 18,-4.66 21,-0.89 a 9.74,9.74 0 0 1 12.7,4.4 l 13.56,3.1 c 2.31,0.53 4.73,1.11 6.5,2.7 1.77,1.59 2.57,4.5 1.08,6.35 4.77,1.29 6.58,8.44 3,11.84 a 5.16,5.16 0 0 1 -0.84,7.45 51.34,51.34 0 0 1 8.6,15.21 c 0.83,2.31 1.49,4.88 0.61,7.17 -0.88,2.29 -3.91,3.84 -5.88,2.39 a 6,6 0 0 1 0.22,6.51 c 2.3,0.08 2.95,3.64 1.35,5.29 -1.6,1.65 -4.16,1.81 -6.46,1.73 -2.3,-0.08 -4.79,-0.22 -6.69,1.08 a 2.08,2.08 0 0 0 0.74,1.46 c 3.91,3.25 5,8.79 2,12.9 -0.28,0.38 -0.54,0.73 -0.76,1.05 -1.35,1.88 -4.67,3.57 -6.73,4.62 -5.22,2.66 -8.31,2.12 -14.12,2.9 1.55,3.76 -8,12 -18.66,3.71 -21.62,5.54 -37.13,7.54 -59.41,7.42 -3.18,0 -7,-0.49 -8.38,-3.35 -2.58,0.66 -5.36,-0.57 -7.24,-2.45 a 23.33,23.33 0 0 1 -4.2,-6.76 13.86,13.86 0 0 1 -9.85,-12.58 17.1,17.1 0 0 1 -6.33,-12.24 c -5.34,-1.68 -8.22,-8.65 -5.63,-13.61 a 60.59,60.59 0 0 1 6.79,-18.7 c -3.63,-0.82 -5,-5.75 -3.42,-9.15 1.58,-3.4 4.86,-5.56 8,-7.53 -2.73,0.69 -5.07,-2.75 -4.4,-5.49 0.67,-2.74 3.16,-4.6 5.6,-6 a 51.46,51.46 0 0 1 11.34,-4.93 c 1.34,-4.78 7.53,-10.19 12,-12.27 18.2,-8.39 30.92,-10.44 53.84,6.7"
       style="fill:#263238"
       id="path4637"
       inkscape:connector-curvature="0" />
    <path
       d="m 560.61,229.53 c 1.57,-12.46 10.81,-27.3 23.19,-25.2 l 38.31,12.25 a 7.36,7.36 0 0 1 6.1,7.85 l -6.5,83.31 a 22.9,22.9 0 0 1 -20,20.95 v 0 A 22.91,22.91 0 0 1 576,305.52 c 0.11,-5.73 0.17,-10 0.17,-10 0,0 -15.82,-3.64 -17.83,-24.7 -1.04,-10.48 0.53,-27.45 2.27,-41.29 z"
       style="fill:#824e44"
       id="path4639"
       inkscape:connector-curvature="0" />
    <path
       d="m 567.61,246.46 a 2.67,2.67 0 0 0 2.41,2.85 2.57,2.57 0 0 0 2.91,-2.24 2.7,2.7 0 0 0 -2.41,-2.86 2.57,2.57 0 0 0 -2.91,2.25 z"
       style="fill:#263238"
       id="path4641"
       inkscape:connector-curvature="0" />
    <path
       d="m 563.75,238.6 c 0.31,0.37 2.43,-1 5.31,-0.82 2.88,0.18 4.89,1.76 5.23,1.43 0.16,-0.15 -0.14,-0.8 -1,-1.53 a 7.38,7.38 0 0 0 -4.16,-1.57 7.09,7.09 0 0 0 -4.25,1.09 c -0.94,0.62 -1.28,1.23 -1.13,1.4 z"
       style="fill:#263238"
       id="path4643"
       inkscape:connector-curvature="0" />
    <path
       d="m 594,247.56 a 2.68,2.68 0 0 0 2.41,2.86 2.57,2.57 0 0 0 2.91,-2.24 2.68,2.68 0 0 0 -2.41,-2.86 2.57,2.57 0 0 0 -2.91,2.24 z"
       style="fill:#263238"
       id="path4645"
       inkscape:connector-curvature="0" />
    <path
       d="m 592,240.89 c 0.31,0.37 2.44,-1 5.31,-0.81 2.87,0.19 4.9,1.75 5.23,1.42 0.16,-0.15 -0.13,-0.8 -1,-1.52 a 7.3,7.3 0 0 0 -4.16,-1.57 7,7 0 0 0 -4.25,1.08 c -0.94,0.63 -1.28,1.24 -1.13,1.4 z"
       style="fill:#263238"
       id="path4647"
       inkscape:connector-curvature="0" />
    <path
       d="m 580.23,261.59 c 0,-0.17 -1.74,-0.59 -4.62,-1.14 -0.73,-0.12 -1.41,-0.31 -1.51,-0.82 a 3.78,3.78 0 0 1 0.63,-2.15 l 2.52,-5.46 c 3.51,-7.77 6.1,-14.19 5.79,-14.33 -0.31,-0.14 -3.42,6.06 -6.93,13.83 l -2.43,5.5 a 4.25,4.25 0 0 0 -0.56,2.86 1.81,1.81 0 0 0 1.14,1.15 4.54,4.54 0 0 0 1.24,0.25 c 2.9,0.34 4.71,0.47 4.73,0.31 z"
       style="fill:#263238"
       id="path4649"
       inkscape:connector-curvature="0" />
    <path
       d="m 576.13,295.51 a 53.13,53.13 0 0 0 28.39,-5.71 c 0,0 -7.67,13.9 -28.41,10.65 z"
       style="fill:#5b342f"
       id="path4651"
       inkscape:connector-curvature="0" />
    <path
       d="m 591.47,229 c 0.23,0.8 3.13,0.61 6.48,1.22 3.35,0.61 6,1.71 6.52,1 0.22,-0.33 -0.21,-1.09 -1.27,-1.92 a 11.48,11.48 0 0 0 -9.9,-1.72 c -1.3,0.42 -1.93,1.01 -1.83,1.42 z"
       style="fill:#263238"
       id="path4653"
       inkscape:connector-curvature="0" />
    <path
       d="m 565.38,228.76 c 0.47,0.68 2.49,0.13 4.88,0.25 2.39,0.12 4.37,0.71 4.88,0.05 0.22,-0.32 -0.06,-1 -0.9,-1.66 a 7.06,7.06 0 0 0 -7.86,-0.25 c -0.88,0.62 -1.2,1.28 -1,1.61 z"
       style="fill:#263238"
       id="path4655"
       inkscape:connector-curvature="0" />
    <path
       d="m 551.06,239.39 a 14.34,14.34 0 0 1 3.62,-8.93 c 1.25,-1.29 2.82,-2.25 3.93,-3.66 2.4,-3.05 2.15,-7.34 3.21,-11.07 a 15.73,15.73 0 0 1 9.95,-10.43 c 3.94,-1.33 8.37,-1.07 12.08,-3 2.74,-1.4 4.85,-3.86 7.67,-5.09 5.49,-2.4 11.76,0.51 16.85,3.66 1,4.1 -1.7,7.59 -4.25,10.94 a 14.61,14.61 0 0 1 -10.84,5.67 c -3.26,0.14 -7.06,-0.67 -9.39,1.62 -2.33,2.29 -1.59,6.73 -3.63,9.5 -2.9,4 -9.32,2.33 -13.6,4.73 -3.3,1.86 -4.75,5.75 -6.46,9.14 -1.71,3.39 -4.61,6.89 -8.4,6.65 a 42.33,42.33 0 0 1 -0.74,-9.73 z"
       style="fill:#263238"
       id="path4657"
       inkscape:connector-curvature="0" />
    <path
       d="m 600.1,208.21 a 74.23,74.23 0 0 1 27.9,5.54 c 2.62,1.08 5.34,2.44 6.8,4.87 1.29,2.14 1.41,4.77 1.33,7.26 -0.23,7.82 -3.54,17.33 -6.65,24.51 l -9.86,5.67 c -7.49,-1.91 -3.81,-14.83 -3.33,-21.33 A 15.34,15.34 0 0 1 607.52,221 17,17 0 0 1 600.1,208.21 Z"
       style="fill:#263238"
       id="path4659"
       inkscape:connector-curvature="0" />
    <path
       d="m 619.77,253.26 c 0.37,-4.47 5.88,-5.24 9.68,-2.87 2.09,1.3 3.63,3.83 3.28,8.57 -1,12.65 -13.45,9.09 -13.45,8.73 0,-0.36 0.05,-9.2 0.49,-14.43 z"
       style="fill:#824e44"
       id="path4661"
       inkscape:connector-curvature="0" />
    <path
       d="m 623.51,263.18 c 0.06,0 0.21,0.18 0.57,0.37 a 2.15,2.15 0 0 0 1.64,0.16 c 1.37,-0.39 2.66,-2.43 2.89,-4.7 a 7.27,7.27 0 0 0 -0.38,-3.2 2.56,2.56 0 0 0 -1.53,-1.81 1.14,1.14 0 0 0 -1.35,0.51 c -0.19,0.34 -0.13,0.6 -0.2,0.62 -0.07,0.02 -0.26,-0.24 -0.12,-0.75 a 1.49,1.49 0 0 1 0.56,-0.76 1.71,1.71 0 0 1 1.24,-0.23 3.13,3.13 0 0 1 2.16,2.14 7.48,7.48 0 0 1 0.5,3.58 c -0.27,2.54 -1.76,4.83 -3.63,5.22 a 2.36,2.36 0 0 1 -2,-0.49 c -0.35,-0.35 -0.4,-0.64 -0.35,-0.66 z"
       style="fill:#5b342f"
       id="path4663"
       inkscape:connector-curvature="0" />
    <path
       d="m 629.58,271.23 a 10.14,10.14 0 0 0 2,-0.09 7.65,7.65 0 0 0 2.23,-0.63 l -0.15,-0.08 a 6.3,6.3 0 0 0 10,4.17 h -0.22 a 2.65,2.65 0 0 0 1.64,1.14 3.64,3.64 0 0 0 2.06,-0.14 3.3,3.3 0 0 0 1.67,-1.31 4.42,4.42 0 0 0 0.68,-2.07 6.55,6.55 0 0 0 -1.3,-4.25 19.38,19.38 0 0 0 -3.28,-3.31 v 0.3 a 4.45,4.45 0 0 0 2.06,-3 6.49,6.49 0 0 0 -0.3,-3.74 9.83,9.83 0 0 0 -2.16,-3.2 29.14,29.14 0 0 0 -3,-2.58 v 0.28 a 4.76,4.76 0 0 0 1.31,-3.65 7,7 0 0 0 -1.36,-3.79 c -1.59,-2.1 -3.94,-3.29 -6.1,-4.41 l 0.1,0.22 a 8.41,8.41 0 0 0 -9,-10.54 l 0.19,0.22 a 7.25,7.25 0 0 0 -1.6,-6.19 7.12,7.12 0 0 0 -5.31,-2.72 l 0.16,0.16 a 7.1,7.1 0 0 0 -2.78,-5.57 6.93,6.93 0 0 0 -5.26,-1.56 l 0.14,0.13 a 7,7 0 0 0 -1,-3.27 9.09,9.09 0 0 0 -1.88,-2.35 7.27,7.27 0 0 0 -4.3,-1.95 h -0.47 c -0.15,0 -0.3,0 -0.45,0 a 6.37,6.37 0 0 0 -0.8,0.08 7.3,7.3 0 0 0 -1.22,0.32 l -0.71,0.29 -0.23,0.1 0.25,-0.07 0.72,-0.26 a 8.82,8.82 0 0 1 1.21,-0.28 4.88,4.88 0 0 1 0.79,-0.06 h 0.44 l 0.46,0.05 a 7.11,7.11 0 0 1 4.18,1.95 8.76,8.76 0 0 1 1.82,2.32 6.89,6.89 0 0 1 0.91,3.15 v 0.15 h 0.14 a 6.71,6.71 0 0 1 5.06,1.53 6.83,6.83 0 0 1 2.63,5.34 v 0.16 h 0.16 a 7.22,7.22 0 0 1 6.56,8.51 l -0.06,0.25 h 0.25 a 8,8 0 0 1 8.66,10.02 v 0.15 l 0.13,0.07 c 2.16,1.12 4.45,2.3 6,4.31 a 6.47,6.47 0 0 1 1.29,3.57 4.4,4.4 0 0 1 -1.2,3.36 l -0.16,0.15 0.17,0.13 c 2,1.62 4.09,3.33 5,5.63 a 6.16,6.16 0 0 1 0.28,3.52 4.09,4.09 0 0 1 -1.88,2.73 l -0.22,0.13 0.19,0.17 a 18.28,18.28 0 0 1 3.23,3.23 6.13,6.13 0 0 1 1.26,4 3.41,3.41 0 0 1 -2.13,3.12 2.78,2.78 0 0 1 -3.33,-0.86 l -0.09,-0.14 -0.13,0.09 a 6.12,6.12 0 0 1 -6.39,0.5 6.21,6.21 0 0 1 -3.18,-4.46 v -0.15 l -0.13,0.07 a 7.45,7.45 0 0 1 -2.16,0.63 10,10 0 0 1 -2,0.12 7.66,7.66 0 0 1 -3.08,-0.65 2.87,2.87 0 0 1 -1.44,-1.26 c -0.2,-0.4 -0.23,-0.64 -0.25,-0.63 v 0.17 a 1.86,1.86 0 0 0 0.17,0.48 2.87,2.87 0 0 0 1.44,1.34"
       style="fill:#455a64"
       id="path4665"
       inkscape:connector-curvature="0" />
    <path
       d="m 673.28,255.81 a 4,4 0 0 0 0.49,-0.76 6.53,6.53 0 0 0 -0.25,-6.48 6.73,6.73 0 0 0 -4.54,-3 l 0.11,0.15 a 8.66,8.66 0 0 0 -1,-6.26 8.47,8.47 0 0 0 -2.43,-2.68 20.34,20.34 0 0 0 -3.44,-1.69 7.1,7.1 0 0 1 -1.64,-1 4.49,4.49 0 0 1 -1.13,-1.58 c -0.54,-1.22 -0.69,-2.66 -1.38,-4 a 7.7,7.7 0 0 0 -7.65,-4 l 0.22,0.22 a 10.14,10.14 0 0 0 -11,-11.69 l 0.21,0.21 a 8.91,8.91 0 0 0 -13.71,-8.56 h 0.2 a 12,12 0 0 0 -4.37,-2.77 18.32,18.32 0 0 0 -4.53,-1.13 21.36,21.36 0 0 0 -7.51,0.38 15.06,15.06 0 0 0 -4.49,1.78 8,8 0 0 0 -1.05,0.73 3.22,3.22 0 0 0 -0.33,0.27 c 0,0 0.47,-0.35 1.43,-0.92 a 15.67,15.67 0 0 1 4.48,-1.68 21.42,21.42 0 0 1 7.44,-0.3 18.58,18.58 0 0 1 4.45,1.14 11.81,11.81 0 0 1 4.14,2.81 l 0.09,0.1 0.12,-0.07 a 8.56,8.56 0 0 1 13.15,8.24 v 0.24 h 0.24 a 9.77,9.77 0 0 1 10.62,11.25 v 0.25 h 0.26 a 7.34,7.34 0 0 1 7.27,3.75 c 0.65,1.23 0.81,2.66 1.38,3.95 a 4.82,4.82 0 0 0 1.23,1.7 7,7 0 0 0 1.72,1 20.64,20.64 0 0 1 3.4,1.65 8.09,8.09 0 0 1 2.35,2.57 8.4,8.4 0 0 1 1.05,6.06 v 0.13 h 0.13 a 6.53,6.53 0 0 1 4.41,2.86 6.28,6.28 0 0 1 1,3.87 6.64,6.64 0 0 1 -0.64,2.47 c -0.33,0.53 -0.51,0.78 -0.5,0.79 z"
       style="fill:#455a64"
       id="path4667"
       inkscape:connector-curvature="0" />
    <path
       d="m 552.14,257.19 a 1.26,1.26 0 0 0 0.07,-1 2.53,2.53 0 0 0 -0.73,-1.06 4.28,4.28 0 0 0 -1.55,-0.81 7.56,7.56 0 0 1 -2,-0.86 4,4 0 0 1 -1.39,-2.06 7.82,7.82 0 0 1 -0.27,-2.9 c 0.06,-1 0.25,-2.15 0.27,-3.33 0.06,-2.4 -0.91,-4.86 -1.49,-7.51 a 10.81,10.81 0 0 1 -0.1,-4.17 5.11,5.11 0 0 1 2.36,-3.52 19.1,19.1 0 0 1 4.46,-1.43 7.55,7.55 0 0 0 2.29,-1 5.14,5.14 0 0 0 1.64,-2 25.08,25.08 0 0 0 1.41,-5 8.65,8.65 0 0 1 0.92,-2.39 3.84,3.84 0 0 1 1.89,-1.6 13.56,13.56 0 0 1 3.51,-0.42 5.37,5.37 0 0 0 1.79,-0.42 3.56,3.56 0 0 0 1.42,-1.16 12.36,12.36 0 0 0 1.38,-3.21 7.75,7.75 0 0 1 1.63,-2.83 7.62,7.62 0 0 1 5.56,-2.54 7.81,7.81 0 0 1 5.34,2 l 0.17,0.15 0.1,-0.2 a 12,12 0 0 1 7.62,-6.37 11.09,11.09 0 0 1 4.24,-0.29 9.89,9.89 0 0 1 3.46,1 8.77,8.77 0 0 1 3.64,3.46 8.47,8.47 0 0 1 0.61,1.2 l 0.15,0.31 v 0.11 c 0,0 0,0 0,-0.11 l -0.12,-0.33 a 7.05,7.05 0 0 0 -0.57,-1.23 8.85,8.85 0 0 0 -3.64,-3.59 10.32,10.32 0 0 0 -3.52,-1.08 11.18,11.18 0 0 0 -4.34,0.26 12.32,12.32 0 0 0 -7.85,6.48 h 0.26 a 8.2,8.2 0 0 0 -5.57,-2.14 8,8 0 0 0 -5.83,2.64 8.06,8.06 0 0 0 -1.72,3 12.31,12.31 0 0 1 -1.33,3.11 3.71,3.71 0 0 1 -2.93,1.41 14.67,14.67 0 0 0 -3.61,0.44 4.32,4.32 0 0 0 -2.09,1.77 8.62,8.62 0 0 0 -1,2.49 25,25 0 0 1 -1.38,4.89 4.71,4.71 0 0 1 -1.52,1.84 7.32,7.32 0 0 1 -2.17,1 18.83,18.83 0 0 0 -4.54,1.47 4.83,4.83 0 0 0 -1.69,1.64 6.48,6.48 0 0 0 -0.82,2.12 10.86,10.86 0 0 0 0.12,4.3 c 0.6,2.7 1.57,5.11 1.52,7.45 0,1.15 -0.18,2.26 -0.23,3.32 a 7.67,7.67 0 0 0 0.31,3 4.05,4.05 0 0 0 1.49,2.14 7.29,7.29 0 0 0 2,0.85 4.24,4.24 0 0 1 1.52,0.76 2.42,2.42 0 0 1 0.72,1 1.55,1.55 0 0 1 0.13,0.95 z"
       style="fill:#455a64"
       id="path4669"
       inkscape:connector-curvature="0" />
    <path
       d="m 527.9,237.17 c 0,0 0.05,-0.08 0.13,-0.24 l 0.36,-0.7 1.36,-2.73 c 0.59,-1.17 1.26,-2.65 2.2,-4.26 a 11.29,11.29 0 0 1 4.32,-4.47 c 1,-0.54 2.22,-0.89 3.42,-1.4 a 7.79,7.79 0 0 0 1.75,-1 4.41,4.41 0 0 0 1.32,-1.63 c 0.62,-1.3 0.66,-2.79 1.16,-4.14 a 3.58,3.58 0 0 1 1.25,-1.71 6.93,6.93 0 0 1 2.05,-0.91 12.83,12.83 0 0 0 2.26,-0.82 4.1,4.1 0 0 0 1.76,-1.76 c 0.78,-1.53 0.82,-3.26 1.16,-4.89 a 6.16,6.16 0 0 1 0.88,-2.31 3.22,3.22 0 0 1 2,-1.29 c 1.68,-0.32 3.46,0.29 5.31,0 a 4.47,4.47 0 0 0 2.46,-1.25 10.68,10.68 0 0 0 1.61,-2.15 c 0.47,-0.74 0.91,-1.49 1.43,-2.16 a 5,5 0 0 1 1.89,-1.56 c 1.52,-0.67 3.23,-0.26 4.78,0.12 a 11.25,11.25 0 0 0 4.8,0.5 12.94,12.94 0 0 0 4.22,-1.83 21.47,21.47 0 0 1 3.76,-2 13,13 0 0 1 7.52,-0.11 14.07,14.07 0 0 1 5.51,3 15.46,15.46 0 0 1 3,3.69 17,17 0 0 1 1.27,2.74 l 0.28,0.74 a 1.39,1.39 0 0 0 0.11,0.25 1.32,1.32 0 0 0 -0.07,-0.26 c -0.06,-0.19 -0.14,-0.44 -0.25,-0.76 a 15.73,15.73 0 0 0 -1.21,-2.79 15.44,15.44 0 0 0 -3,-3.77 14.08,14.08 0 0 0 -5.59,-3.06 13.3,13.3 0 0 0 -7.7,0.07 21.58,21.58 0 0 0 -3.82,2 12.77,12.77 0 0 1 -4.11,1.77 11,11 0 0 1 -4.65,-0.5 16,16 0 0 0 -2.46,-0.48 4.87,4.87 0 0 0 -4.6,2 24.4,24.4 0 0 0 -1.45,2.19 11,11 0 0 1 -1.56,2.08 4.09,4.09 0 0 1 -2.24,1.14 c -1.74,0.26 -3.51,-0.36 -5.33,0 A 3.56,3.56 0 0 0 553,204 a 6.7,6.7 0 0 0 -0.94,2.45 c -0.34,1.68 -0.39,3.38 -1.12,4.8 a 3.71,3.71 0 0 1 -1.6,1.61 11.94,11.94 0 0 1 -2.19,0.8 7.07,7.07 0 0 0 -2.15,1 3.88,3.88 0 0 0 -1.36,1.87 c -0.52,1.43 -0.56,2.9 -1.14,4.13 a 5.19,5.19 0 0 1 -2.9,2.47 c -1.17,0.51 -2.37,0.87 -3.43,1.43 a 11.42,11.42 0 0 0 -4.37,4.6 c -0.94,1.64 -1.59,3.12 -2.16,4.31 -0.57,1.19 -1,2.1 -1.29,2.75 -0.13,0.31 -0.24,0.54 -0.32,0.72 a 1.16,1.16 0 0 0 -0.13,0.23 z"
       style="fill:#455a64"
       id="path4671"
       inkscape:connector-curvature="0" />
    <path
       d="m 541.6,224.15 a 0.65,0.65 0 0 0 -0.23,-0.05 1.43,1.43 0 0 0 -0.68,0.14 2.72,2.72 0 0 0 -1.3,2.22 6.92,6.92 0 0 0 0.24,1.9 7.7,7.7 0 0 1 0.29,2.2 4.89,4.89 0 0 1 -0.93,2.32 c -0.5,0.76 -1.14,1.49 -1.66,2.39 a 3.61,3.61 0 0 0 -0.37,3.18 c 0.38,1.09 1.15,2 1.52,3.11 a 4.77,4.77 0 0 1 -0.41,3.48 c -0.51,1.14 -1.24,2.25 -1.74,3.53 a 5.66,5.66 0 0 0 -0.44,2.05 5.07,5.07 0 0 0 0.44,2.1 24.74,24.74 0 0 0 2.35,3.66 5.81,5.81 0 0 1 1.27,4 19.36,19.36 0 0 1 -1.61,4.24 6.85,6.85 0 0 0 -0.51,2.32 5.26,5.26 0 0 0 0.56,2.29 19.22,19.22 0 0 0 2.67,3.63 10.35,10.35 0 0 1 2.15,3.62 31.37,31.37 0 0 0 1.24,4 4.8,4.8 0 0 0 1.26,1.63 5.94,5.94 0 0 0 1.78,0.89 14.28,14.28 0 0 1 1.74,0.66 5.74,5.74 0 0 1 1.45,1 13,13 0 0 1 2,2.74 c 0.56,0.95 1.09,1.89 1.68,2.73 a 8.66,8.66 0 0 0 4.35,3.32 9.36,9.36 0 0 0 4.13,0.47 8.26,8.26 0 0 0 2.54,-0.7 6.51,6.51 0 0 0 0.8,-0.44 9.64,9.64 0 0 1 -3.35,1 9.32,9.32 0 0 1 -4,-0.52 8.49,8.49 0 0 1 -4.21,-3.27 c -0.57,-0.83 -1.08,-1.77 -1.65,-2.73 a 12.86,12.86 0 0 0 -2.06,-2.82 6.67,6.67 0 0 0 -1.52,-1.09 15.92,15.92 0 0 0 -1.78,-0.68 5.38,5.38 0 0 1 -1.67,-0.85 4.32,4.32 0 0 1 -1.16,-1.5 31,31 0 0 1 -1.21,-3.92 10.66,10.66 0 0 0 -2.21,-3.75 19.32,19.32 0 0 1 -2.62,-3.56 4.87,4.87 0 0 1 -0.51,-2.12 6,6 0 0 1 0.48,-2.18 19.3,19.3 0 0 0 1.63,-4.33 4.78,4.78 0 0 0 -0.28,-2.31 9.48,9.48 0 0 0 -1.06,-2 24.46,24.46 0 0 1 -2.32,-3.58 4.79,4.79 0 0 1 -0.42,-2 5.1,5.1 0 0 1 0.41,-1.93 c 0.48,-1.23 1.2,-2.34 1.72,-3.53 a 5,5 0 0 0 0.4,-3.71 c -0.41,-1.18 -1.18,-2.09 -1.54,-3.11 a 3.33,3.33 0 0 1 0.32,-2.94 c 0.5,-0.87 1.13,-1.62 1.63,-2.39 a 5.15,5.15 0 0 0 0.95,-2.45 7.77,7.77 0 0 0 -0.33,-2.25 6.78,6.78 0 0 1 -0.27,-1.85 2.65,2.65 0 0 1 1.19,-2.16 1.48,1.48 0 0 1 0.86,-0.1 z"
       style="fill:#455a64"
       id="path4673"
       inkscape:connector-curvature="0" />
    <path
       d="m 673,255.39 a 4.52,4.52 0 0 0 1,-0.08 7,7 0 0 0 2.69,-1.1 6.74,6.74 0 0 0 2.73,-3.68 7.11,7.11 0 0 0 -0.92,-6 18.67,18.67 0 0 0 -2.49,-2.65 8.55,8.55 0 0 1 -2.31,-3 5.58,5.58 0 0 1 0.27,-4 c 0.51,-1.35 1.27,-2.66 1.76,-4.15 a 12.42,12.42 0 0 0 -9.06,-16 l 0.11,0.29 a 6.3,6.3 0 0 0 1.15,-2.74 7.88,7.88 0 0 0 -0.14,-3 8.32,8.32 0 0 0 -1.22,-2.8 10.06,10.06 0 0 0 -2.1,-2.27 19.53,19.53 0 0 0 -8.27,-3.52 29.7,29.7 0 0 0 -8.51,-0.52 l 0.2,0.18 a 9,9 0 0 0 -4.94,-7.88 9.14,9.14 0 0 0 -4.43,-0.94 14.8,14.8 0 0 0 -4.18,1 8.56,8.56 0 0 1 -2,0.41 5.07,5.07 0 0 1 -1.9,-0.23 15.71,15.71 0 0 1 -3.32,-1.69 13.78,13.78 0 0 0 -3.17,-1.53 11,11 0 0 0 -3.2,-0.48 10.58,10.58 0 0 0 -5.28,1.33 11,11 0 0 0 -3.13,2.62 10.35,10.35 0 0 0 -1.37,2.16 5.47,5.47 0 0 0 -0.33,0.81 c 0,0 0.12,-0.27 0.39,-0.79 a 10.86,10.86 0 0 1 1.4,-2.1 11,11 0 0 1 3.13,-2.54 10.48,10.48 0 0 1 5.19,-1.26 10.86,10.86 0 0 1 3.12,0.5 13.08,13.08 0 0 1 3.1,1.52 16.55,16.55 0 0 0 3.38,1.74 5.61,5.61 0 0 0 2,0.25 8.51,8.51 0 0 0 2,-0.42 14.65,14.65 0 0 1 4.09,-1 8.78,8.78 0 0 1 4.26,0.92 8.62,8.62 0 0 1 4.73,7.57 v 0.2 h 0.2 a 29.65,29.65 0 0 1 8.4,0.53 19.38,19.38 0 0 1 8.11,3.45 9.94,9.94 0 0 1 2,2.18 8.11,8.11 0 0 1 1.17,2.68 7.52,7.52 0 0 1 0.13,2.87 6,6 0 0 1 -1.07,2.58 l -0.18,0.23 0.29,0.07 a 12.08,12.08 0 0 1 8.83,15.51 c -0.47,1.45 -1.23,2.76 -1.75,4.14 a 5.91,5.91 0 0 0 -0.25,4.23 8.8,8.8 0 0 0 2.41,3.15 18,18 0 0 1 2.46,2.59 6.93,6.93 0 0 1 1,5.8 6.63,6.63 0 0 1 -2.63,3.63 7.2,7.2 0 0 1 -2.62,1.14 c -0.61,0.07 -0.93,0.07 -0.93,0.09 z"
       style="fill:#263238"
       id="path4675"
       inkscape:connector-curvature="0" />
    <path
       d="m 537.29,215.36 a 0.92,0.92 0 0 0 0,-0.24 c 0,-0.18 0,-0.41 0.08,-0.71 0.08,-0.65 0.18,-1.56 0.31,-2.73 0.13,-1.17 0.33,-2.63 0.69,-4.28 a 24.07,24.07 0 0 1 1.77,-5.43 16.09,16.09 0 0 1 4.13,-5.48 12.1,12.1 0 0 1 3.29,-1.94 34.47,34.47 0 0 1 3.95,-1.06 11.65,11.65 0 0 0 4,-1.7 18.15,18.15 0 0 0 3.28,-3.16 c 1,-1.16 2,-2.4 3.07,-3.51 a 13,13 0 0 1 3.85,-2.74 22.93,22.93 0 0 1 9.29,-1.78 59.58,59.58 0 0 1 8.8,0.52 45.17,45.17 0 0 1 14.2,4.25 31.72,31.72 0 0 1 8.16,5.82 c 0.42,0.43 0.8,0.79 1.11,1.13 l 0.75,0.89 0.46,0.54 c 0.11,0.12 0.17,0.18 0.17,0.17 a 0.94,0.94 0 0 0 -0.14,-0.2 l -0.43,-0.56 c -0.21,-0.25 -0.45,-0.56 -0.73,-0.91 -0.28,-0.35 -0.67,-0.73 -1.08,-1.17 a 31.25,31.25 0 0 0 -8.15,-6 44.61,44.61 0 0 0 -14.32,-4.36 58.75,58.75 0 0 0 -8.85,-0.55 23.32,23.32 0 0 0 -9.34,1.81 13.53,13.53 0 0 0 -4,2.82 c -1.13,1.14 -2.09,2.38 -3.08,3.54 a 17.65,17.65 0 0 1 -3.21,3.09 11.09,11.09 0 0 1 -3.9,1.66 34.05,34.05 0 0 0 -4,1.09 12.17,12.17 0 0 0 -3.36,2 16.46,16.46 0 0 0 -4.18,5.6 24.18,24.18 0 0 0 -1.73,5.51 42,42 0 0 0 -0.63,4.31 c -0.12,1.18 -0.19,2.11 -0.23,2.74 0,0.29 0,0.53 -0.05,0.71 z"
       style="fill:#263238"
       id="path4677"
       inkscape:connector-curvature="0" />
    <path
       d="m 592.62,268.24 a 4.73,4.73 0 0 0 -2.75,-4 4.18,4.18 0 0 0 -4.68,1 3.76,3.76 0 0 0 -0.23,4.5 4.14,4.14 0 0 0 1.8,1.59 5.2,5.2 0 0 0 3.07,0.33 3.54,3.54 0 0 0 2.21,-1.21 3.34,3.34 0 0 0 0.58,-2.21 z"
       style="fill:#5b342f"
       id="path4679"
       inkscape:connector-curvature="0" />
    <path
       d="m 591,262.09 c -0.47,0 -0.22,3.17 -2.74,5.65 -2.52,2.48 -5.93,2.4 -5.91,2.85 0,0.2 0.8,0.55 2.23,0.47 a 8,8 0 0 0 4.95,-2.2 6.87,6.87 0 0 0 2.1,-4.72 c 0.02,-1.34 -0.4,-2.09 -0.63,-2.05 z"
       style="fill:#263238"
       id="path4681"
       inkscape:connector-curvature="0" />
    <path
       d="m 646.33,314.65 -24.57,-9.32 c 0,0 -19,11.25 -33.55,8.92 -11.32,-1.81 -12.25,-7.63 -12.25,-7.63 l -13.61,2.2 c 0,0 -20.63,17.18 -24.93,34.56 -2.55,10.29 -3.16,23.77 -3.16,35.59 0,4.73 6,23.44 6,23.44 l 2.34,27.07 -11.39,45.13 H 650.09 V 349.76 Z"
       style="fill:#ff725e"
       id="path4683"
       inkscape:connector-curvature="0" />
    <polygon
       points="545.58,311.4 562.35,308.82 557.99,369.99 513.31,389.13 496.05,345.91 "
       style="fill:#ff725e"
       id="polygon4685" />
    <path
       d="m 539.17,397.34 a 3.6,3.6 0 0 1 -0.31,-0.6 c -0.18,-0.41 -0.49,-1 -0.79,-1.77 a 49.09,49.09 0 0 1 -2.21,-6.78 70.91,70.91 0 0 1 -1.52,-23.38 146.78,146.78 0 0 1 4.3,-23.08 c 0.76,-2.9 1.4,-5.25 1.86,-6.86 l 0.55,-1.86 a 3.62,3.62 0 0 1 0.22,-0.64 2.71,2.71 0 0 1 -0.12,0.67 c -0.12,0.48 -0.27,1.11 -0.45,1.88 -0.42,1.69 -1,4 -1.7,6.9 a 160.06,160.06 0 0 0 -4.14,23 73.26,73.26 0 0 0 1.36,23.25 55.93,55.93 0 0 0 2,6.78 c 0.27,0.79 0.54,1.39 0.69,1.8 a 3.08,3.08 0 0 1 0.26,0.69 z"
       style="fill:#263238"
       id="path4687"
       inkscape:connector-curvature="0" />
    <g
       style="opacity:0.3"
       id="g4691">
      <path
         d="m 533.52,373.43 1.08,-0.78 a 121,121 0 0 1 6.4,-39.43 c -8,11.91 -11.42,26.9 -7.48,40.21 z"
         id="path4689"
         inkscape:connector-curvature="0" />
    </g>
    <path
       d="m 567.6,367.46 c 0,0 17,63.11 26.55,74.68 9.55,11.57 14.69,15 29.34,16.19 14.65,1.19 20.09,-15.78 23.35,-22.39 3.26,-6.61 2.66,-16.53 2.66,-16.53 l -20,-11.16 -15.8,26 -40.7,-67.92 z"
       style="opacity:0.3"
       id="path4693"
       inkscape:connector-curvature="0" />
    <path
       d="m 570.27,375.68 c 0,0 17.36,40.39 29.81,63.55 10.54,19.62 32,17.44 38.87,6.53 6.87,-10.91 18.24,-43.57 18.24,-43.57 l -36.27,-6.37 -4,11.49 -27.5,-35.07 z"
       style="fill:#824e44"
       id="path4695"
       inkscape:connector-curvature="0" />
    <path
       d="m 599.94,369.85 -2.67,-12.08 c 0,0 -1.22,-3.34 -3.21,-0.39 -1.99,2.95 -1.06,8.51 -1.06,8.51 0,0 -3.76,-28.73 -7.06,-31.86 -1.21,-1.15 -2.86,0.43 -2.86,0.43 0,0 -0.39,-5.62 -2.15,-5.59 -1.76,0.03 -3.42,4.23 -3.42,4.23 a 3.13,3.13 0 0 0 -3.91,0.89 c -1.54,1.87 -1.55,17.49 -1.55,17.49 0,0 -1.47,-12.87 -3.77,-13.68 -3.7,-1.3 -3.7,3.6 -3.7,3.6 l 1.08,16.75 c 0,0 2,11.43 4.55,18.62 2.55,7.19 4,7.26 4,7.26 l 16.55,-0.44 c 0,0 3.74,-3.41 6.68,-6.06 a 8,8 0 0 0 2.5,-7.68 z"
       style="fill:#824e44"
       id="path4697"
       inkscape:connector-curvature="0" />
    <path
       d="m 628,423.6 a 2.72,2.72 0 0 1 -0.28,-0.51 c -0.19,-0.38 -0.42,-0.87 -0.71,-1.47 l -1.29,-2.24 c -0.52,-0.85 -1.17,-1.81 -1.85,-2.87 -2.87,-4.2 -7.2,-9.73 -12.12,-15.72 -4.92,-5.99 -9.49,-11.36 -12.68,-15.32 -1.6,-2 -2.86,-3.61 -3.71,-4.76 l -0.94,-1.34 a 2.13,2.13 0 0 1 -0.3,-0.49 3.17,3.17 0 0 1 0.38,0.43 l 1,1.28 c 0.89,1.1 2.19,2.69 3.83,4.64 3.26,3.9 7.85,9.23 12.79,15.23 4.94,6 9.22,11.58 12,15.84 0.67,1.09 1.3,2.06 1.81,2.94 0.51,0.88 0.9,1.65 1.21,2.29 0.31,0.64 0.46,1.12 0.63,1.53 a 2.38,2.38 0 0 1 0.23,0.54 z"
       style="fill:#5b342f"
       id="path4699"
       inkscape:connector-curvature="0" />
    <path
       d="m 642.25,313.57 c 0,0 19.8,4.05 24.75,26.43 4.58,20.61 3.16,64.45 3.16,64.45 L 616.28,395 629.4,320.15 Z"
       style="fill:#ff725e"
       id="path4701"
       inkscape:connector-curvature="0" />
    <path
       d="m 623.93,349.33 a 1.08,1.08 0 0 1 0,0.24 c 0,0.19 -0.06,0.41 -0.09,0.69 -0.1,0.65 -0.23,1.53 -0.4,2.65 -0.37,2.35 -0.9,5.67 -1.55,9.76 -1.37,8.28 -3.25,19.68 -5.35,32.36 l -0.21,-0.3 1.77,0.32 33.46,6 10.13,1.95 2.75,0.54 0.71,0.15 0.24,0.07 a 0.69,0.69 0 0 1 -0.25,0 l -0.72,-0.11 -2.77,-0.44 -10.16,-1.73 -33.49,-5.92 -1.77,-0.31 -0.25,-0.05 v -0.25 c 2.16,-12.67 4.09,-24.07 5.5,-32.34 0.72,-4.08 1.3,-7.39 1.72,-9.73 0.2,-1.11 0.37,-2 0.49,-2.64 0,-0.27 0.1,-0.5 0.14,-0.68 a 0.79,0.79 0 0 1 0.1,-0.23 z"
       style="fill:#263238"
       id="path4703"
       inkscape:connector-curvature="0" />
    <path
       d="m 627,342.14 a 7.89,7.89 0 0 1 0.41,-1.29 c 0.3,-0.81 0.75,-2 1.36,-3.41 a 32.09,32.09 0 0 1 6.48,-10.24 19.17,19.17 0 0 1 5.51,-3.84 21.83,21.83 0 0 1 5.22,-1.67 21.17,21.17 0 0 1 3.66,-0.38 5.53,5.53 0 0 1 1.35,0.07 46.91,46.91 0 0 0 -4.94,0.67 21.09,21.09 0 0 0 -10.44,5.52 34.22,34.22 0 0 0 -6.5,10 l -1.51,3.34 a 6.09,6.09 0 0 1 -0.6,1.23 z"
       style="fill:#263238"
       id="path4705"
       inkscape:connector-curvature="0" />
    <path
       d="m 577.2,354 a 17.9,17.9 0 0 1 -0.27,-3.06 c -0.1,-1.89 -0.21,-4.5 -0.22,-7.4 a 69.78,69.78 0 0 1 0.3,-7.41 12.37,12.37 0 0 1 0.5,-3 29.36,29.36 0 0 1 -0.14,3.06 c -0.1,1.88 -0.15,4.49 -0.14,7.38 0.01,2.89 0,5.34 0.06,7.39 A 18.25,18.25 0 0 1 577.2,354 Z"
       style="fill:#5b342f"
       id="path4707"
       inkscape:connector-curvature="0" />
    <path
       d="m 582.67,334.65 a 14.1,14.1 0 0 1 0.16,2.5 c 0,1.54 0.11,3.67 0.23,6 0.12,2.33 0.27,4.47 0.39,6 a 13.89,13.89 0 0 1 0.1,2.5 10.91,10.91 0 0 1 -0.47,-2.46 c -0.21,-1.54 -0.42,-3.66 -0.54,-6 -0.12,-2.34 -0.13,-4.5 -0.08,-6.05 a 11.18,11.18 0 0 1 0.21,-2.49 z"
       style="fill:#5b342f"
       id="path4709"
       inkscape:connector-curvature="0" />
    <path
       d="m 210.51,218.81 c -1.33,-8.9 -3.54,-18.63 -9.41,-25.45 a 56,56 0 0 0 -13.95,-12.05 c -5.94,-3.59 -11.18,-4.77 -17.55,-5.45 l -4.18,3.71 c 13.37,3.23 25,12.52 31.83,24.45 6.83,11.93 9,26.33 6.75,39.91 -1.45,8.88 -4.68,17.37 -7.14,26 -2.46,8.63 -4.15,17.82 -2.44,26.66 7.34,-2.85 5.27,2 8.37,-5.27 3.1,-7.27 4.71,-23.2 6.51,-30.88 2.97,-12.62 3.05,-29.44 1.21,-41.63 z"
       style="fill:#ff725e"
       id="path4711"
       inkscape:connector-curvature="0" />
    <path
       d="m 203.31,199 c -11.26,-17.51 -37.56,-22.91 -37.56,-22.91 -38.5,-2.75 -45.38,26.83 -49.27,53.78 C 114.07,246.61 123,299 123,299 l 9.43,3.41 h 62 c 0,-1.13 4.39,-10.61 5.47,-13.7 5.6,-28.08 10.04,-79.42 3.41,-89.71 z"
       style="fill:#263238"
       id="path4713"
       inkscape:connector-curvature="0" />
    <polygon
       points=""
       style="fill:#263238"
       id="polygon4715" />
    <path
       d="m 171.23,186.12 -2.41,-2.3 -26,10.49 a 7.26,7.26 0 0 0 -6.86,7 l 0.23,84.81 c 0,5.75 1.11,10.73 4.59,15.31 l 3.65,4.83 c 8.34,11 25.49,10.1 32.08,-2 a 8.92,8.92 0 0 0 0.93,-2.19 18.21,18.21 0 0 0 0.38,-1.9 c 0.78,-6.82 0.82,-12.74 0.82,-12.74 0.47,-7.49 0.62,-10.56 0.62,-10.49 0,0.07 15.94,-1.83 20.25,-22.3 2.15,-10.18 1.74,-24.18 1.14,-38 -0.86,-19.02 -14.09,-30.54 -29.42,-30.52 z"
       style="fill:#ffbf9d"
       id="path4717"
       inkscape:connector-curvature="0" />
    <path
       d="m 166.52,229.41 a 2.65,2.65 0 0 1 -2.69,2.54 2.53,2.53 0 0 1 -2.6,-2.52 2.66,2.66 0 0 1 2.68,-2.55 2.55,2.55 0 0 1 2.61,2.53 z"
       style="fill:#263238"
       id="path4719"
       inkscape:connector-curvature="0" />
    <path
       d="m 192.74,230.3 a 2.65,2.65 0 0 1 -2.68,2.54 2.54,2.54 0 0 1 -2.61,-2.52 2.66,2.66 0 0 1 2.68,-2.55 2.55,2.55 0 0 1 2.61,2.53 z"
       style="fill:#263238"
       id="path4721"
       inkscape:connector-curvature="0" />
    <path
       d="m 197.9,222.14 c -0.35,0.33 -2.28,-1.25 -5.13,-1.39 -2.85,-0.14 -5,1.19 -5.29,0.82 -0.15,-0.16 0.22,-0.77 1.16,-1.38 a 7.28,7.28 0 0 1 4.26,-1.09 7,7 0 0 1 4.06,1.54 c 0.84,0.72 1.11,1.36 0.94,1.5 z"
       style="fill:#263238"
       id="path4723"
       inkscape:connector-curvature="0" />
    <path
       d="m 169,222.44 c -0.38,0.29 -2.14,-1.49 -5,-1.91 -2.86,-0.42 -5.1,0.66 -5.35,0.27 -0.13,-0.18 0.3,-0.74 1.3,-1.26 a 7.23,7.23 0 0 1 4.35,-0.64 7,7 0 0 1 3.88,1.95 c 0.82,0.79 1.01,1.46 0.82,1.59 z"
       style="fill:#263238"
       id="path4725"
       inkscape:connector-curvature="0" />
    <path
       d="m 179,243.16 c 0,-0.16 1.78,-0.38 4.67,-0.6 0.73,0 1.42,-0.15 1.57,-0.64 a 3.69,3.69 0 0 0 -0.38,-2.18 q -0.88,-2.69 -1.87,-5.64 c -2.59,-8 -4.43,-14.62 -4.1,-14.72 0.33,-0.1 2.69,6.32 5.28,14.35 q 0.93,3 1.78,5.67 a 4.23,4.23 0 0 1 0.23,2.88 1.83,1.83 0 0 1 -1.25,1 4.7,4.7 0 0 1 -1.24,0.11 c -2.94,0.01 -4.69,-0.07 -4.69,-0.23 z"
       style="fill:#263238"
       id="path4727"
       inkscape:connector-curvature="0" />
    <path
       d="M 179.23,277 A 52.53,52.53 0 0 1 152,268.19 c 0,0 6.23,14.63 27,13.74 z"
       style="fill:#ff9a6c"
       id="path4729"
       inkscape:connector-curvature="0" />
    <path
       d="m 177.4,250 a 5.11,5.11 0 0 0 -4.5,-2.13 4.68,4.68 0 0 0 -3.32,1.57 3,3 0 0 0 -0.4,3.38 3.45,3.45 0 0 0 3.69,1.13 10.79,10.79 0 0 0 3.75,-2 3.09,3.09 0 0 0 0.85,-0.8 1,1 0 0 0 0.05,-1.06"
       style="fill:#ff9a6c"
       id="path4731"
       inkscape:connector-curvature="0" />
    <path
       d="m 170.47,244.71 c 0.47,0 0.32,3.09 2.86,5.41 2.54,2.32 5.84,2.15 5.84,2.59 0,0.19 -0.76,0.56 -2.16,0.53 a 7.7,7.7 0 0 1 -4.88,-2 6.76,6.76 0 0 1 -2.2,-4.53 c -0.05,-1.28 0.33,-2.03 0.54,-2 z"
       style="fill:#263238"
       id="path4733"
       inkscape:connector-curvature="0" />
    <path
       d="m 171.73,211.34 c -0.39,0.72 -3.15,-0.07 -6.52,-0.18 -3.37,-0.11 -6.18,0.38 -6.51,-0.37 -0.15,-0.36 0.43,-1 1.62,-1.59 a 11.39,11.39 0 0 1 9.93,0.42 c 1.14,0.68 1.66,1.38 1.48,1.72 z"
       style="fill:#263238"
       id="path4735"
       inkscape:connector-curvature="0" />
    <path
       d="m 197.49,209.91 c -0.54,0.62 -2.46,-0.15 -4.82,-0.3 -2.36,-0.15 -4.38,0.22 -4.8,-0.48 -0.19,-0.34 0.16,-1 1.06,-1.54 a 7,7 0 0 1 7.75,0.63 c 0.8,0.71 1.04,1.39 0.81,1.69 z"
       style="fill:#263238"
       id="path4737"
       inkscape:connector-curvature="0" />
    <path
       d="m 136.45,237.54 c 0,0 14.58,4.54 22.83,-31.45 2.82,-12.3 14.23,-22.27 14.23,-22.27 l -4.63,-1.39 c 0,0 -28.75,8.1 -29.24,8.46 -0.49,0.36 -7.25,14.87 -7.25,14.87 z"
       style="fill:#263238"
       id="path4739"
       inkscape:connector-curvature="0" />
    <path
       d="m 140,236.2 c 0.07,-1.54 -1.52,-5.25 -3,-5.56 -4,-0.83 -11.34,-0.88 -11.92,9.41 -0.8,14.06 13.48,12 13.53,11.56 0.05,-0.44 1.18,-10.1 1.39,-15.41 z"
       style="fill:#ffbf9d"
       id="path4741"
       inkscape:connector-curvature="0" />
    <path
       d="m 134.63,246 c -0.06,0 -0.26,0.16 -0.68,0.32 a 2.48,2.48 0 0 1 -1.83,-0.06 c -1.46,-0.63 -2.57,-3.06 -2.5,-5.6 a 8,8 0 0 1 0.89,-3.47 2.82,2.82 0 0 1 1.94,-1.77 1.24,1.24 0 0 1 1.41,0.75 c 0.17,0.4 0.06,0.68 0.14,0.71 0.08,0.03 0.31,-0.22 0.23,-0.81 a 1.58,1.58 0 0 0 -0.5,-0.91 1.9,1.9 0 0 0 -1.34,-0.44 3.46,3.46 0 0 0 -2.68,2 8.32,8.32 0 0 0 -1.07,3.87 c -0.07,2.84 1.23,5.57 3.23,6.28 a 2.63,2.63 0 0 0 2.26,-0.25 c 0.45,-0.24 0.55,-0.55 0.5,-0.62 z"
       style="fill:#ff9a6c"
       id="path4743"
       inkscape:connector-curvature="0" />
    <path
       d="m 146.34,230.66 c 0,0 0.77,0 2.1,-0.43 a 12.62,12.62 0 0 0 5,-2.9 17.44,17.44 0 0 0 2.61,-3.06 24,24 0 0 0 2.13,-4.11 90,90 0 0 0 3,-10.23 104.49,104.49 0 0 1 3.23,-10.21 59.56,59.56 0 0 1 3.66,-7.94 44.16,44.16 0 0 1 3.22,-4.94 c 0.42,-0.56 0.78,-1 1,-1.25 a 2.77,2.77 0 0 1 0.38,-0.41 4.46,4.46 0 0 1 -0.32,0.46 c -0.21,0.3 -0.55,0.71 -1,1.28 a 48.57,48.57 0 0 0 -3.11,5 62.52,62.52 0 0 0 -3.57,7.93 c -1.15,3.08 -2.21,6.53 -3.19,10.19 a 87.39,87.39 0 0 1 -3.07,10.26 23.51,23.51 0 0 1 -2.19,4.15 17.22,17.22 0 0 1 -2.69,3.08 12.36,12.36 0 0 1 -5.15,2.85 7.76,7.76 0 0 1 -2.04,0.28 z"
       style="fill:#263238"
       id="path4745"
       inkscape:connector-curvature="0" />
    <path
       d="m 124.57,289.3 a 34.48,34.48 0 0 0 0.31,-4.91 76.54,76.54 0 0 0 -1.36,-13.39 l -1.64,-9.12 a 87.21,87.21 0 0 1 -1.26,-10.54 43,43 0 0 1 0.85,-11.64 29.27,29.27 0 0 1 2,-5.83 27.84,27.84 0 0 1 3.33,-5.41 66.07,66.07 0 0 1 8.85,-8.92 c 3.08,-2.66 6,-5.28 8.66,-8 a 108.91,108.91 0 0 0 12.64,-15.38 105.36,105.36 0 0 0 6.85,-11.55 c 0.72,-1.41 1.26,-2.52 1.6,-3.28 q 0.24,-0.55 0.39,-0.87 a 1,1 0 0 0 0.12,-0.3 l -0.16,0.29 -0.42,0.84 c -0.37,0.75 -0.92,1.85 -1.66,3.25 A 112.61,112.61 0 0 1 144,211.35 c -2.62,2.67 -5.56,5.27 -8.65,7.94 a 65.65,65.65 0 0 0 -8.91,9 28.35,28.35 0 0 0 -3.37,5.48 30.36,30.36 0 0 0 -2,5.92 43.39,43.39 0 0 0 -0.84,11.74 87,87 0 0 0 1.3,10.57 c 0.61,3.28 1.17,6.33 1.69,9.12 a 78.45,78.45 0 0 1 1.48,13.31 c 0,1.58 0,2.81 -0.09,3.64 0,0.4 0,0.72 -0.06,1 -0.06,0.28 0.02,0.23 0.02,0.23 z"
       style="fill:#455a64"
       id="path4747"
       inkscape:connector-curvature="0" />
    <path
       d="m 120.05,290.62 a 34.48,34.48 0 0 0 0.31,-4.91 75.84,75.84 0 0 0 -1.36,-13.36 c -0.5,-2.79 -1,-5.84 -1.63,-9.12 a 85,85 0 0 1 -1.26,-10.54 42.53,42.53 0 0 1 0.85,-11.63 29.11,29.11 0 0 1 2,-5.84 28.45,28.45 0 0 1 3.33,-5.41 65.48,65.48 0 0 1 8.86,-8.91 c 3.08,-2.67 6,-5.29 8.65,-8 a 109.75,109.75 0 0 0 12.65,-15.38 106,106 0 0 0 6.81,-11.52 c 0.72,-1.41 1.25,-2.52 1.59,-3.28 0.17,-0.37 0.3,-0.65 0.39,-0.87 a 2.55,2.55 0 0 0 0.13,-0.3 2.18,2.18 0 0 0 -0.16,0.29 c -0.11,0.2 -0.25,0.49 -0.43,0.85 -0.36,0.75 -0.92,1.84 -1.66,3.24 a 112.35,112.35 0 0 1 -19.61,26.75 c -2.62,2.67 -5.57,5.27 -8.65,7.94 a 64.07,64.07 0 0 0 -8.91,9 28.52,28.52 0 0 0 -3.38,5.47 29.67,29.67 0 0 0 -2,5.92 43,43 0 0 0 -0.84,11.74 87,87 0 0 0 1.3,10.57 c 0.6,3.28 1.17,6.33 1.68,9.12 a 79.72,79.72 0 0 1 1.49,13.31 c 0,1.58 0,2.81 -0.09,3.64 l -0.06,0.95 a 1.11,1.11 0 0 0 0,0.28 z"
       style="fill:#455a64"
       id="path4749"
       inkscape:connector-curvature="0" />
    <path
       d="m 99.71,474.49 c 0,0 -1.31,-11.71 6.18,-31.26 6.13,-16 13.33,-24.87 13.33,-24.87 l 97,-6.39 7.48,62.52 z"
       style="fill:#263238"
       id="path4751"
       inkscape:connector-curvature="0" />
    <path
       d="m 215.08,375.61 c 1.42,-21.59 0,-54.32 0,-54.32 l -16,-26.87 -21.08,-3.31 c 0,0 -0.06,14.76 -11.09,17.2 -18.87,4.17 -31.17,-18.52 -31.17,-18.52 -1.78,0 -28.62,5.64 -37.13,13.74 -8.74,8.32 -23.21,30.38 -27.29,36.71 v 0 c 0,0 -28.32,41.28 -32.44,52.6 a 20.55,20.55 0 0 0 1.38,17.82 c 0.86,2.55 27,40.07 47.27,55.06 l 1.58,-3 10.51,-18 L 72.4,400 104,366.7 l 6.21,-5.83 1.78,7.85 7.66,36.92 c 0,0 -15.26,30.51 -17.4,46.37 0,0 75,25.86 121.33,13.09 -0.02,0 -9.93,-67.89 -8.5,-89.49 z"
       style="fill:#ebebeb"
       id="path4753"
       inkscape:connector-curvature="0" />
    <path
       d="m 136.17,436.61 c 0,0 -12.7,-3.43 -14,-2.71 -1.3,0.72 -10.76,5.72 -10.76,5.72 a 49.24,49.24 0 0 1 -4.47,4.85 c 0,0 -3.26,3.09 -5.5,3.19 a 10.07,10.07 0 0 1 -3.57,-0.38 l -8.78,15.45 c 0,0 5.21,5 8,4.91 2.79,-0.09 18,-6.48 18,-6.48 l 3.7,-0.8 c 0,0 13.88,2 15,-2.17 L 134,457 l -13.64,-2.67 -5.19,0.3 9.19,-2.37 c 0,0 13,0.63 14.23,0.42 1.23,-0.21 2.78,-1.94 2.38,-3 l -2.68,-0.63 c 0,0 3.15,-1.72 3.25,-3.6 l -12,-3.25 c 0,0 7.71,-2.9 6.63,-5.59 z"
       style="fill:#ffbf9d"
       id="path4755"
       inkscape:connector-curvature="0" />
    <path
       d="m 139.7,449 a 4.69,4.69 0 0 1 -1.11,-0.27 c -0.7,-0.21 -1.71,-0.49 -3,-0.82 -2.53,-0.65 -6,-1.48 -9.92,-2.34 a 13.49,13.49 0 0 0 -1.41,-0.28 4.55,4.55 0 0 0 -1.33,0.1 c -0.87,0.24 -1.75,0.54 -2.56,0.81 -1.62,0.55 -3.07,1.11 -4.26,1.62 -1.19,0.51 -2.13,1 -2.76,1.35 a 6.26,6.26 0 0 1 -1,0.54 3.84,3.84 0 0 1 0.88,-0.73 22.69,22.69 0 0 1 2.71,-1.52 44.59,44.59 0 0 1 4.26,-1.75 c 0.83,-0.3 1.66,-0.6 2.6,-0.86 a 4.78,4.78 0 0 1 1.51,-0.12 c 0.53,0 1,0.19 1.49,0.28 3.89,0.87 7.39,1.76 9.89,2.52 1.26,0.38 2.26,0.72 2.94,1 a 4,4 0 0 1 1.07,0.47 z"
       style="fill:#ff9a6c"
       id="path4757"
       inkscape:connector-curvature="0" />
    <path
       d="m 129.8,442.78 c -0.05,0.08 -1,-0.45 -2.56,-0.94 a 14.38,14.38 0 0 0 -12.43,1.84 c -1.39,0.93 -2.11,1.7 -2.18,1.63 a 6.86,6.86 0 0 1 2,-2 13.47,13.47 0 0 1 12.79,-1.89 7,7 0 0 1 2.38,1.36 z"
       style="fill:#ff9a6c"
       id="path4759"
       inkscape:connector-curvature="0" />
    <polygon
       points="212.27,297.19 198.61,294.42 204.41,352.13 217.24,352.13 272.43,376.12 340.04,381.86 341.03,360.9 280.25,346.21 230.75,309.36 "
       style="fill:#ebebeb"
       id="polygon4761" />
    <path
       d="m 216,400.91 a 6,6 0 0 1 -0.08,-0.86 c 0,-0.61 -0.06,-1.42 -0.1,-2.45 -0.08,-2.14 -0.17,-5.23 -0.24,-9 -0.07,-3.77 -0.12,-8.37 -0.13,-13.41 -0.01,-5.04 0,-10.6 0,-16.42 0,-11.65 -2.21,-22 -3.95,-29.45 -0.87,-3.71 -1.63,-6.7 -2.14,-8.77 -0.25,-1 -0.44,-1.8 -0.59,-2.39 a 5.31,5.31 0 0 1 -0.16,-0.84 5.77,5.77 0 0 1 0.27,0.81 c 0.16,0.59 0.39,1.37 0.67,2.36 0.57,2.06 1.39,5 2.31,8.75 a 123.74,123.74 0 0 1 4.11,29.52 c 0.09,5.83 0,11.38 0,16.43 0,5.05 0,9.59 0,13.4 0,3.81 0,6.86 0.07,9 0,1 0,1.85 0,2.46 a 4.78,4.78 0 0 1 -0.04,0.86 z"
       style="fill:#263238"
       id="path4763"
       inkscape:connector-curvature="0" />
    <g
       style="opacity:0.3"
       id="g4767">
      <path
         d="M 215.66,353.22 A 46.07,46.07 0 0 0 205,310.14 a 150.39,150.39 0 0 1 10.76,42.22"
         id="path4765"
         inkscape:connector-curvature="0" />
    </g>
    <path
       d="m 174.85,176.53 c -31,2.78 -32.21,40.67 -36.33,70.56 -5.89,42.7 25.35,51.87 25.35,51.87 l -38.81,-7.28 c 0,0 -21.23,-8.59 -21.08,-32.16 0.15,-23.57 3.86,-52.42 28.57,-74.34 21.34,-18.94 40.35,-9.94 42.3,-8.65 z"
       style="fill:#ff725e"
       id="path4769"
       inkscape:connector-curvature="0" />
    <path
       d="m 205,289.79 c -2.34,-2.12 -1.43,-2.93 -8.13,-3.54 -7.57,-0.7 -16,4.14 -23.55,5.15 -7.55,1.01 -15.58,0 -21.9,-4.22 C 144,282.24 140,273.72 136.3,265.62 l -18.2,15 a 14.7,14.7 0 0 0 -5.47,11.84 5,5 0 0 0 0.44,2.25 c 1.06,1.6 8.87,-2.18 10.44,-1.08 8.34,5.83 11.89,15.09 19.53,21.82 8.93,7.85 17.19,14.09 23.48,13.87 6.29,-0.22 17.9,-6.87 22.06,-14.59 3.85,-7.13 7.21,-12.33 10.24,-17.77 1.59,-2.88 7.14,1.16 7.81,-2.25 A 5.31,5.31 0 0 0 205,289.79 Z"
       style="fill:#ff725e"
       id="path4771"
       inkscape:connector-curvature="0" />
    <path
       d="m 104,334.31 a 3.77,3.77 0 0 1 0.22,0.71 l 0.55,2.06 c 0.46,1.85 1.1,4.43 1.88,7.59 1.55,6.43 3.64,15.32 5.85,25.16 2.21,9.84 4.12,18.77 5.39,25.26 0.63,3.25 1.1,5.88 1.39,7.71 q 0.19,1.31 0.3,2.1 a 3.19,3.19 0 0 1 0.07,0.74 3.94,3.94 0 0 1 -0.17,-0.72 c -0.1,-0.53 -0.23,-1.22 -0.4,-2.09 -0.38,-1.87 -0.9,-4.47 -1.55,-7.67 -1.36,-6.46 -3.33,-15.38 -5.53,-25.22 -2.2,-9.84 -4.24,-18.69 -5.71,-25.18 -0.71,-3.18 -1.3,-5.78 -1.72,-7.64 -0.18,-0.86 -0.33,-1.55 -0.45,-2.08 A 4.31,4.31 0 0 1 104,334.31 Z"
       style="fill:#263238"
       id="path4773"
       inkscape:connector-curvature="0" />
    <path
       d="m 205,293.71 a 0.93,0.93 0 0 1 -0.2,0.13 l -0.62,0.36 a 25.74,25.74 0 0 1 -2.45,1.29 45.24,45.24 0 0 1 -9.65,3.22 76.85,76.85 0 0 1 -15,1.71 c -5.69,0.17 -11.93,-0.12 -18.46,-0.55 -3.27,-0.21 -6.47,-0.53 -9.53,-1 -3.06,-0.47 -6,-1.11 -8.73,-1.81 a 76.76,76.76 0 0 1 -14.17,-5.19 63.11,63.11 0 0 1 -8.78,-5.14 c -1,-0.66 -1.71,-1.27 -2.22,-1.64 l -0.56,-0.45 c -0.13,-0.1 -0.19,-0.16 -0.18,-0.17 l 0.21,0.13 0.6,0.4 c 0.52,0.35 1.25,0.93 2.27,1.56 a 67.49,67.49 0 0 0 8.82,5 80.64,80.64 0 0 0 14.13,5.06 c 2.74,0.68 5.65,1.28 8.69,1.76 3.04,0.48 6.22,0.78 9.48,1 6.53,0.43 12.75,0.73 18.41,0.59 a 78.72,78.72 0 0 0 14.94,-1.62 47.2,47.2 0 0 0 9.63,-3.05 c 1.12,-0.44 1.91,-0.93 2.49,-1.19 l 0.64,-0.31 a 0.76,0.76 0 0 1 0.24,-0.09 z"
       style="fill:#263238"
       id="path4775"
       inkscape:connector-curvature="0" />
    <path
       d="m 145.55,297.77 -0.19,-0.12 -0.55,-0.4 -2.09,-1.56 c -0.9,-0.69 -2,-1.59 -3.21,-2.6 -0.62,-0.51 -1.25,-1.1 -1.94,-1.7 -0.69,-0.6 -1.39,-1.25 -2.11,-2 a 55.84,55.84 0 0 1 -9,-11 34.19,34.19 0 0 1 -5.06,-16.57 59.38,59.38 0 0 1 2.37,-17.26 c 1.37,-5.18 2.86,-9.76 4.07,-13.63 1.21,-3.87 2.15,-6.94 2.84,-9.14 0.31,-1.05 0.56,-1.89 0.75,-2.5 0.08,-0.26 0.15,-0.47 0.21,-0.64 a 0.73,0.73 0 0 1 0.09,-0.22 c 0,0 0,0.08 0,0.23 l -0.16,0.66 -0.66,2.52 c -0.6,2.18 -1.51,5.33 -2.68,9.2 -1.17,3.87 -2.62,8.47 -4,13.64 a 60.56,60.56 0 0 0 -2.31,17.11 34,34 0 0 0 5,16.36 57.58,57.58 0 0 0 8.88,11 c 0.71,0.72 1.41,1.38 2.09,2 0.68,0.62 1.29,1.21 1.9,1.73 1.23,1 2.26,1.95 3.15,2.66 l 2,1.64 0.52,0.44 c 0.04,0.09 0.1,0.14 0.09,0.15 z"
       style="fill:#263238"
       id="path4777"
       inkscape:connector-curvature="0" />
    <path
       d="m 174.85,176.53 c 0,0.11 -1.61,0.19 -4.1,0.91 a 28.16,28.16 0 0 0 -4.24,1.63 39.82,39.82 0 0 0 -4.79,2.83 56.92,56.92 0 0 0 -7.7,6.59 c -1.82,1.86 -2.89,3.07 -3,3 a 5,5 0 0 1 0.66,-0.93 c 0.45,-0.57 1.14,-1.38 2,-2.34 a 47.89,47.89 0 0 1 7.66,-6.77 35.78,35.78 0 0 1 4.89,-2.83 24.24,24.24 0 0 1 4.34,-1.55 14,14 0 0 1 1.74,-0.37 8.19,8.19 0 0 1 1.33,-0.16 5.39,5.39 0 0 1 1.21,-0.01 z"
       style="fill:#263238"
       id="path4779"
       inkscape:connector-curvature="0" />
    <g
       style="opacity:0.3"
       id="g4783">
      <path
         d="m 135.23,208.91 a 24.14,24.14 0 0 0 0.59,-2.86 1.56,1.56 0 0 0 -3,-0.72 q -3.08,8.14 -6.14,16.28 c -4,10.73 -8.15,21.73 -8.36,33.19 -0.21,11.46 3.45,24.22 13.14,30.35 l -2.82,-5 c -7.31,-10 -7.51,-23.68 -4.72,-35.77 2.79,-12.09 8.21,-23.45 11.31,-35.47 z"
         id="path4781"
         inkscape:connector-curvature="0" />
    </g>
    <path
       d="m 205.59,296.46 c -0.05,0 0.24,-0.46 0.46,-1.33 a 6.15,6.15 0 0 0 -0.33,-3.7 7.31,7.31 0 0 0 -3.83,-3.85 13,13 0 0 0 -6.73,-1 52.7,52.7 0 0 0 -6.87,1.18 c -2.1,0.48 -4,1 -5.53,1.47 -1.53,0.47 -2.8,0.89 -3.67,1.18 a 9.67,9.67 0 0 1 -1.35,0.42 6.36,6.36 0 0 1 1.28,-0.61 c 0.85,-0.35 2.08,-0.82 3.63,-1.34 1.55,-0.52 3.42,-1.08 5.53,-1.59 a 47.68,47.68 0 0 1 6.94,-1.23 13.38,13.38 0 0 1 7,1.09 7.67,7.67 0 0 1 4,4.16 6.11,6.11 0 0 1 0.17,3.88 4.28,4.28 0 0 1 -0.43,1 1.24,1.24 0 0 1 -0.27,0.27 z"
       style="fill:#263238"
       id="path4785"
       inkscape:connector-curvature="0" />
    <g
       style="opacity:0.3"
       id="g4789">
      <path
         d="m 195.28,298.28 a 71.32,71.32 0 0 1 -38,5.57 c -12.86,-1.67 -23.58,-5.4 -33.68,-13.53 0,0 16.11,9.3 41.12,9.5 20.75,0.18 30.56,-1.54 30.56,-1.54 z"
         id="path4787"
         inkscape:connector-curvature="0" />
    </g>
  </g>
</svg>
