<?xml version="1.0" encoding="UTF-8" standalone="no"?>
<svg
   xmlns:dc="http://purl.org/dc/elements/1.1/"
   xmlns:cc="http://creativecommons.org/ns#"
   xmlns:rdf="http://www.w3.org/1999/02/22-rdf-syntax-ns#"
   xmlns:svg="http://www.w3.org/2000/svg"
   xmlns="http://www.w3.org/2000/svg"
   xmlns:sodipodi="http://sodipodi.sourceforge.net/DTD/sodipodi-0.dtd"
   xmlns:inkscape="http://www.inkscape.org/namespaces/inkscape"
   id="a3f4169a-5e5e-4255-abcc-1b8759c50498"
   data-name="Layer 1"
   width="1042.03903"
   height="709.08851"
   viewBox="0 0 1042.03903 709.08851"
   version="1.1"
   sodipodi:docname="secret.svg"
   inkscape:version="0.92.5 (2060ec1f9f, 2020-04-08)">
  <metadata
     id="metadata1409">
    <rdf:RDF>
      <cc:Work
         rdf:about="">
        <dc:format>image/svg+xml</dc:format>
        <dc:type
           rdf:resource="http://purl.org/dc/dcmitype/StillImage" />
      </cc:Work>
    </rdf:RDF>
  </metadata>
  <defs
     id="defs1407" />
  <sodipodi:namedview
     pagecolor="#ffffff"
     bordercolor="#666666"
     borderopacity="1"
     objecttolerance="10"
     gridtolerance="10"
     guidetolerance="10"
     inkscape:pageopacity="0"
     inkscape:pageshadow="2"
     inkscape:window-width="1848"
     inkscape:window-height="1016"
     id="namedview1405"
     showgrid="false"
     inkscape:zoom="1.1817989"
     inkscape:cx="521.01953"
     inkscape:cy="456.08437"
     inkscape:window-x="72"
     inkscape:window-y="27"
     inkscape:window-maximized="1"
     inkscape:current-layer="a3f4169a-5e5e-4255-abcc-1b8759c50498" />
  <title
     id="title720">hacker_mind</title>
  <rect
     width="656.25"
     height="353.00928"
     id="rect722"
     x="84.900574"
     y="20.604576"
     style="fill:#3f3d56;stroke-width:0.75" />
  <rect
     x="203.53484"
     y="70.373116"
     width="5.7870378"
     height="9.2592602"
     id="rect724"
     style="fill:#6c63ff;stroke-width:0.75" />
  <rect
     x="223.21075"
     y="68.058304"
     width="5.7870378"
     height="9.2592602"
     id="rect726"
     style="fill:#6c63ff;stroke-width:0.75" />
  <rect
     x="233.62741"
     y="68.058304"
     width="5.7870378"
     height="9.2592602"
     id="rect728"
     style="fill:#6c63ff;stroke-width:0.75" />
  <rect
     x="233.62741"
     y="95.836075"
     width="5.7870378"
     height="9.2592602"
     id="rect730"
     style="fill:#6c63ff;stroke-width:0.75" />
  <rect
     x="245.20151"
     y="81.947197"
     width="5.7870378"
     height="9.2592602"
     id="rect732"
     style="fill:#6c63ff;stroke-width:0.75" />
  <rect
     x="245.20151"
     y="96.993492"
     width="5.7870378"
     height="9.2592602"
     id="rect734"
     style="fill:#6c63ff;stroke-width:0.75" />
  <rect
     x="233.62741"
     y="125.92868"
     width="5.7870378"
     height="9.2592602"
     id="rect736"
     style="fill:#6c63ff;stroke-width:0.75" />
  <rect
     x="245.20151"
     y="140.97498"
     width="5.7870378"
     height="9.2592602"
     id="rect738"
     style="fill:#6c63ff;stroke-width:0.75" />
  <rect
     x="233.62741"
     y="197.68793"
     width="5.7870378"
     height="9.2592602"
     id="rect740"
     style="fill:#6c63ff;stroke-width:0.75" />
  <rect
     x="223.21075"
     y="140.97498"
     width="5.7870378"
     height="9.2592602"
     id="rect742"
     style="fill:#6c63ff;stroke-width:0.75" />
  <rect
     x="203.53484"
     y="85.419411"
     width="5.7870378"
     height="9.2592602"
     id="rect744"
     style="fill:#6c63ff;stroke-width:0.75" />
  <rect
     x="203.53484"
     y="230.09534"
     width="5.7870378"
     height="9.2592602"
     id="rect746"
     style="fill:#6c63ff;stroke-width:0.75" />
  <rect
     x="203.53484"
     y="260.18793"
     width="5.7870378"
     height="9.2592602"
     id="rect748"
     style="fill:#6c63ff;stroke-width:0.75" />
  <rect
     x="203.53484"
     y="275.23422"
     width="5.7870378"
     height="9.2592602"
     id="rect750"
     style="fill:#6c63ff;stroke-width:0.75" />
  <rect
     x="201.22002"
     y="101.62312"
     width="8.1018524"
     height="1.1574075"
     id="rect752"
     style="fill:#6c63ff;stroke-width:0.75" />
  <rect
     x="232.47"
     y="115.51201"
     width="8.1018524"
     height="1.1574075"
     id="rect754"
     style="fill:#6c63ff;stroke-width:0.75" />
  <rect
     x="201.22002"
     y="175.69719"
     width="8.1018524"
     height="1.1574075"
     id="rect756"
     style="fill:#6c63ff;stroke-width:0.75" />
  <rect
     x="201.22002"
     y="188.42868"
     width="8.1018524"
     height="1.1574075"
     id="rect758"
     style="fill:#6c63ff;stroke-width:0.75" />
  <rect
     x="232.47"
     y="262.50275"
     width="8.1018524"
     height="1.1574075"
     id="rect760"
     style="fill:#6c63ff;stroke-width:0.75" />
  <rect
     x="223.21075"
     y="290.28052"
     width="8.1018524"
     height="1.1574075"
     id="rect762"
     style="fill:#6c63ff;stroke-width:0.75" />
  <polygon
     points="158.179,121.914 158.179,125 161.265,125 161.265,131.173 158.179,131.173 158.179,134.259 165.895,134.259 165.895,121.914 "
     id="polygon764"
     transform="matrix(0.75,0,0,0.75,84.90053,20.604569)"
     style="fill:#6c63ff" />
  <polygon
     points="184.414,100.309 184.414,103.395 187.5,103.395 187.5,109.568 184.414,109.568 184.414,112.654 192.13,112.654 192.13,100.309 "
     id="polygon766"
     transform="matrix(0.75,0,0,0.75,84.90053,20.604569)"
     style="fill:#6c63ff" />
  <polygon
     points="213.735,120.37 213.735,123.457 216.821,123.457 216.821,129.63 213.735,129.63 213.735,132.716 221.451,132.716 221.451,120.37 "
     id="polygon768"
     transform="matrix(0.75,0,0,0.75,84.90053,20.604569)"
     style="fill:#6c63ff" />
  <polygon
     points="213.735,180.556 213.735,183.642 216.821,183.642 216.821,189.815 213.735,189.815 213.735,192.901 221.451,192.901 221.451,180.556 "
     id="polygon770"
     transform="matrix(0.75,0,0,0.75,84.90053,20.604569)"
     style="fill:#6c63ff" />
  <polygon
     points="213.735,200.617 213.735,203.704 216.821,203.704 216.821,209.877 213.735,209.877 213.735,212.963 221.451,212.963 221.451,200.617 "
     id="polygon772"
     transform="matrix(0.75,0,0,0.75,84.90053,20.604569)"
     style="fill:#6c63ff" />
  <polygon
     points="213.735,138.889 213.735,141.975 216.821,141.975 216.821,148.148 213.735,148.148 213.735,151.235 221.451,151.235 221.451,138.889 "
     id="polygon774"
     transform="matrix(0.75,0,0,0.75,84.90053,20.604569)"
     style="fill:#6c63ff" />
  <polygon
     points="198.302,81.79 198.302,84.877 201.389,84.877 201.389,91.049 198.302,91.049 198.302,94.136 206.019,94.136 206.019,81.79 "
     id="polygon776"
     transform="matrix(0.75,0,0,0.75,84.90053,20.604569)"
     style="fill:#6c63ff" />
  <rect
     x="233.62741"
     y="156.02127"
     width="5.7870378"
     height="9.2592602"
     id="rect778"
     style="fill:#6c63ff;stroke-width:0.75" />
  <rect
     x="233.62741"
     y="183.79904"
     width="5.7870378"
     height="9.2592602"
     id="rect780"
     style="fill:#6c63ff;stroke-width:0.75" />
  <polygon
     points="198.302,199.074 198.302,202.16 201.389,202.16 201.389,208.333 198.302,208.333 198.302,211.42 206.019,211.42 206.019,199.074 "
     id="polygon782"
     transform="matrix(0.75,0,0,0.75,84.90053,20.604569)"
     style="fill:#6c63ff" />
  <polygon
     points="184.414,120.37 184.414,123.457 187.5,123.457 187.5,129.63 184.414,129.63 184.414,132.716 192.13,132.716 192.13,120.37 "
     id="polygon784"
     transform="matrix(0.75,0,0,0.75,84.90053,20.604569)"
     style="fill:#6c63ff" />
  <polygon
     points="184.414,140.432 184.414,143.519 187.5,143.519 187.5,149.691 184.414,149.691 184.414,152.778 192.13,152.778 192.13,140.432 "
     id="polygon786"
     transform="matrix(0.75,0,0,0.75,84.90053,20.604569)"
     style="fill:#6c63ff" />
  <rect
     x="223.21075"
     y="171.06757"
     width="5.7870378"
     height="9.2592602"
     id="rect788"
     style="fill:#6c63ff;stroke-width:0.75" />
  <polygon
     points="184.414,180.556 184.414,183.642 187.5,183.642 187.5,189.815 184.414,189.815 184.414,192.901 192.13,192.901 192.13,180.556 "
     id="polygon790"
     transform="matrix(0.75,0,0,0.75,84.90053,20.604569)"
     style="fill:#6c63ff" />
  <rect
     x="223.21075"
     y="201.16016"
     width="5.7870378"
     height="9.2592602"
     id="rect792"
     style="fill:#6c63ff;stroke-width:0.75" />
  <polygon
     points="184.414,220.679 184.414,223.765 187.5,223.765 187.5,229.938 184.414,229.938 184.414,233.025 192.13,233.025 192.13,220.679 "
     id="polygon794"
     transform="matrix(0.75,0,0,0.75,84.90053,20.604569)"
     style="fill:#6c63ff" />
  <rect
     x="223.21075"
     y="231.25275"
     width="5.7870378"
     height="9.2592602"
     id="rect796"
     style="fill:#6c63ff;stroke-width:0.75" />
  <rect
     x="233.62741"
     y="228.93793"
     width="5.7870378"
     height="9.2592602"
     id="rect798"
     style="fill:#6c63ff;stroke-width:0.75" />
  <polygon
     points="184.414,260.802 184.414,263.889 187.5,263.889 187.5,270.062 184.414,270.062 184.414,273.148 192.13,273.148 192.13,260.802 "
     id="polygon800"
     transform="matrix(0.75,0,0,0.75,84.90053,20.604569)"
     style="fill:#6c63ff" />
  <polygon
     points="213.735,260.802 213.735,263.889 216.821,263.889 216.821,270.062 213.735,270.062 213.735,273.148 221.451,273.148 221.451,260.802 "
     id="polygon802"
     transform="matrix(0.75,0,0,0.75,84.90053,20.604569)"
     style="fill:#6c63ff" />
  <rect
     x="304.22928"
     y="81.947197"
     width="5.7870378"
     height="9.2592602"
     id="rect804"
     style="fill:#6c63ff;stroke-width:0.75" />
  <rect
     x="304.22928"
     y="96.993492"
     width="5.7870378"
     height="9.2592602"
     id="rect806"
     style="fill:#6c63ff;stroke-width:0.75" />
  <rect
     x="304.22928"
     y="140.97498"
     width="5.7870378"
     height="9.2592602"
     id="rect808"
     style="fill:#6c63ff;stroke-width:0.75" />
  <polygon
     points="292.438,120.37 292.438,123.457 295.525,123.457 295.525,129.63 292.438,129.63 292.438,132.716 300.154,132.716 300.154,120.37 "
     id="polygon810"
     transform="matrix(0.75,0,0,0.75,84.90053,20.604569)"
     style="fill:#6c63ff" />
  <polygon
     points="292.438,180.556 292.438,183.642 295.525,183.642 295.525,189.815 292.438,189.815 292.438,192.901 300.154,192.901 300.154,180.556 "
     id="polygon812"
     transform="matrix(0.75,0,0,0.75,84.90053,20.604569)"
     style="fill:#6c63ff" />
  <polygon
     points="292.438,200.617 292.438,203.704 295.525,203.704 295.525,209.877 292.438,209.877 292.438,212.963 300.154,212.963 300.154,200.617 "
     id="polygon814"
     transform="matrix(0.75,0,0,0.75,84.90053,20.604569)"
     style="fill:#6c63ff" />
  <polygon
     points="292.438,138.889 292.438,141.975 295.525,141.975 295.525,148.148 292.438,148.148 292.438,151.235 300.154,151.235 300.154,138.889 "
     id="polygon816"
     transform="matrix(0.75,0,0,0.75,84.90053,20.604569)"
     style="fill:#6c63ff" />
  <polygon
     points="292.438,260.802 292.438,263.889 295.525,263.889 295.525,270.062 292.438,270.062 292.438,273.148 300.154,273.148 300.154,260.802 "
     id="polygon818"
     transform="matrix(0.75,0,0,0.75,84.90053,20.604569)"
     style="fill:#6c63ff" />
  <rect
     x="223.21075"
     y="261.34534"
     width="5.7870378"
     height="9.2592602"
     id="rect820"
     style="fill:#6c63ff;stroke-width:0.75" />
  <rect
     x="233.62741"
     y="243.98422"
     width="5.7870378"
     height="9.2592602"
     id="rect822"
     style="fill:#6c63ff;stroke-width:0.75" />
  <rect
     x="223.21075"
     y="300.6972"
     width="5.7870378"
     height="9.2592602"
     id="rect824"
     style="fill:#6c63ff;stroke-width:0.75" />
  <rect
     x="233.62741"
     y="272.9194"
     width="5.7870378"
     height="9.2592602"
     id="rect826"
     style="fill:#6c63ff;stroke-width:0.75" />
  <polygon
     points="184.414,300.926 184.414,304.012 187.5,304.012 187.5,310.185 184.414,310.185 184.414,313.272 192.13,313.272 192.13,300.926 "
     id="polygon828"
     transform="matrix(0.75,0,0,0.75,84.90053,20.604569)"
     style="fill:#6c63ff" />
  <polygon
     points="184.414,395.062 184.414,398.148 187.5,398.148 187.5,404.321 184.414,404.321 184.414,407.407 192.13,407.407 192.13,395.062 "
     id="polygon830"
     transform="matrix(0.75,0,0,0.75,84.90053,20.604569)"
     style="fill:#6c63ff" />
  <rect
     x="286.86816"
     y="68.058304"
     width="5.7870378"
     height="9.2592602"
     id="rect832"
     style="fill:#6c63ff;stroke-width:0.75" />
  <rect
     x="286.86816"
     y="140.97498"
     width="5.7870378"
     height="9.2592602"
     id="rect834"
     style="fill:#6c63ff;stroke-width:0.75" />
  <rect
     x="286.86816"
     y="290.28052"
     width="8.1018524"
     height="1.1574075"
     id="rect836"
     style="fill:#6c63ff;stroke-width:0.75" />
  <polygon
     points="269.29,100.309 269.29,103.395 272.377,103.395 272.377,109.568 269.29,109.568 269.29,112.654 277.006,112.654 277.006,100.309 "
     id="polygon838"
     transform="matrix(0.75,0,0,0.75,84.90053,20.604569)"
     style="fill:#6c63ff" />
  <polygon
     points="269.29,120.37 269.29,123.457 272.377,123.457 272.377,129.63 269.29,129.63 269.29,132.716 277.006,132.716 277.006,120.37 "
     id="polygon840"
     transform="matrix(0.75,0,0,0.75,84.90053,20.604569)"
     style="fill:#6c63ff" />
  <polygon
     points="269.29,140.432 269.29,143.519 272.377,143.519 272.377,149.691 269.29,149.691 269.29,152.778 277.006,152.778 277.006,140.432 "
     id="polygon842"
     transform="matrix(0.75,0,0,0.75,84.90053,20.604569)"
     style="fill:#6c63ff" />
  <rect
     x="286.86816"
     y="171.06757"
     width="5.7870378"
     height="9.2592602"
     id="rect844"
     style="fill:#6c63ff;stroke-width:0.75" />
  <polygon
     points="269.29,180.556 269.29,183.642 272.377,183.642 272.377,189.815 269.29,189.815 269.29,192.901 277.006,192.901 277.006,180.556 "
     id="polygon846"
     transform="matrix(0.75,0,0,0.75,84.90053,20.604569)"
     style="fill:#6c63ff" />
  <rect
     x="286.86816"
     y="201.16016"
     width="5.7870378"
     height="9.2592602"
     id="rect848"
     style="fill:#6c63ff;stroke-width:0.75" />
  <polygon
     points="269.29,220.679 269.29,223.765 272.377,223.765 272.377,229.938 269.29,229.938 269.29,233.025 277.006,233.025 277.006,220.679 "
     id="polygon850"
     transform="matrix(0.75,0,0,0.75,84.90053,20.604569)"
     style="fill:#6c63ff" />
  <rect
     x="286.86816"
     y="231.25275"
     width="5.7870378"
     height="9.2592602"
     id="rect852"
     style="fill:#6c63ff;stroke-width:0.75" />
  <polygon
     points="269.29,260.802 269.29,263.889 272.377,263.889 272.377,270.062 269.29,270.062 269.29,273.148 277.006,273.148 277.006,260.802 "
     id="polygon854"
     transform="matrix(0.75,0,0,0.75,84.90053,20.604569)"
     style="fill:#6c63ff" />
  <rect
     x="286.86816"
     y="261.34534"
     width="5.7870378"
     height="9.2592602"
     id="rect856"
     style="fill:#6c63ff;stroke-width:0.75" />
  <rect
     x="286.86816"
     y="300.6972"
     width="5.7870378"
     height="9.2592602"
     id="rect858"
     style="fill:#6c63ff;stroke-width:0.75" />
  <polygon
     points="269.29,300.926 269.29,304.012 272.377,304.012 272.377,310.185 269.29,310.185 269.29,313.272 277.006,313.272 277.006,300.926 "
     id="polygon860"
     transform="matrix(0.75,0,0,0.75,84.90053,20.604569)"
     style="fill:#6c63ff" />
  <polygon
     points="269.29,395.062 269.29,398.148 272.377,398.148 272.377,404.321 269.29,404.321 269.29,407.407 277.006,407.407 277.006,395.062 "
     id="polygon862"
     transform="matrix(0.75,0,0,0.75,84.90053,20.604569)"
     style="fill:#6c63ff" />
  <rect
     x="314.64594"
     y="68.058304"
     width="5.7870378"
     height="9.2592602"
     id="rect864"
     style="fill:#6c63ff;stroke-width:0.75" />
  <rect
     x="314.64594"
     y="140.97498"
     width="5.7870378"
     height="9.2592602"
     id="rect866"
     style="fill:#6c63ff;stroke-width:0.75" />
  <rect
     x="314.64594"
     y="290.28052"
     width="8.1018524"
     height="1.1574075"
     id="rect868"
     style="fill:#6c63ff;stroke-width:0.75" />
  <polygon
     points="306.327,100.309 306.327,103.395 309.414,103.395 309.414,109.568 306.327,109.568 306.327,112.654 314.043,112.654 314.043,100.309 "
     id="polygon870"
     transform="matrix(0.75,0,0,0.75,84.90053,20.604569)"
     style="fill:#6c63ff" />
  <polygon
     points="306.327,120.37 306.327,123.457 309.414,123.457 309.414,129.63 306.327,129.63 306.327,132.716 314.043,132.716 314.043,120.37 "
     id="polygon872"
     transform="matrix(0.75,0,0,0.75,84.90053,20.604569)"
     style="fill:#6c63ff" />
  <polygon
     points="306.327,140.432 306.327,143.519 309.414,143.519 309.414,149.691 306.327,149.691 306.327,152.778 314.043,152.778 314.043,140.432 "
     id="polygon874"
     transform="matrix(0.75,0,0,0.75,84.90053,20.604569)"
     style="fill:#6c63ff" />
  <rect
     x="314.64594"
     y="171.06757"
     width="5.7870378"
     height="9.2592602"
     id="rect876"
     style="fill:#6c63ff;stroke-width:0.75" />
  <polygon
     points="306.327,180.556 306.327,183.642 309.414,183.642 309.414,189.815 306.327,189.815 306.327,192.901 314.043,192.901 314.043,180.556 "
     id="polygon878"
     transform="matrix(0.75,0,0,0.75,84.90053,20.604569)"
     style="fill:#6c63ff" />
  <rect
     x="314.64594"
     y="201.16016"
     width="5.7870378"
     height="9.2592602"
     id="rect880"
     style="fill:#6c63ff;stroke-width:0.75" />
  <polygon
     points="306.327,220.679 306.327,223.765 309.414,223.765 309.414,229.938 306.327,229.938 306.327,233.025 314.043,233.025 314.043,220.679 "
     id="polygon882"
     transform="matrix(0.75,0,0,0.75,84.90053,20.604569)"
     style="fill:#6c63ff" />
  <rect
     x="314.64594"
     y="231.25275"
     width="5.7870378"
     height="9.2592602"
     id="rect884"
     style="fill:#6c63ff;stroke-width:0.75" />
  <polygon
     points="306.327,260.802 306.327,263.889 309.414,263.889 309.414,270.062 306.327,270.062 306.327,273.148 314.043,273.148 314.043,260.802 "
     id="polygon886"
     transform="matrix(0.75,0,0,0.75,84.90053,20.604569)"
     style="fill:#6c63ff" />
  <rect
     x="314.64594"
     y="261.34534"
     width="5.7870378"
     height="9.2592602"
     id="rect888"
     style="fill:#6c63ff;stroke-width:0.75" />
  <rect
     x="314.64594"
     y="300.6972"
     width="5.7870378"
     height="9.2592602"
     id="rect890"
     style="fill:#6c63ff;stroke-width:0.75" />
  <polygon
     points="306.327,300.926 306.327,304.012 309.414,304.012 309.414,310.185 306.327,310.185 306.327,313.272 314.043,313.272 314.043,300.926 "
     id="polygon892"
     transform="matrix(0.75,0,0,0.75,84.90053,20.604569)"
     style="fill:#6c63ff" />
  <polygon
     points="306.327,395.062 306.327,398.148 309.414,398.148 309.414,404.321 306.327,404.321 306.327,407.407 314.043,407.407 314.043,395.062 "
     id="polygon894"
     transform="matrix(0.75,0,0,0.75,84.90053,20.604569)"
     style="fill:#6c63ff" />
  <polygon
     points="198.302,373.457 198.302,376.543 201.389,376.543 201.389,382.716 198.302,382.716 198.302,385.802 206.019,385.802 206.019,373.457 "
     id="polygon896"
     transform="matrix(0.75,0,0,0.75,84.90053,20.604569)"
     style="fill:#6c63ff" />
  <polygon
     points="198.302,393.519 198.302,396.605 201.389,396.605 201.389,402.778 198.302,402.778 198.302,405.864 206.019,405.864 206.019,393.519 "
     id="polygon898"
     transform="matrix(0.75,0,0,0.75,84.90053,20.604569)"
     style="fill:#6c63ff" />
  <polygon
     points="158.179,160.494 158.179,163.58 161.265,163.58 161.265,169.753 158.179,169.753 158.179,172.84 165.895,172.84 165.895,160.494 "
     id="polygon900"
     transform="matrix(0.75,0,0,0.75,84.90053,20.604569)"
     style="fill:#6c63ff" />
  <polygon
     points="158.179,239.198 158.179,242.284 161.265,242.284 161.265,248.457 158.179,248.457 158.179,251.543 165.895,251.543 165.895,239.198 "
     id="polygon902"
     transform="matrix(0.75,0,0,0.75,84.90053,20.604569)"
     style="fill:#6c63ff" />
  <polygon
     points="158.179,259.259 158.179,262.346 161.265,262.346 161.265,268.519 158.179,268.519 158.179,271.605 165.895,271.605 165.895,259.259 "
     id="polygon904"
     transform="matrix(0.75,0,0,0.75,84.90053,20.604569)"
     style="fill:#6c63ff" />
  <polygon
     points="158.179,299.383 158.179,302.469 161.265,302.469 161.265,308.642 158.179,308.642 158.179,311.728 165.895,311.728 165.895,299.383 "
     id="polygon906"
     transform="matrix(0.75,0,0,0.75,84.90053,20.604569)"
     style="fill:#6c63ff" />
  <polygon
     points="158.179,356.481 158.179,359.568 161.265,359.568 161.265,365.741 158.179,365.741 158.179,368.827 165.895,368.827 165.895,356.481 "
     id="polygon908"
     transform="matrix(0.75,0,0,0.75,84.90053,20.604569)"
     style="fill:#6c63ff" />
  <polygon
     points="158.179,373.457 158.179,376.543 161.265,376.543 161.265,382.716 158.179,382.716 158.179,385.802 165.895,385.802 165.895,373.457 "
     id="polygon910"
     transform="matrix(0.75,0,0,0.75,84.90053,20.604569)"
     style="fill:#6c63ff" />
  <rect
     x="263.72003"
     y="70.373116"
     width="5.7870378"
     height="9.2592602"
     id="rect912"
     style="fill:#6c63ff;stroke-width:0.75" />
  <rect
     x="263.72003"
     y="85.419411"
     width="5.7870378"
     height="9.2592602"
     id="rect914"
     style="fill:#6c63ff;stroke-width:0.75" />
  <rect
     x="261.40521"
     y="101.62312"
     width="8.1018524"
     height="1.1574075"
     id="rect916"
     style="fill:#6c63ff;stroke-width:0.75" />
  <rect
     x="261.40521"
     y="175.69719"
     width="8.1018524"
     height="1.1574075"
     id="rect918"
     style="fill:#6c63ff;stroke-width:0.75" />
  <rect
     x="261.40521"
     y="188.42868"
     width="8.1018524"
     height="1.1574075"
     id="rect920"
     style="fill:#6c63ff;stroke-width:0.75" />
  <polygon
     points="238.426,121.914 238.426,125 241.512,125 241.512,131.173 238.426,131.173 238.426,134.259 246.142,134.259 246.142,121.914 "
     id="polygon922"
     transform="matrix(0.75,0,0,0.75,84.90053,20.604569)"
     style="fill:#6c63ff" />
  <polygon
     points="238.426,160.494 238.426,163.58 241.512,163.58 241.512,169.753 238.426,169.753 238.426,172.84 246.142,172.84 246.142,160.494 "
     id="polygon924"
     transform="matrix(0.75,0,0,0.75,84.90053,20.604569)"
     style="fill:#6c63ff" />
  <polygon
     points="238.426,239.198 238.426,242.284 241.512,242.284 241.512,248.457 238.426,248.457 238.426,251.543 246.142,251.543 246.142,239.198 "
     id="polygon926"
     transform="matrix(0.75,0,0,0.75,84.90053,20.604569)"
     style="fill:#6c63ff" />
  <rect
     x="329.69223"
     y="171.06757"
     width="5.7870378"
     height="9.2592602"
     id="rect928"
     style="fill:#6c63ff;stroke-width:0.75" />
  <rect
     x="329.69223"
     y="186.11386"
     width="5.7870378"
     height="9.2592602"
     id="rect930"
     style="fill:#6c63ff;stroke-width:0.75" />
  <rect
     x="327.37741"
     y="202.31757"
     width="8.1018524"
     height="1.1574075"
     id="rect932"
     style="fill:#6c63ff;stroke-width:0.75" />
  <rect
     x="327.37741"
     y="276.39163"
     width="8.1018524"
     height="1.1574075"
     id="rect934"
     style="fill:#6c63ff;stroke-width:0.75" />
  <rect
     x="327.37741"
     y="289.12311"
     width="8.1018524"
     height="1.1574075"
     id="rect936"
     style="fill:#6c63ff;stroke-width:0.75" />
  <polygon
     points="326.389,256.173 326.389,259.259 329.475,259.259 329.475,265.432 326.389,265.432 326.389,268.519 334.105,268.519 334.105,256.173 "
     id="polygon938"
     transform="matrix(0.75,0,0,0.75,84.90053,20.604569)"
     style="fill:#6c63ff" />
  <polygon
     points="326.389,294.753 326.389,297.84 329.475,297.84 329.475,304.012 326.389,304.012 326.389,307.099 334.105,307.099 334.105,294.753 "
     id="polygon940"
     transform="matrix(0.75,0,0,0.75,84.90053,20.604569)"
     style="fill:#6c63ff" />
  <polygon
     points="326.389,373.457 326.389,376.543 329.475,376.543 329.475,382.716 326.389,382.716 326.389,385.802 334.105,385.802 334.105,373.457 "
     id="polygon942"
     transform="matrix(0.75,0,0,0.75,84.90053,20.604569)"
     style="fill:#6c63ff" />
  <rect
     x="348.21075"
     y="70.373116"
     width="5.7870378"
     height="9.2592602"
     id="rect944"
     style="fill:#6c63ff;stroke-width:0.75" />
  <rect
     x="367.88669"
     y="68.058304"
     width="5.7870378"
     height="9.2592602"
     id="rect946"
     style="fill:#6c63ff;stroke-width:0.75" />
  <rect
     x="378.30334"
     y="68.058304"
     width="5.7870378"
     height="9.2592602"
     id="rect948"
     style="fill:#6c63ff;stroke-width:0.75" />
  <rect
     x="378.30334"
     y="95.836075"
     width="5.7870378"
     height="9.2592602"
     id="rect950"
     style="fill:#6c63ff;stroke-width:0.75" />
  <rect
     x="389.87741"
     y="81.947197"
     width="5.7870378"
     height="9.2592602"
     id="rect952"
     style="fill:#6c63ff;stroke-width:0.75" />
  <rect
     x="389.87741"
     y="96.993492"
     width="5.7870378"
     height="9.2592602"
     id="rect954"
     style="fill:#6c63ff;stroke-width:0.75" />
  <rect
     x="378.30334"
     y="125.92868"
     width="5.7870378"
     height="9.2592602"
     id="rect956"
     style="fill:#6c63ff;stroke-width:0.75" />
  <rect
     x="389.87741"
     y="140.97498"
     width="5.7870378"
     height="9.2592602"
     id="rect958"
     style="fill:#6c63ff;stroke-width:0.75" />
  <rect
     x="378.30334"
     y="197.68793"
     width="5.7870378"
     height="9.2592602"
     id="rect960"
     style="fill:#6c63ff;stroke-width:0.75" />
  <rect
     x="367.88669"
     y="140.97498"
     width="5.7870378"
     height="9.2592602"
     id="rect962"
     style="fill:#6c63ff;stroke-width:0.75" />
  <rect
     x="348.21075"
     y="85.419411"
     width="5.7870378"
     height="9.2592602"
     id="rect964"
     style="fill:#6c63ff;stroke-width:0.75" />
  <rect
     x="348.21075"
     y="230.09534"
     width="5.7870378"
     height="9.2592602"
     id="rect966"
     style="fill:#6c63ff;stroke-width:0.75" />
  <rect
     x="348.21075"
     y="260.18793"
     width="5.7870378"
     height="9.2592602"
     id="rect968"
     style="fill:#6c63ff;stroke-width:0.75" />
  <rect
     x="348.21075"
     y="275.23422"
     width="5.7870378"
     height="9.2592602"
     id="rect970"
     style="fill:#6c63ff;stroke-width:0.75" />
  <rect
     x="345.89594"
     y="101.62312"
     width="8.1018524"
     height="1.1574075"
     id="rect972"
     style="fill:#6c63ff;stroke-width:0.75" />
  <rect
     x="377.14594"
     y="115.51201"
     width="8.1018524"
     height="1.1574075"
     id="rect974"
     style="fill:#6c63ff;stroke-width:0.75" />
  <rect
     x="345.89594"
     y="175.69719"
     width="8.1018524"
     height="1.1574075"
     id="rect976"
     style="fill:#6c63ff;stroke-width:0.75" />
  <rect
     x="345.89594"
     y="188.42868"
     width="8.1018524"
     height="1.1574075"
     id="rect978"
     style="fill:#6c63ff;stroke-width:0.75" />
  <rect
     x="377.14594"
     y="262.50275"
     width="8.1018524"
     height="1.1574075"
     id="rect980"
     style="fill:#6c63ff;stroke-width:0.75" />
  <rect
     x="367.88669"
     y="290.28052"
     width="8.1018524"
     height="1.1574075"
     id="rect982"
     style="fill:#6c63ff;stroke-width:0.75" />
  <polygon
     points="351.08,121.914 351.08,125 354.167,125 354.167,131.173 351.08,131.173 351.08,134.259 358.796,134.259 358.796,121.914 "
     id="polygon984"
     transform="matrix(0.75,0,0,0.75,84.90053,20.604569)"
     style="fill:#6c63ff" />
  <polygon
     points="377.315,100.309 377.315,103.395 380.401,103.395 380.401,109.568 377.315,109.568 377.315,112.654 385.031,112.654 385.031,100.309 "
     id="polygon986"
     transform="matrix(0.75,0,0,0.75,84.90053,20.604569)"
     style="fill:#6c63ff" />
  <polygon
     points="406.636,120.37 406.636,123.457 409.722,123.457 409.722,129.63 406.636,129.63 406.636,132.716 414.352,132.716 414.352,120.37 "
     id="polygon988"
     transform="matrix(0.75,0,0,0.75,84.90053,20.604569)"
     style="fill:#6c63ff" />
  <polygon
     points="406.636,180.556 406.636,183.642 409.722,183.642 409.722,189.815 406.636,189.815 406.636,192.901 414.352,192.901 414.352,180.556 "
     id="polygon990"
     transform="matrix(0.75,0,0,0.75,84.90053,20.604569)"
     style="fill:#6c63ff" />
  <polygon
     points="406.636,200.617 406.636,203.704 409.722,203.704 409.722,209.877 406.636,209.877 406.636,212.963 414.352,212.963 414.352,200.617 "
     id="polygon992"
     transform="matrix(0.75,0,0,0.75,84.90053,20.604569)"
     style="fill:#6c63ff" />
  <polygon
     points="406.636,138.889 406.636,141.975 409.722,141.975 409.722,148.148 406.636,148.148 406.636,151.235 414.352,151.235 414.352,138.889 "
     id="polygon994"
     transform="matrix(0.75,0,0,0.75,84.90053,20.604569)"
     style="fill:#6c63ff" />
  <polygon
     points="391.204,81.79 391.204,84.877 394.29,84.877 394.29,91.049 391.204,91.049 391.204,94.136 398.92,94.136 398.92,81.79 "
     id="polygon996"
     transform="matrix(0.75,0,0,0.75,84.90053,20.604569)"
     style="fill:#6c63ff" />
  <rect
     x="378.30334"
     y="156.02127"
     width="5.7870378"
     height="9.2592602"
     id="rect998"
     style="fill:#6c63ff;stroke-width:0.75" />
  <rect
     x="378.30334"
     y="183.79904"
     width="5.7870378"
     height="9.2592602"
     id="rect1000"
     style="fill:#6c63ff;stroke-width:0.75" />
  <polygon
     points="391.204,199.074 391.204,202.16 394.29,202.16 394.29,208.333 391.204,208.333 391.204,211.42 398.92,211.42 398.92,199.074 "
     id="polygon1002"
     transform="matrix(0.75,0,0,0.75,84.90053,20.604569)"
     style="fill:#6c63ff" />
  <polygon
     points="377.315,120.37 377.315,123.457 380.401,123.457 380.401,129.63 377.315,129.63 377.315,132.716 385.031,132.716 385.031,120.37 "
     id="polygon1004"
     transform="matrix(0.75,0,0,0.75,84.90053,20.604569)"
     style="fill:#6c63ff" />
  <polygon
     points="377.315,140.432 377.315,143.519 380.401,143.519 380.401,149.691 377.315,149.691 377.315,152.778 385.031,152.778 385.031,140.432 "
     id="polygon1006"
     transform="matrix(0.75,0,0,0.75,84.90053,20.604569)"
     style="fill:#6c63ff" />
  <rect
     x="367.88669"
     y="171.06757"
     width="5.7870378"
     height="9.2592602"
     id="rect1008"
     style="fill:#6c63ff;stroke-width:0.75" />
  <polygon
     points="377.315,180.556 377.315,183.642 380.401,183.642 380.401,189.815 377.315,189.815 377.315,192.901 385.031,192.901 385.031,180.556 "
     id="polygon1010"
     transform="matrix(0.75,0,0,0.75,84.90053,20.604569)"
     style="fill:#6c63ff" />
  <rect
     x="367.88669"
     y="201.16016"
     width="5.7870378"
     height="9.2592602"
     id="rect1012"
     style="fill:#6c63ff;stroke-width:0.75" />
  <polygon
     points="377.315,220.679 377.315,223.765 380.401,223.765 380.401,229.938 377.315,229.938 377.315,233.025 385.031,233.025 385.031,220.679 "
     id="polygon1014"
     transform="matrix(0.75,0,0,0.75,84.90053,20.604569)"
     style="fill:#6c63ff" />
  <rect
     x="367.88669"
     y="231.25275"
     width="5.7870378"
     height="9.2592602"
     id="rect1016"
     style="fill:#6c63ff;stroke-width:0.75" />
  <rect
     x="378.30334"
     y="228.93793"
     width="5.7870378"
     height="9.2592602"
     id="rect1018"
     style="fill:#6c63ff;stroke-width:0.75" />
  <polygon
     points="377.315,260.802 377.315,263.889 380.401,263.889 380.401,270.062 377.315,270.062 377.315,273.148 385.031,273.148 385.031,260.802 "
     id="polygon1020"
     transform="matrix(0.75,0,0,0.75,84.90053,20.604569)"
     style="fill:#6c63ff" />
  <polygon
     points="406.636,260.802 406.636,263.889 409.722,263.889 409.722,270.062 406.636,270.062 406.636,273.148 414.352,273.148 414.352,260.802 "
     id="polygon1022"
     transform="matrix(0.75,0,0,0.75,84.90053,20.604569)"
     style="fill:#6c63ff" />
  <rect
     x="448.90521"
     y="81.947197"
     width="5.7870378"
     height="9.2592602"
     id="rect1024"
     style="fill:#6c63ff;stroke-width:0.75" />
  <rect
     x="448.90521"
     y="96.993492"
     width="5.7870378"
     height="9.2592602"
     id="rect1026"
     style="fill:#6c63ff;stroke-width:0.75" />
  <rect
     x="448.90521"
     y="140.97498"
     width="5.7870378"
     height="9.2592602"
     id="rect1028"
     style="fill:#6c63ff;stroke-width:0.75" />
  <polygon
     points="485.34,120.37 485.34,123.457 488.426,123.457 488.426,129.63 485.34,129.63 485.34,132.716 493.056,132.716 493.056,120.37 "
     id="polygon1030"
     transform="matrix(0.75,0,0,0.75,84.90053,20.604569)"
     style="fill:#6c63ff" />
  <polygon
     points="485.34,180.556 485.34,183.642 488.426,183.642 488.426,189.815 485.34,189.815 485.34,192.901 493.056,192.901 493.056,180.556 "
     id="polygon1032"
     transform="matrix(0.75,0,0,0.75,84.90053,20.604569)"
     style="fill:#6c63ff" />
  <polygon
     points="485.34,200.617 485.34,203.704 488.426,203.704 488.426,209.877 485.34,209.877 485.34,212.963 493.056,212.963 493.056,200.617 "
     id="polygon1034"
     transform="matrix(0.75,0,0,0.75,84.90053,20.604569)"
     style="fill:#6c63ff" />
  <polygon
     points="485.34,138.889 485.34,141.975 488.426,141.975 488.426,148.148 485.34,148.148 485.34,151.235 493.056,151.235 493.056,138.889 "
     id="polygon1036"
     transform="matrix(0.75,0,0,0.75,84.90053,20.604569)"
     style="fill:#6c63ff" />
  <polygon
     points="485.34,260.802 485.34,263.889 488.426,263.889 488.426,270.062 485.34,270.062 485.34,273.148 493.056,273.148 493.056,260.802 "
     id="polygon1038"
     transform="matrix(0.75,0,0,0.75,84.90053,20.604569)"
     style="fill:#6c63ff" />
  <rect
     x="367.88669"
     y="261.34534"
     width="5.7870378"
     height="9.2592602"
     id="rect1040"
     style="fill:#6c63ff;stroke-width:0.75" />
  <rect
     x="378.30334"
     y="243.98422"
     width="5.7870378"
     height="9.2592602"
     id="rect1042"
     style="fill:#6c63ff;stroke-width:0.75" />
  <rect
     x="367.88669"
     y="300.6972"
     width="5.7870378"
     height="9.2592602"
     id="rect1044"
     style="fill:#6c63ff;stroke-width:0.75" />
  <rect
     x="378.30334"
     y="272.9194"
     width="5.7870378"
     height="9.2592602"
     id="rect1046"
     style="fill:#6c63ff;stroke-width:0.75" />
  <polygon
     points="377.315,300.926 377.315,304.012 380.401,304.012 380.401,310.185 377.315,310.185 377.315,313.272 385.031,313.272 385.031,300.926 "
     id="polygon1048"
     transform="matrix(0.75,0,0,0.75,84.90053,20.604569)"
     style="fill:#6c63ff" />
  <polygon
     points="377.315,395.062 377.315,398.148 380.401,398.148 380.401,404.321 377.315,404.321 377.315,407.407 385.031,407.407 385.031,395.062 "
     id="polygon1050"
     transform="matrix(0.75,0,0,0.75,84.90053,20.604569)"
     style="fill:#6c63ff" />
  <rect
     x="431.54407"
     y="68.058304"
     width="5.7870378"
     height="9.2592602"
     id="rect1052"
     style="fill:#6c63ff;stroke-width:0.75" />
  <rect
     x="431.54407"
     y="140.97498"
     width="5.7870378"
     height="9.2592602"
     id="rect1054"
     style="fill:#6c63ff;stroke-width:0.75" />
  <rect
     x="431.54407"
     y="290.28052"
     width="8.1018524"
     height="1.1574075"
     id="rect1056"
     style="fill:#6c63ff;stroke-width:0.75" />
  <polygon
     points="462.191,100.309 462.191,103.395 465.278,103.395 465.278,109.568 462.191,109.568 462.191,112.654 469.907,112.654 469.907,100.309 "
     id="polygon1058"
     transform="matrix(0.75,0,0,0.75,84.90053,20.604569)"
     style="fill:#6c63ff" />
  <polygon
     points="462.191,120.37 462.191,123.457 465.278,123.457 465.278,129.63 462.191,129.63 462.191,132.716 469.907,132.716 469.907,120.37 "
     id="polygon1060"
     transform="matrix(0.75,0,0,0.75,84.90053,20.604569)"
     style="fill:#6c63ff" />
  <polygon
     points="462.191,140.432 462.191,143.519 465.278,143.519 465.278,149.691 462.191,149.691 462.191,152.778 469.907,152.778 469.907,140.432 "
     id="polygon1062"
     transform="matrix(0.75,0,0,0.75,84.90053,20.604569)"
     style="fill:#6c63ff" />
  <rect
     x="431.54407"
     y="171.06757"
     width="5.7870378"
     height="9.2592602"
     id="rect1064"
     style="fill:#6c63ff;stroke-width:0.75" />
  <polygon
     points="462.191,180.556 462.191,183.642 465.278,183.642 465.278,189.815 462.191,189.815 462.191,192.901 469.907,192.901 469.907,180.556 "
     id="polygon1066"
     transform="matrix(0.75,0,0,0.75,84.90053,20.604569)"
     style="fill:#6c63ff" />
  <rect
     x="431.54407"
     y="201.16016"
     width="5.7870378"
     height="9.2592602"
     id="rect1068"
     style="fill:#6c63ff;stroke-width:0.75" />
  <polygon
     points="462.191,220.679 462.191,223.765 465.278,223.765 465.278,229.938 462.191,229.938 462.191,233.025 469.907,233.025 469.907,220.679 "
     id="polygon1070"
     transform="matrix(0.75,0,0,0.75,84.90053,20.604569)"
     style="fill:#6c63ff" />
  <rect
     x="431.54407"
     y="231.25275"
     width="5.7870378"
     height="9.2592602"
     id="rect1072"
     style="fill:#6c63ff;stroke-width:0.75" />
  <polygon
     points="462.191,260.802 462.191,263.889 465.278,263.889 465.278,270.062 462.191,270.062 462.191,273.148 469.907,273.148 469.907,260.802 "
     id="polygon1074"
     transform="matrix(0.75,0,0,0.75,84.90053,20.604569)"
     style="fill:#6c63ff" />
  <rect
     x="431.54407"
     y="261.34534"
     width="5.7870378"
     height="9.2592602"
     id="rect1076"
     style="fill:#6c63ff;stroke-width:0.75" />
  <rect
     x="431.54407"
     y="300.6972"
     width="5.7870378"
     height="9.2592602"
     id="rect1078"
     style="fill:#6c63ff;stroke-width:0.75" />
  <polygon
     points="462.191,300.926 462.191,304.012 465.278,304.012 465.278,310.185 462.191,310.185 462.191,313.272 469.907,313.272 469.907,300.926 "
     id="polygon1080"
     transform="matrix(0.75,0,0,0.75,84.90053,20.604569)"
     style="fill:#6c63ff" />
  <polygon
     points="462.191,395.062 462.191,398.148 465.278,398.148 465.278,404.321 462.191,404.321 462.191,407.407 469.907,407.407 469.907,395.062 "
     id="polygon1082"
     transform="matrix(0.75,0,0,0.75,84.90053,20.604569)"
     style="fill:#6c63ff" />
  <rect
     x="459.32187"
     y="68.058304"
     width="5.7870378"
     height="9.2592602"
     id="rect1084"
     style="fill:#6c63ff;stroke-width:0.75" />
  <rect
     x="459.32187"
     y="140.97498"
     width="5.7870378"
     height="9.2592602"
     id="rect1086"
     style="fill:#6c63ff;stroke-width:0.75" />
  <rect
     x="459.32187"
     y="290.28052"
     width="8.1018524"
     height="1.1574075"
     id="rect1088"
     style="fill:#6c63ff;stroke-width:0.75" />
  <polygon
     points="499.228,100.309 499.228,103.395 502.315,103.395 502.315,109.568 499.228,109.568 499.228,112.654 506.944,112.654 506.944,100.309 "
     id="polygon1090"
     transform="matrix(0.75,0,0,0.75,84.90053,20.604569)"
     style="fill:#6c63ff" />
  <polygon
     points="499.228,120.37 499.228,123.457 502.315,123.457 502.315,129.63 499.228,129.63 499.228,132.716 506.944,132.716 506.944,120.37 "
     id="polygon1092"
     transform="matrix(0.75,0,0,0.75,84.90053,20.604569)"
     style="fill:#6c63ff" />
  <polygon
     points="499.228,140.432 499.228,143.519 502.315,143.519 502.315,149.691 499.228,149.691 499.228,152.778 506.944,152.778 506.944,140.432 "
     id="polygon1094"
     transform="matrix(0.75,0,0,0.75,84.90053,20.604569)"
     style="fill:#6c63ff" />
  <rect
     x="459.32187"
     y="171.06757"
     width="5.7870378"
     height="9.2592602"
     id="rect1096"
     style="fill:#6c63ff;stroke-width:0.75" />
  <polygon
     points="499.228,180.556 499.228,183.642 502.315,183.642 502.315,189.815 499.228,189.815 499.228,192.901 506.944,192.901 506.944,180.556 "
     id="polygon1098"
     transform="matrix(0.75,0,0,0.75,84.90053,20.604569)"
     style="fill:#6c63ff" />
  <rect
     x="459.32187"
     y="201.16016"
     width="5.7870378"
     height="9.2592602"
     id="rect1100"
     style="fill:#6c63ff;stroke-width:0.75" />
  <polygon
     points="499.228,220.679 499.228,223.765 502.315,223.765 502.315,229.938 499.228,229.938 499.228,233.025 506.944,233.025 506.944,220.679 "
     id="polygon1102"
     transform="matrix(0.75,0,0,0.75,84.90053,20.604569)"
     style="fill:#6c63ff" />
  <rect
     x="459.32187"
     y="231.25275"
     width="5.7870378"
     height="9.2592602"
     id="rect1104"
     style="fill:#6c63ff;stroke-width:0.75" />
  <polygon
     points="499.228,260.802 499.228,263.889 502.315,263.889 502.315,270.062 499.228,270.062 499.228,273.148 506.944,273.148 506.944,260.802 "
     id="polygon1106"
     transform="matrix(0.75,0,0,0.75,84.90053,20.604569)"
     style="fill:#6c63ff" />
  <rect
     x="459.32187"
     y="261.34534"
     width="5.7870378"
     height="9.2592602"
     id="rect1108"
     style="fill:#6c63ff;stroke-width:0.75" />
  <rect
     x="459.32187"
     y="300.6972"
     width="5.7870378"
     height="9.2592602"
     id="rect1110"
     style="fill:#6c63ff;stroke-width:0.75" />
  <polygon
     points="499.228,300.926 499.228,304.012 502.315,304.012 502.315,310.185 499.228,310.185 499.228,313.272 506.944,313.272 506.944,300.926 "
     id="polygon1112"
     transform="matrix(0.75,0,0,0.75,84.90053,20.604569)"
     style="fill:#6c63ff" />
  <polygon
     points="499.228,395.062 499.228,398.148 502.315,398.148 502.315,404.321 499.228,404.321 499.228,407.407 506.944,407.407 506.944,395.062 "
     id="polygon1114"
     transform="matrix(0.75,0,0,0.75,84.90053,20.604569)"
     style="fill:#6c63ff" />
  <polygon
     points="391.204,373.457 391.204,376.543 394.29,376.543 394.29,382.716 391.204,382.716 391.204,385.802 398.92,385.802 398.92,373.457 "
     id="polygon1116"
     transform="matrix(0.75,0,0,0.75,84.90053,20.604569)"
     style="fill:#6c63ff" />
  <polygon
     points="391.204,393.519 391.204,396.605 394.29,396.605 394.29,402.778 391.204,402.778 391.204,405.864 398.92,405.864 398.92,393.519 "
     id="polygon1118"
     transform="matrix(0.75,0,0,0.75,84.90053,20.604569)"
     style="fill:#6c63ff" />
  <polygon
     points="351.08,160.494 351.08,163.58 354.167,163.58 354.167,169.753 351.08,169.753 351.08,172.84 358.796,172.84 358.796,160.494 "
     id="polygon1120"
     transform="matrix(0.75,0,0,0.75,84.90053,20.604569)"
     style="fill:#6c63ff" />
  <polygon
     points="351.08,239.198 351.08,242.284 354.167,242.284 354.167,248.457 351.08,248.457 351.08,251.543 358.796,251.543 358.796,239.198 "
     id="polygon1122"
     transform="matrix(0.75,0,0,0.75,84.90053,20.604569)"
     style="fill:#6c63ff" />
  <polygon
     points="351.08,259.259 351.08,262.346 354.167,262.346 354.167,268.519 351.08,268.519 351.08,271.605 358.796,271.605 358.796,259.259 "
     id="polygon1124"
     transform="matrix(0.75,0,0,0.75,84.90053,20.604569)"
     style="fill:#6c63ff" />
  <polygon
     points="351.08,299.383 351.08,302.469 354.167,302.469 354.167,308.642 351.08,308.642 351.08,311.728 358.796,311.728 358.796,299.383 "
     id="polygon1126"
     transform="matrix(0.75,0,0,0.75,84.90053,20.604569)"
     style="fill:#6c63ff" />
  <polygon
     points="351.08,356.481 351.08,359.568 354.167,359.568 354.167,365.741 351.08,365.741 351.08,368.827 358.796,368.827 358.796,356.481 "
     id="polygon1128"
     transform="matrix(0.75,0,0,0.75,84.90053,20.604569)"
     style="fill:#6c63ff" />
  <polygon
     points="351.08,373.457 351.08,376.543 354.167,376.543 354.167,382.716 351.08,382.716 351.08,385.802 358.796,385.802 358.796,373.457 "
     id="polygon1130"
     transform="matrix(0.75,0,0,0.75,84.90053,20.604569)"
     style="fill:#6c63ff" />
  <rect
     x="408.39594"
     y="70.373116"
     width="5.7870378"
     height="9.2592602"
     id="rect1132"
     style="fill:#6c63ff;stroke-width:0.75" />
  <rect
     x="408.39594"
     y="85.419411"
     width="5.7870378"
     height="9.2592602"
     id="rect1134"
     style="fill:#6c63ff;stroke-width:0.75" />
  <rect
     x="406.08115"
     y="101.62312"
     width="8.1018524"
     height="1.1574075"
     id="rect1136"
     style="fill:#6c63ff;stroke-width:0.75" />
  <rect
     x="406.08115"
     y="175.69719"
     width="8.1018524"
     height="1.1574075"
     id="rect1138"
     style="fill:#6c63ff;stroke-width:0.75" />
  <rect
     x="406.08115"
     y="188.42868"
     width="8.1018524"
     height="1.1574075"
     id="rect1140"
     style="fill:#6c63ff;stroke-width:0.75" />
  <polygon
     points="431.327,121.914 431.327,125 434.414,125 434.414,131.173 431.327,131.173 431.327,134.259 439.043,134.259 439.043,121.914 "
     id="polygon1142"
     transform="matrix(0.75,0,0,0.75,84.90053,20.604569)"
     style="fill:#6c63ff" />
  <polygon
     points="431.327,160.494 431.327,163.58 434.414,163.58 434.414,169.753 431.327,169.753 431.327,172.84 439.043,172.84 439.043,160.494 "
     id="polygon1144"
     transform="matrix(0.75,0,0,0.75,84.90053,20.604569)"
     style="fill:#6c63ff" />
  <polygon
     points="431.327,239.198 431.327,242.284 434.414,242.284 434.414,248.457 431.327,248.457 431.327,251.543 439.043,251.543 439.043,239.198 "
     id="polygon1146"
     transform="matrix(0.75,0,0,0.75,84.90053,20.604569)"
     style="fill:#6c63ff" />
  <rect
     x="474.36813"
     y="171.06757"
     width="5.7870378"
     height="9.2592602"
     id="rect1148"
     style="fill:#6c63ff;stroke-width:0.75" />
  <rect
     x="474.36813"
     y="186.11386"
     width="5.7870378"
     height="9.2592602"
     id="rect1150"
     style="fill:#6c63ff;stroke-width:0.75" />
  <rect
     x="472.05334"
     y="202.31757"
     width="8.1018524"
     height="1.1574075"
     id="rect1152"
     style="fill:#6c63ff;stroke-width:0.75" />
  <rect
     x="472.05334"
     y="276.39163"
     width="8.1018524"
     height="1.1574075"
     id="rect1154"
     style="fill:#6c63ff;stroke-width:0.75" />
  <rect
     x="472.05334"
     y="289.12311"
     width="8.1018524"
     height="1.1574075"
     id="rect1156"
     style="fill:#6c63ff;stroke-width:0.75" />
  <polygon
     points="519.29,256.173 519.29,259.259 522.377,259.259 522.377,265.432 519.29,265.432 519.29,268.519 527.006,268.519 527.006,256.173 "
     id="polygon1158"
     transform="matrix(0.75,0,0,0.75,84.90053,20.604569)"
     style="fill:#6c63ff" />
  <polygon
     points="519.29,294.753 519.29,297.84 522.377,297.84 522.377,304.012 519.29,304.012 519.29,307.099 527.006,307.099 527.006,294.753 "
     id="polygon1160"
     transform="matrix(0.75,0,0,0.75,84.90053,20.604569)"
     style="fill:#6c63ff" />
  <polygon
     points="519.29,373.457 519.29,376.543 522.377,376.543 522.377,382.716 519.29,382.716 519.29,385.802 527.006,385.802 527.006,373.457 "
     id="polygon1162"
     transform="matrix(0.75,0,0,0.75,84.90053,20.604569)"
     style="fill:#6c63ff" />
  <rect
     x="492.88663"
     y="70.373116"
     width="5.7870378"
     height="9.2592602"
     id="rect1164"
     style="fill:#6c63ff;stroke-width:0.75" />
  <rect
     x="512.56244"
     y="68.058304"
     width="5.7870378"
     height="9.2592602"
     id="rect1166"
     style="fill:#6c63ff;stroke-width:0.75" />
  <rect
     x="522.97906"
     y="68.058304"
     width="5.7870378"
     height="9.2592602"
     id="rect1168"
     style="fill:#6c63ff;stroke-width:0.75" />
  <rect
     x="522.97906"
     y="95.836075"
     width="5.7870378"
     height="9.2592602"
     id="rect1170"
     style="fill:#6c63ff;stroke-width:0.75" />
  <rect
     x="534.55316"
     y="81.947197"
     width="5.7870378"
     height="9.2592602"
     id="rect1172"
     style="fill:#6c63ff;stroke-width:0.75" />
  <rect
     x="534.55316"
     y="96.993492"
     width="5.7870378"
     height="9.2592602"
     id="rect1174"
     style="fill:#6c63ff;stroke-width:0.75" />
  <rect
     x="522.97906"
     y="125.92868"
     width="5.7870378"
     height="9.2592602"
     id="rect1176"
     style="fill:#6c63ff;stroke-width:0.75" />
  <rect
     x="534.55316"
     y="140.97498"
     width="5.7870378"
     height="9.2592602"
     id="rect1178"
     style="fill:#6c63ff;stroke-width:0.75" />
  <rect
     x="522.97906"
     y="197.68793"
     width="5.7870378"
     height="9.2592602"
     id="rect1180"
     style="fill:#6c63ff;stroke-width:0.75" />
  <rect
     x="512.56244"
     y="140.97498"
     width="5.7870378"
     height="9.2592602"
     id="rect1182"
     style="fill:#6c63ff;stroke-width:0.75" />
  <rect
     x="492.88663"
     y="85.419411"
     width="5.7870378"
     height="9.2592602"
     id="rect1184"
     style="fill:#6c63ff;stroke-width:0.75" />
  <rect
     x="492.88663"
     y="230.09534"
     width="5.7870378"
     height="9.2592602"
     id="rect1186"
     style="fill:#6c63ff;stroke-width:0.75" />
  <rect
     x="492.88663"
     y="260.18793"
     width="5.7870378"
     height="9.2592602"
     id="rect1188"
     style="fill:#6c63ff;stroke-width:0.75" />
  <rect
     x="492.88663"
     y="275.23422"
     width="5.7870378"
     height="9.2592602"
     id="rect1190"
     style="fill:#6c63ff;stroke-width:0.75" />
  <rect
     x="490.57181"
     y="101.62312"
     width="8.1018524"
     height="1.1574075"
     id="rect1192"
     style="fill:#6c63ff;stroke-width:0.75" />
  <rect
     x="521.82166"
     y="115.51201"
     width="8.1018524"
     height="1.1574075"
     id="rect1194"
     style="fill:#6c63ff;stroke-width:0.75" />
  <rect
     x="490.57181"
     y="175.69719"
     width="8.1018524"
     height="1.1574075"
     id="rect1196"
     style="fill:#6c63ff;stroke-width:0.75" />
  <rect
     x="490.57181"
     y="188.42868"
     width="8.1018524"
     height="1.1574075"
     id="rect1198"
     style="fill:#6c63ff;stroke-width:0.75" />
  <rect
     x="521.82166"
     y="262.50275"
     width="8.1018524"
     height="1.1574075"
     id="rect1200"
     style="fill:#6c63ff;stroke-width:0.75" />
  <rect
     x="512.56244"
     y="290.28052"
     width="8.1018524"
     height="1.1574075"
     id="rect1202"
     style="fill:#6c63ff;stroke-width:0.75" />
  <polygon
     points="543.981,121.914 543.981,125 547.068,125 547.068,131.173 543.981,131.173 543.981,134.259 551.698,134.259 551.698,121.914 "
     id="polygon1204"
     transform="matrix(0.75,0,0,0.75,84.90053,20.604569)"
     style="fill:#6c63ff" />
  <polygon
     points="570.216,100.309 570.216,103.395 573.302,103.395 573.302,109.568 570.216,109.568 570.216,112.654 577.932,112.654 577.932,100.309 "
     id="polygon1206"
     transform="matrix(0.75,0,0,0.75,84.90053,20.604569)"
     style="fill:#6c63ff" />
  <polygon
     points="599.537,120.37 599.537,123.457 602.623,123.457 602.623,129.63 599.537,129.63 599.537,132.716 607.253,132.716 607.253,120.37 "
     id="polygon1208"
     transform="matrix(0.75,0,0,0.75,84.90053,20.604569)"
     style="fill:#6c63ff" />
  <polygon
     points="599.537,180.556 599.537,183.642 602.623,183.642 602.623,189.815 599.537,189.815 599.537,192.901 607.253,192.901 607.253,180.556 "
     id="polygon1210"
     transform="matrix(0.75,0,0,0.75,84.90053,20.604569)"
     style="fill:#6c63ff" />
  <polygon
     points="599.537,200.617 599.537,203.704 602.623,203.704 602.623,209.877 599.537,209.877 599.537,212.963 607.253,212.963 607.253,200.617 "
     id="polygon1212"
     transform="matrix(0.75,0,0,0.75,84.90053,20.604569)"
     style="fill:#6c63ff" />
  <polygon
     points="599.537,138.889 599.537,141.975 602.623,141.975 602.623,148.148 599.537,148.148 599.537,151.235 607.253,151.235 607.253,138.889 "
     id="polygon1214"
     transform="matrix(0.75,0,0,0.75,84.90053,20.604569)"
     style="fill:#6c63ff" />
  <polygon
     points="584.105,81.79 584.105,84.877 587.191,84.877 587.191,91.049 584.105,91.049 584.105,94.136 591.821,94.136 591.821,81.79 "
     id="polygon1216"
     transform="matrix(0.75,0,0,0.75,84.90053,20.604569)"
     style="fill:#6c63ff" />
  <rect
     x="522.97906"
     y="156.02127"
     width="5.7870378"
     height="9.2592602"
     id="rect1218"
     style="fill:#6c63ff;stroke-width:0.75" />
  <rect
     x="522.97906"
     y="183.79904"
     width="5.7870378"
     height="9.2592602"
     id="rect1220"
     style="fill:#6c63ff;stroke-width:0.75" />
  <polygon
     points="584.105,199.074 584.105,202.16 587.191,202.16 587.191,208.333 584.105,208.333 584.105,211.42 591.821,211.42 591.821,199.074 "
     id="polygon1222"
     transform="matrix(0.75,0,0,0.75,84.90053,20.604569)"
     style="fill:#6c63ff" />
  <polygon
     points="570.216,120.37 570.216,123.457 573.302,123.457 573.302,129.63 570.216,129.63 570.216,132.716 577.932,132.716 577.932,120.37 "
     id="polygon1224"
     transform="matrix(0.75,0,0,0.75,84.90053,20.604569)"
     style="fill:#6c63ff" />
  <polygon
     points="570.216,140.432 570.216,143.519 573.302,143.519 573.302,149.691 570.216,149.691 570.216,152.778 577.932,152.778 577.932,140.432 "
     id="polygon1226"
     transform="matrix(0.75,0,0,0.75,84.90053,20.604569)"
     style="fill:#6c63ff" />
  <rect
     x="512.56244"
     y="171.06757"
     width="5.7870378"
     height="9.2592602"
     id="rect1228"
     style="fill:#6c63ff;stroke-width:0.75" />
  <polygon
     points="570.216,180.556 570.216,183.642 573.302,183.642 573.302,189.815 570.216,189.815 570.216,192.901 577.932,192.901 577.932,180.556 "
     id="polygon1230"
     transform="matrix(0.75,0,0,0.75,84.90053,20.604569)"
     style="fill:#6c63ff" />
  <rect
     x="512.56244"
     y="201.16016"
     width="5.7870378"
     height="9.2592602"
     id="rect1232"
     style="fill:#6c63ff;stroke-width:0.75" />
  <polygon
     points="570.216,220.679 570.216,223.765 573.302,223.765 573.302,229.938 570.216,229.938 570.216,233.025 577.932,233.025 577.932,220.679 "
     id="polygon1234"
     transform="matrix(0.75,0,0,0.75,84.90053,20.604569)"
     style="fill:#6c63ff" />
  <rect
     x="512.56244"
     y="231.25275"
     width="5.7870378"
     height="9.2592602"
     id="rect1236"
     style="fill:#6c63ff;stroke-width:0.75" />
  <rect
     x="522.97906"
     y="228.93793"
     width="5.7870378"
     height="9.2592602"
     id="rect1238"
     style="fill:#6c63ff;stroke-width:0.75" />
  <polygon
     points="570.216,260.802 570.216,263.889 573.302,263.889 573.302,270.062 570.216,270.062 570.216,273.148 577.932,273.148 577.932,260.802 "
     id="polygon1240"
     transform="matrix(0.75,0,0,0.75,84.90053,20.604569)"
     style="fill:#6c63ff" />
  <polygon
     points="599.537,260.802 599.537,263.889 602.623,263.889 602.623,270.062 599.537,270.062 599.537,273.148 607.253,273.148 607.253,260.802 "
     id="polygon1242"
     transform="matrix(0.75,0,0,0.75,84.90053,20.604569)"
     style="fill:#6c63ff" />
  <rect
     x="593.58093"
     y="81.947197"
     width="5.7870378"
     height="9.2592602"
     id="rect1244"
     style="fill:#6c63ff;stroke-width:0.75" />
  <rect
     x="593.58093"
     y="96.993492"
     width="5.7870378"
     height="9.2592602"
     id="rect1246"
     style="fill:#6c63ff;stroke-width:0.75" />
  <rect
     x="593.58093"
     y="140.97498"
     width="5.7870378"
     height="9.2592602"
     id="rect1248"
     style="fill:#6c63ff;stroke-width:0.75" />
  <polygon
     points="678.241,120.37 678.241,123.457 681.327,123.457 681.327,129.63 678.241,129.63 678.241,132.716 685.957,132.716 685.957,120.37 "
     id="polygon1250"
     transform="matrix(0.75,0,0,0.75,84.90053,20.604569)"
     style="fill:#6c63ff" />
  <polygon
     points="678.241,180.556 678.241,183.642 681.327,183.642 681.327,189.815 678.241,189.815 678.241,192.901 685.957,192.901 685.957,180.556 "
     id="polygon1252"
     transform="matrix(0.75,0,0,0.75,84.90053,20.604569)"
     style="fill:#6c63ff" />
  <polygon
     points="678.241,200.617 678.241,203.704 681.327,203.704 681.327,209.877 678.241,209.877 678.241,212.963 685.957,212.963 685.957,200.617 "
     id="polygon1254"
     transform="matrix(0.75,0,0,0.75,84.90053,20.604569)"
     style="fill:#6c63ff" />
  <polygon
     points="678.241,138.889 678.241,141.975 681.327,141.975 681.327,148.148 678.241,148.148 678.241,151.235 685.957,151.235 685.957,138.889 "
     id="polygon1256"
     transform="matrix(0.75,0,0,0.75,84.90053,20.604569)"
     style="fill:#6c63ff" />
  <polygon
     points="678.241,260.802 678.241,263.889 681.327,263.889 681.327,270.062 678.241,270.062 678.241,273.148 685.957,273.148 685.957,260.802 "
     id="polygon1258"
     transform="matrix(0.75,0,0,0.75,84.90053,20.604569)"
     style="fill:#6c63ff" />
  <rect
     x="512.56244"
     y="261.34534"
     width="5.7870378"
     height="9.2592602"
     id="rect1260"
     style="fill:#6c63ff;stroke-width:0.75" />
  <rect
     x="522.97906"
     y="243.98422"
     width="5.7870378"
     height="9.2592602"
     id="rect1262"
     style="fill:#6c63ff;stroke-width:0.75" />
  <rect
     x="512.56244"
     y="300.6972"
     width="5.7870378"
     height="9.2592602"
     id="rect1264"
     style="fill:#6c63ff;stroke-width:0.75" />
  <rect
     x="522.97906"
     y="272.9194"
     width="5.7870378"
     height="9.2592602"
     id="rect1266"
     style="fill:#6c63ff;stroke-width:0.75" />
  <polygon
     points="570.216,300.926 570.216,304.012 573.302,304.012 573.302,310.185 570.216,310.185 570.216,313.272 577.932,313.272 577.932,300.926 "
     id="polygon1268"
     transform="matrix(0.75,0,0,0.75,84.90053,20.604569)"
     style="fill:#6c63ff" />
  <polygon
     points="570.216,395.062 570.216,398.148 573.302,398.148 573.302,404.321 570.216,404.321 570.216,407.407 577.932,407.407 577.932,395.062 "
     id="polygon1270"
     transform="matrix(0.75,0,0,0.75,84.90053,20.604569)"
     style="fill:#6c63ff" />
  <rect
     x="576.21985"
     y="68.058304"
     width="5.7870378"
     height="9.2592602"
     id="rect1272"
     style="fill:#6c63ff;stroke-width:0.75" />
  <rect
     x="576.21985"
     y="140.97498"
     width="5.7870378"
     height="9.2592602"
     id="rect1274"
     style="fill:#6c63ff;stroke-width:0.75" />
  <rect
     x="576.21985"
     y="290.28052"
     width="8.1018524"
     height="1.1574075"
     id="rect1276"
     style="fill:#6c63ff;stroke-width:0.75" />
  <polygon
     points="655.093,100.309 655.093,103.395 658.179,103.395 658.179,109.568 655.093,109.568 655.093,112.654 662.809,112.654 662.809,100.309 "
     id="polygon1278"
     transform="matrix(0.75,0,0,0.75,84.90053,20.604569)"
     style="fill:#6c63ff" />
  <polygon
     points="655.093,120.37 655.093,123.457 658.179,123.457 658.179,129.63 655.093,129.63 655.093,132.716 662.809,132.716 662.809,120.37 "
     id="polygon1280"
     transform="matrix(0.75,0,0,0.75,84.90053,20.604569)"
     style="fill:#6c63ff" />
  <polygon
     points="655.093,140.432 655.093,143.519 658.179,143.519 658.179,149.691 655.093,149.691 655.093,152.778 662.809,152.778 662.809,140.432 "
     id="polygon1282"
     transform="matrix(0.75,0,0,0.75,84.90053,20.604569)"
     style="fill:#6c63ff" />
  <rect
     x="576.21985"
     y="171.06757"
     width="5.7870378"
     height="9.2592602"
     id="rect1284"
     style="fill:#6c63ff;stroke-width:0.75" />
  <polygon
     points="655.093,180.556 655.093,183.642 658.179,183.642 658.179,189.815 655.093,189.815 655.093,192.901 662.809,192.901 662.809,180.556 "
     id="polygon1286"
     transform="matrix(0.75,0,0,0.75,84.90053,20.604569)"
     style="fill:#6c63ff" />
  <rect
     x="576.21985"
     y="201.16016"
     width="5.7870378"
     height="9.2592602"
     id="rect1288"
     style="fill:#6c63ff;stroke-width:0.75" />
  <polygon
     points="655.093,220.679 655.093,223.765 658.179,223.765 658.179,229.938 655.093,229.938 655.093,233.025 662.809,233.025 662.809,220.679 "
     id="polygon1290"
     transform="matrix(0.75,0,0,0.75,84.90053,20.604569)"
     style="fill:#6c63ff" />
  <rect
     x="576.21985"
     y="231.25275"
     width="5.7870378"
     height="9.2592602"
     id="rect1292"
     style="fill:#6c63ff;stroke-width:0.75" />
  <polygon
     points="655.093,260.802 655.093,263.889 658.179,263.889 658.179,270.062 655.093,270.062 655.093,273.148 662.809,273.148 662.809,260.802 "
     id="polygon1294"
     transform="matrix(0.75,0,0,0.75,84.90053,20.604569)"
     style="fill:#6c63ff" />
  <rect
     x="576.21985"
     y="261.34534"
     width="5.7870378"
     height="9.2592602"
     id="rect1296"
     style="fill:#6c63ff;stroke-width:0.75" />
  <rect
     x="576.21985"
     y="300.6972"
     width="5.7870378"
     height="9.2592602"
     id="rect1298"
     style="fill:#6c63ff;stroke-width:0.75" />
  <polygon
     points="655.093,300.926 655.093,304.012 658.179,304.012 658.179,310.185 655.093,310.185 655.093,313.272 662.809,313.272 662.809,300.926 "
     id="polygon1300"
     transform="matrix(0.75,0,0,0.75,84.90053,20.604569)"
     style="fill:#6c63ff" />
  <polygon
     points="655.093,395.062 655.093,398.148 658.179,398.148 658.179,404.321 655.093,404.321 655.093,407.407 662.809,407.407 662.809,395.062 "
     id="polygon1302"
     transform="matrix(0.75,0,0,0.75,84.90053,20.604569)"
     style="fill:#6c63ff" />
  <rect
     x="603.99762"
     y="68.058304"
     width="5.7870378"
     height="9.2592602"
     id="rect1304"
     style="fill:#6c63ff;stroke-width:0.75" />
  <rect
     x="603.99762"
     y="140.97498"
     width="5.7870378"
     height="9.2592602"
     id="rect1306"
     style="fill:#6c63ff;stroke-width:0.75" />
  <rect
     x="603.99762"
     y="290.28052"
     width="8.1018524"
     height="1.1574075"
     id="rect1308"
     style="fill:#6c63ff;stroke-width:0.75" />
  <polygon
     points="692.13,100.309 692.13,103.395 695.216,103.395 695.216,109.568 692.13,109.568 692.13,112.654 699.846,112.654 699.846,100.309 "
     id="polygon1310"
     transform="matrix(0.75,0,0,0.75,84.90053,20.604569)"
     style="fill:#6c63ff" />
  <polygon
     points="692.13,120.37 692.13,123.457 695.216,123.457 695.216,129.63 692.13,129.63 692.13,132.716 699.846,132.716 699.846,120.37 "
     id="polygon1312"
     transform="matrix(0.75,0,0,0.75,84.90053,20.604569)"
     style="fill:#6c63ff" />
  <polygon
     points="692.13,140.432 692.13,143.519 695.216,143.519 695.216,149.691 692.13,149.691 692.13,152.778 699.846,152.778 699.846,140.432 "
     id="polygon1314"
     transform="matrix(0.75,0,0,0.75,84.90053,20.604569)"
     style="fill:#6c63ff" />
  <rect
     x="603.99762"
     y="171.06757"
     width="5.7870378"
     height="9.2592602"
     id="rect1316"
     style="fill:#6c63ff;stroke-width:0.75" />
  <polygon
     points="692.13,180.556 692.13,183.642 695.216,183.642 695.216,189.815 692.13,189.815 692.13,192.901 699.846,192.901 699.846,180.556 "
     id="polygon1318"
     transform="matrix(0.75,0,0,0.75,84.90053,20.604569)"
     style="fill:#6c63ff" />
  <rect
     x="603.99762"
     y="201.16016"
     width="5.7870378"
     height="9.2592602"
     id="rect1320"
     style="fill:#6c63ff;stroke-width:0.75" />
  <polygon
     points="692.13,220.679 692.13,223.765 695.216,223.765 695.216,229.938 692.13,229.938 692.13,233.025 699.846,233.025 699.846,220.679 "
     id="polygon1322"
     transform="matrix(0.75,0,0,0.75,84.90053,20.604569)"
     style="fill:#6c63ff" />
  <rect
     x="603.99762"
     y="231.25275"
     width="5.7870378"
     height="9.2592602"
     id="rect1324"
     style="fill:#6c63ff;stroke-width:0.75" />
  <polygon
     points="692.13,260.802 692.13,263.889 695.216,263.889 695.216,270.062 692.13,270.062 692.13,273.148 699.846,273.148 699.846,260.802 "
     id="polygon1326"
     transform="matrix(0.75,0,0,0.75,84.90053,20.604569)"
     style="fill:#6c63ff" />
  <rect
     x="603.99762"
     y="261.34534"
     width="5.7870378"
     height="9.2592602"
     id="rect1328"
     style="fill:#6c63ff;stroke-width:0.75" />
  <rect
     x="603.99762"
     y="300.6972"
     width="5.7870378"
     height="9.2592602"
     id="rect1330"
     style="fill:#6c63ff;stroke-width:0.75" />
  <polygon
     points="692.13,300.926 692.13,304.012 695.216,304.012 695.216,310.185 692.13,310.185 692.13,313.272 699.846,313.272 699.846,300.926 "
     id="polygon1332"
     transform="matrix(0.75,0,0,0.75,84.90053,20.604569)"
     style="fill:#6c63ff" />
  <polygon
     points="692.13,395.062 692.13,398.148 695.216,398.148 695.216,404.321 692.13,404.321 692.13,407.407 699.846,407.407 699.846,395.062 "
     id="polygon1334"
     transform="matrix(0.75,0,0,0.75,84.90053,20.604569)"
     style="fill:#6c63ff" />
  <polygon
     points="584.105,373.457 584.105,376.543 587.191,376.543 587.191,382.716 584.105,382.716 584.105,385.802 591.821,385.802 591.821,373.457 "
     id="polygon1336"
     transform="matrix(0.75,0,0,0.75,84.90053,20.604569)"
     style="fill:#6c63ff" />
  <polygon
     points="584.105,393.519 584.105,396.605 587.191,396.605 587.191,402.778 584.105,402.778 584.105,405.864 591.821,405.864 591.821,393.519 "
     id="polygon1338"
     transform="matrix(0.75,0,0,0.75,84.90053,20.604569)"
     style="fill:#6c63ff" />
  <polygon
     points="543.981,160.494 543.981,163.58 547.068,163.58 547.068,169.753 543.981,169.753 543.981,172.84 551.698,172.84 551.698,160.494 "
     id="polygon1340"
     transform="matrix(0.75,0,0,0.75,84.90053,20.604569)"
     style="fill:#6c63ff" />
  <polygon
     points="543.981,239.198 543.981,242.284 547.068,242.284 547.068,248.457 543.981,248.457 543.981,251.543 551.698,251.543 551.698,239.198 "
     id="polygon1342"
     transform="matrix(0.75,0,0,0.75,84.90053,20.604569)"
     style="fill:#6c63ff" />
  <polygon
     points="543.981,259.259 543.981,262.346 547.068,262.346 547.068,268.519 543.981,268.519 543.981,271.605 551.698,271.605 551.698,259.259 "
     id="polygon1344"
     transform="matrix(0.75,0,0,0.75,84.90053,20.604569)"
     style="fill:#6c63ff" />
  <polygon
     points="543.981,299.383 543.981,302.469 547.068,302.469 547.068,308.642 543.981,308.642 543.981,311.728 551.698,311.728 551.698,299.383 "
     id="polygon1346"
     transform="matrix(0.75,0,0,0.75,84.90053,20.604569)"
     style="fill:#6c63ff" />
  <polygon
     points="543.981,356.481 543.981,359.568 547.068,359.568 547.068,365.741 543.981,365.741 543.981,368.827 551.698,368.827 551.698,356.481 "
     id="polygon1348"
     transform="matrix(0.75,0,0,0.75,84.90053,20.604569)"
     style="fill:#6c63ff" />
  <polygon
     points="543.981,373.457 543.981,376.543 547.068,376.543 547.068,382.716 543.981,382.716 543.981,385.802 551.698,385.802 551.698,373.457 "
     id="polygon1350"
     transform="matrix(0.75,0,0,0.75,84.90053,20.604569)"
     style="fill:#6c63ff" />
  <rect
     x="553.07166"
     y="70.373116"
     width="5.7870378"
     height="9.2592602"
     id="rect1352"
     style="fill:#6c63ff;stroke-width:0.75" />
  <rect
     x="553.07166"
     y="85.419411"
     width="5.7870378"
     height="9.2592602"
     id="rect1354"
     style="fill:#6c63ff;stroke-width:0.75" />
  <rect
     x="550.75684"
     y="101.62312"
     width="8.1018524"
     height="1.1574075"
     id="rect1356"
     style="fill:#6c63ff;stroke-width:0.75" />
  <rect
     x="550.75684"
     y="175.69719"
     width="8.1018524"
     height="1.1574075"
     id="rect1358"
     style="fill:#6c63ff;stroke-width:0.75" />
  <rect
     x="550.75684"
     y="188.42868"
     width="8.1018524"
     height="1.1574075"
     id="rect1360"
     style="fill:#6c63ff;stroke-width:0.75" />
  <polygon
     points="624.228,121.914 624.228,125 627.315,125 627.315,131.173 624.228,131.173 624.228,134.259 631.944,134.259 631.944,121.914 "
     id="polygon1362"
     transform="matrix(0.75,0,0,0.75,84.90053,20.604569)"
     style="fill:#6c63ff" />
  <polygon
     points="624.228,160.494 624.228,163.58 627.315,163.58 627.315,169.753 624.228,169.753 624.228,172.84 631.944,172.84 631.944,160.494 "
     id="polygon1364"
     transform="matrix(0.75,0,0,0.75,84.90053,20.604569)"
     style="fill:#6c63ff" />
  <polygon
     points="624.228,239.198 624.228,242.284 627.315,242.284 627.315,248.457 624.228,248.457 624.228,251.543 631.944,251.543 631.944,239.198 "
     id="polygon1366"
     transform="matrix(0.75,0,0,0.75,84.90053,20.604569)"
     style="fill:#6c63ff" />
  <rect
     x="619.04388"
     y="171.06757"
     width="5.7870378"
     height="9.2592602"
     id="rect1368"
     style="fill:#6c63ff;stroke-width:0.75" />
  <rect
     x="619.04388"
     y="186.11386"
     width="5.7870378"
     height="9.2592602"
     id="rect1370"
     style="fill:#6c63ff;stroke-width:0.75" />
  <rect
     x="616.72906"
     y="202.31757"
     width="8.1018524"
     height="1.1574075"
     id="rect1372"
     style="fill:#6c63ff;stroke-width:0.75" />
  <rect
     x="616.72906"
     y="276.39163"
     width="8.1018524"
     height="1.1574075"
     id="rect1374"
     style="fill:#6c63ff;stroke-width:0.75" />
  <rect
     x="616.72906"
     y="289.12311"
     width="8.1018524"
     height="1.1574075"
     id="rect1376"
     style="fill:#6c63ff;stroke-width:0.75" />
  <polygon
     points="712.191,256.173 712.191,259.259 715.278,259.259 715.278,265.432 712.191,265.432 712.191,268.519 719.907,268.519 719.907,256.173 "
     id="polygon1378"
     transform="matrix(0.75,0,0,0.75,84.90053,20.604569)"
     style="fill:#6c63ff" />
  <polygon
     points="712.191,294.753 712.191,297.84 715.278,297.84 715.278,304.012 712.191,304.012 712.191,307.099 719.907,307.099 719.907,294.753 "
     id="polygon1380"
     transform="matrix(0.75,0,0,0.75,84.90053,20.604569)"
     style="fill:#6c63ff" />
  <polygon
     points="712.191,373.457 712.191,376.543 715.278,376.543 715.278,382.716 712.191,382.716 712.191,385.802 719.907,385.802 719.907,373.457 "
     id="polygon1382"
     transform="matrix(0.75,0,0,0.75,84.90053,20.604569)"
     style="fill:#6c63ff" />
  <rect
     x="245.72656"
     y="550.50494"
     width="620.70325"
     height="1.9157476"
     id="rect1384"
     style="fill:#2f2e41;stroke-width:0.75" />
  <path
     d="m 374.02552,323.85916 v 39 l 5.25,24 c 0,0 -0.75,15 0,19.5 0.75,4.5 -0.75,12 -5.25,12 -4.5,0 -6.75,11.25 -6.75,11.25 0,0 -1.5,4.5 -5.25,5.25 -3.75,0.75 -3.75,0 -3.75,0 l -3,7.5 -62.25,41.25 12,30 c 0,0 18.75,-6.75 20.25,-9 1.5,-2.25 14.25,3 14.25,-2.25 0,-5.25 2.25,-18.75 6.75,-19.5 4.5,-0.75 42,-18 42,-18 0,0 19.5,-21.75 21,-30 1.5,-8.25 8.25,-31.5 8.25,-31.5 l 18.75,31.5 v 63 l -3,33.75 33,-4.5 c 0,0 -3,-21 0,-24 3,-3 7.5,-39 4.5,-43.5 -3,-4.5 1.5,-24.75 0,-27.75 -1.5,-3 -0.75,-24.75 -4.5,-30.75 -3.75,-6 -26.25,-67.5 -26.25,-67.5 z"
     id="path1386"
     inkscape:connector-curvature="0"
     style="fill:#2f2e41;stroke-width:0.75" />
  <path
     d="m 437.77552,530.10916 c 0,0 -11.25,18.75 -3.75,21 7.5,2.25 21.75,0 23.25,0 1.5,0 28.5,0.75 28.5,0.75 0,0 18,-3.75 18,-9 0,-5.25 -11.25,-5.25 -15,-6 -3.75,-0.75 -27,-9.75 -27,-9.75 z"
     id="path1388"
     inkscape:connector-curvature="0"
     style="fill:#2f2e41;stroke-width:0.75" />
  <path
     d="m 296.46991,484.45528 c 0,0 -21.67683,-2.87061 -20.76044,4.90581 0.91639,7.77642 8.64497,19.95813 9.24117,21.33455 0.40378,0.93219 5.14079,12.73374 8.15641,20.2544 a 43.856633,43.856633 0 0 0 9.62658,14.73904 c 2.94842,2.94684 6.162,5.30949 8.26967,4.39655 4.81748,-2.08672 0.34595,-12.40989 -0.45635,-16.14904 -0.8023,-3.73916 -1.78493,-28.65095 -1.78493,-28.65095 z"
     id="path1390"
     inkscape:connector-curvature="0"
     style="fill:#2f2e41;stroke-width:0.75" />
  <path
     d="m 447.15052,199.73416 24,-55.5 c 0,0 -2.25,-5.25 -7.5,-4.5 0,0 -7.125,-18.375 -20.625,-18.375 0,0 -20.25,-11.25 -26.25,0 0,0 -12.75,11.25 -12,21.75 0.75,10.5 1.5,18 1.5,18 0,0 -12,1.5 -9.75,7.5 2.25,6 3,6 0,8.25 l -3,2.25 c 0,0 -62.25,56.25 -27.75,138.75 l 3,12.75 v 12 c 0,0 75.75,0.75 75.75,0 0,-0.75 -1.5,-5.25 1.5,-8.25 3,-3 3,-7.5 3,-7.5 0,0 -3,-15 -1.5,-19.5 1.5,-4.5 2.25,-24 -0.75,-28.5 -3,-4.5 -1.5,-40.5 -1.5,-40.5 l 6.75,-12.75 -2.25,-7.5 -2.25,-7.5 z"
     id="path1392"
     inkscape:connector-curvature="0"
     style="fill:#8985a8;stroke-width:0.75" />
  <path
     d="m 440.77552,350.10916 c 0,0 -9,-24.75 -8.25,-29.25 0.75,-4.5 -1.5,-13.5 -1.5,-13.5 l -3,-60.75 c 0,0 12.75,-54 -15.75,-63 0,0 -7.21161,3.14667 -13.12042,13.27275 -5.84308,2.60261 -12.93329,9.18919 -14.62958,25.72725 -3,29.25 10.5,104.25 17.25,117 6.75,12.75 11.25,21.75 11.25,21.75 l 7.05487,-3.1355 c 0.29132,0.57788 0.44513,0.8855 0.44513,0.8855 z"
     id="path1394"
     inkscape:connector-curvature="0"
     style="opacity:0.1;stroke-width:0.75" />
  <circle
     cx="444.90057"
     cy="190.73422"
     r="2.25"
     id="circle1396"
     style="fill:#f2f2f2;stroke-width:0.75" />
  <rect
     x="444.15057"
     y="190.73422"
     width="1.5"
     height="35.25"
     id="rect1398"
     style="fill:#3f3d56;stroke-width:0.75" />
  <path
     d="m 417.90052,352.73416 6,12.75 c 0,0 13.5,-4.5 13.5,-6.75 0,-2.25 -6,-12 -6,-12 z"
     id="path1400"
     inkscape:connector-curvature="0"
     style="fill:#ffb8b8;stroke-width:0.75" />
  <path
     d="m 409.27552,183.60916 c 0,0 -17.25,7.5 -20.25,36.75 -3,29.25 10.5,104.25 17.25,117 6.75,12.75 11.25,21.75 11.25,21.75 l 20.25,-9 c 0,0 -9,-24.75 -8.25,-29.25 0.75,-4.5 -1.5,-13.5 -1.5,-13.5 l -3,-60.75 c 0,0 12.75,-54 -15.75,-63 z"
     id="path1402"
     inkscape:connector-curvature="0"
     style="fill:#8985a8;stroke-width:0.75" />
</svg>
